G75*
G70*
%OFA0B0*%
%FSLAX25Y25*%
%IPPOS*%
%LPD*%
%AMOC8*
5,1,8,0,0,1.08239X$1,22.5*
%
%ADD10C,0.12998*%
%ADD11C,0.06000*%
%ADD12OC8,0.06502*%
%ADD13C,0.00453*%
%ADD14C,0.00591*%
%ADD15C,0.00512*%
%ADD16C,0.00985*%
%ADD17OC8,0.16148*%
%ADD18C,0.08077*%
%ADD19C,0.08600*%
%ADD20C,0.04400*%
%ADD21OC8,0.07000*%
%ADD22C,0.13061*%
%ADD23C,0.00520*%
%ADD24C,0.00906*%
%ADD25C,0.00443*%
%ADD26C,0.00887*%
%ADD27C,0.00429*%
%ADD28C,0.00442*%
%ADD29C,0.00740*%
%ADD30C,0.00433*%
%ADD31C,0.00500*%
%ADD32R,0.00600X0.07200*%
D10*
X0081461Y0013250D03*
X0286461Y0033250D03*
X0286461Y0143250D03*
X0086461Y0203250D03*
D11*
X0100461Y0204650D02*
X0100461Y0201850D01*
X0110461Y0201850D02*
X0110461Y0204650D01*
X0120461Y0204650D02*
X0120461Y0201850D01*
X0130461Y0201850D02*
X0130461Y0204650D01*
X0140461Y0204650D02*
X0140461Y0201850D01*
X0150461Y0201850D02*
X0150461Y0204650D01*
X0160461Y0204650D02*
X0160461Y0201850D01*
X0170461Y0201850D02*
X0170461Y0204650D01*
X0180461Y0204650D02*
X0180461Y0201850D01*
X0190461Y0201850D02*
X0190461Y0204650D01*
X0206461Y0204650D02*
X0206461Y0201850D01*
X0216461Y0201850D02*
X0216461Y0204650D01*
X0226461Y0204650D02*
X0226461Y0201850D01*
X0236461Y0201850D02*
X0236461Y0204650D01*
X0246461Y0204650D02*
X0246461Y0201850D01*
X0256461Y0201850D02*
X0256461Y0204650D01*
X0266461Y0204650D02*
X0266461Y0201850D01*
X0276461Y0201850D02*
X0276461Y0204650D01*
X0273961Y0084150D02*
X0273961Y0081350D01*
X0263961Y0081350D02*
X0263961Y0084150D01*
X0253961Y0084150D02*
X0253961Y0081350D01*
X0243961Y0081350D02*
X0243961Y0084150D01*
X0233961Y0084150D02*
X0233961Y0081350D01*
X0223961Y0081350D02*
X0223961Y0084150D01*
X0213961Y0084150D02*
X0213961Y0081350D01*
X0203961Y0081350D02*
X0203961Y0084150D01*
X0193961Y0084150D02*
X0193961Y0081350D01*
X0183961Y0081350D02*
X0183961Y0084150D01*
X0173961Y0084150D02*
X0173961Y0081350D01*
X0163961Y0081350D02*
X0163961Y0084150D01*
X0153961Y0084150D02*
X0153961Y0081350D01*
X0143961Y0081350D02*
X0143961Y0084150D01*
X0143961Y0054150D02*
X0143961Y0051350D01*
X0153961Y0051350D02*
X0153961Y0054150D01*
X0163961Y0054150D02*
X0163961Y0051350D01*
X0173961Y0051350D02*
X0173961Y0054150D01*
X0183961Y0054150D02*
X0183961Y0051350D01*
X0193961Y0051350D02*
X0193961Y0054150D01*
X0203961Y0054150D02*
X0203961Y0051350D01*
X0213961Y0051350D02*
X0213961Y0054150D01*
X0223961Y0054150D02*
X0223961Y0051350D01*
X0233961Y0051350D02*
X0233961Y0054150D01*
X0243961Y0054150D02*
X0243961Y0051350D01*
X0253961Y0051350D02*
X0253961Y0054150D01*
X0263961Y0054150D02*
X0263961Y0051350D01*
X0273961Y0051350D02*
X0273961Y0054150D01*
X0276461Y0014650D02*
X0276461Y0011850D01*
X0266461Y0011850D02*
X0266461Y0014650D01*
X0256461Y0014650D02*
X0256461Y0011850D01*
X0246461Y0011850D02*
X0246461Y0014650D01*
X0236461Y0014650D02*
X0236461Y0011850D01*
X0226461Y0011850D02*
X0226461Y0014650D01*
X0206461Y0014650D02*
X0206461Y0011850D01*
X0196461Y0011850D02*
X0196461Y0014650D01*
X0186461Y0014650D02*
X0186461Y0011850D01*
X0176461Y0011850D02*
X0176461Y0014650D01*
X0166461Y0014650D02*
X0166461Y0011850D01*
X0156461Y0011850D02*
X0156461Y0014650D01*
X0146461Y0014650D02*
X0146461Y0011850D01*
X0136461Y0011850D02*
X0136461Y0014650D01*
D12*
X0276961Y0103250D03*
X0286961Y0103250D03*
X0286961Y0113250D03*
X0276961Y0113250D03*
X0276961Y0123250D03*
X0286961Y0123250D03*
D13*
X0250447Y0116650D02*
X0246365Y0116650D01*
X0246365Y0120850D01*
X0250447Y0120850D01*
X0250447Y0116650D01*
X0250447Y0117102D02*
X0246365Y0117102D01*
X0246365Y0117554D02*
X0250447Y0117554D01*
X0250447Y0118006D02*
X0246365Y0118006D01*
X0246365Y0118458D02*
X0250447Y0118458D01*
X0250447Y0118910D02*
X0246365Y0118910D01*
X0246365Y0119362D02*
X0250447Y0119362D01*
X0250447Y0119814D02*
X0246365Y0119814D01*
X0246365Y0120266D02*
X0250447Y0120266D01*
X0250447Y0120718D02*
X0246365Y0120718D01*
X0243557Y0116650D02*
X0239475Y0116650D01*
X0239475Y0120850D01*
X0243557Y0120850D01*
X0243557Y0116650D01*
X0243557Y0117102D02*
X0239475Y0117102D01*
X0239475Y0117554D02*
X0243557Y0117554D01*
X0243557Y0118006D02*
X0239475Y0118006D01*
X0239475Y0118458D02*
X0243557Y0118458D01*
X0243557Y0118910D02*
X0239475Y0118910D01*
X0239475Y0119362D02*
X0243557Y0119362D01*
X0243557Y0119814D02*
X0239475Y0119814D01*
X0239475Y0120266D02*
X0243557Y0120266D01*
X0243557Y0120718D02*
X0239475Y0120718D01*
X0220447Y0120850D02*
X0216365Y0120850D01*
X0220447Y0120850D02*
X0220447Y0116650D01*
X0216365Y0116650D01*
X0216365Y0120850D01*
X0216365Y0117102D02*
X0220447Y0117102D01*
X0220447Y0117554D02*
X0216365Y0117554D01*
X0216365Y0118006D02*
X0220447Y0118006D01*
X0220447Y0118458D02*
X0216365Y0118458D01*
X0216365Y0118910D02*
X0220447Y0118910D01*
X0220447Y0119362D02*
X0216365Y0119362D01*
X0216365Y0119814D02*
X0220447Y0119814D01*
X0220447Y0120266D02*
X0216365Y0120266D01*
X0216365Y0120718D02*
X0220447Y0120718D01*
X0213557Y0120850D02*
X0209475Y0120850D01*
X0213557Y0120850D02*
X0213557Y0116650D01*
X0209475Y0116650D01*
X0209475Y0120850D01*
X0209475Y0117102D02*
X0213557Y0117102D01*
X0213557Y0117554D02*
X0209475Y0117554D01*
X0209475Y0118006D02*
X0213557Y0118006D01*
X0213557Y0118458D02*
X0209475Y0118458D01*
X0209475Y0118910D02*
X0213557Y0118910D01*
X0213557Y0119362D02*
X0209475Y0119362D01*
X0209475Y0119814D02*
X0213557Y0119814D01*
X0213557Y0120266D02*
X0209475Y0120266D01*
X0209475Y0120718D02*
X0213557Y0120718D01*
X0144947Y0117150D02*
X0140865Y0117150D01*
X0140865Y0121350D01*
X0144947Y0121350D01*
X0144947Y0117150D01*
X0144947Y0117602D02*
X0140865Y0117602D01*
X0140865Y0118054D02*
X0144947Y0118054D01*
X0144947Y0118506D02*
X0140865Y0118506D01*
X0140865Y0118958D02*
X0144947Y0118958D01*
X0144947Y0119410D02*
X0140865Y0119410D01*
X0140865Y0119862D02*
X0144947Y0119862D01*
X0144947Y0120314D02*
X0140865Y0120314D01*
X0140865Y0120766D02*
X0144947Y0120766D01*
X0144947Y0121218D02*
X0140865Y0121218D01*
X0138057Y0117150D02*
X0133975Y0117150D01*
X0133975Y0121350D01*
X0138057Y0121350D01*
X0138057Y0117150D01*
X0138057Y0117602D02*
X0133975Y0117602D01*
X0133975Y0118054D02*
X0138057Y0118054D01*
X0138057Y0118506D02*
X0133975Y0118506D01*
X0133975Y0118958D02*
X0138057Y0118958D01*
X0138057Y0119410D02*
X0133975Y0119410D01*
X0133975Y0119862D02*
X0138057Y0119862D01*
X0138057Y0120314D02*
X0133975Y0120314D01*
X0133975Y0120766D02*
X0138057Y0120766D01*
X0138057Y0121218D02*
X0133975Y0121218D01*
X0133975Y0100150D02*
X0138057Y0100150D01*
X0133975Y0100150D02*
X0133975Y0104350D01*
X0138057Y0104350D01*
X0138057Y0100150D01*
X0138057Y0100602D02*
X0133975Y0100602D01*
X0133975Y0101054D02*
X0138057Y0101054D01*
X0138057Y0101506D02*
X0133975Y0101506D01*
X0133975Y0101958D02*
X0138057Y0101958D01*
X0138057Y0102410D02*
X0133975Y0102410D01*
X0133975Y0102862D02*
X0138057Y0102862D01*
X0138057Y0103314D02*
X0133975Y0103314D01*
X0133975Y0103766D02*
X0138057Y0103766D01*
X0138057Y0104218D02*
X0133975Y0104218D01*
X0140865Y0100150D02*
X0144947Y0100150D01*
X0140865Y0100150D02*
X0140865Y0104350D01*
X0144947Y0104350D01*
X0144947Y0100150D01*
X0144947Y0100602D02*
X0140865Y0100602D01*
X0140865Y0101054D02*
X0144947Y0101054D01*
X0144947Y0101506D02*
X0140865Y0101506D01*
X0140865Y0101958D02*
X0144947Y0101958D01*
X0144947Y0102410D02*
X0140865Y0102410D01*
X0140865Y0102862D02*
X0144947Y0102862D01*
X0144947Y0103314D02*
X0140865Y0103314D01*
X0140865Y0103766D02*
X0144947Y0103766D01*
X0144947Y0104218D02*
X0140865Y0104218D01*
X0079447Y0122850D02*
X0075365Y0122850D01*
X0079447Y0122850D02*
X0079447Y0118650D01*
X0075365Y0118650D01*
X0075365Y0122850D01*
X0075365Y0119102D02*
X0079447Y0119102D01*
X0079447Y0119554D02*
X0075365Y0119554D01*
X0075365Y0120006D02*
X0079447Y0120006D01*
X0079447Y0120458D02*
X0075365Y0120458D01*
X0075365Y0120910D02*
X0079447Y0120910D01*
X0079447Y0121362D02*
X0075365Y0121362D01*
X0075365Y0121814D02*
X0079447Y0121814D01*
X0079447Y0122266D02*
X0075365Y0122266D01*
X0075365Y0122718D02*
X0079447Y0122718D01*
X0072557Y0122850D02*
X0068475Y0122850D01*
X0072557Y0122850D02*
X0072557Y0118650D01*
X0068475Y0118650D01*
X0068475Y0122850D01*
X0068475Y0119102D02*
X0072557Y0119102D01*
X0072557Y0119554D02*
X0068475Y0119554D01*
X0068475Y0120006D02*
X0072557Y0120006D01*
X0072557Y0120458D02*
X0068475Y0120458D01*
X0068475Y0120910D02*
X0072557Y0120910D01*
X0072557Y0121362D02*
X0068475Y0121362D01*
X0068475Y0121814D02*
X0072557Y0121814D01*
X0072557Y0122266D02*
X0068475Y0122266D01*
X0068475Y0122718D02*
X0072557Y0122718D01*
X0096861Y0069236D02*
X0096861Y0065154D01*
X0096861Y0069236D02*
X0101061Y0069236D01*
X0101061Y0065154D01*
X0096861Y0065154D01*
X0096861Y0065606D02*
X0101061Y0065606D01*
X0101061Y0066058D02*
X0096861Y0066058D01*
X0096861Y0066510D02*
X0101061Y0066510D01*
X0101061Y0066962D02*
X0096861Y0066962D01*
X0096861Y0067414D02*
X0101061Y0067414D01*
X0101061Y0067866D02*
X0096861Y0067866D01*
X0096861Y0068318D02*
X0101061Y0068318D01*
X0101061Y0068770D02*
X0096861Y0068770D01*
X0096861Y0069222D02*
X0101061Y0069222D01*
X0096861Y0062346D02*
X0096861Y0058264D01*
X0096861Y0062346D02*
X0101061Y0062346D01*
X0101061Y0058264D01*
X0096861Y0058264D01*
X0096861Y0058716D02*
X0101061Y0058716D01*
X0101061Y0059168D02*
X0096861Y0059168D01*
X0096861Y0059620D02*
X0101061Y0059620D01*
X0101061Y0060072D02*
X0096861Y0060072D01*
X0096861Y0060524D02*
X0101061Y0060524D01*
X0101061Y0060976D02*
X0096861Y0060976D01*
X0096861Y0061428D02*
X0101061Y0061428D01*
X0101061Y0061880D02*
X0096861Y0061880D01*
X0096861Y0062332D02*
X0101061Y0062332D01*
X0129061Y0062346D02*
X0129061Y0058264D01*
X0124861Y0058264D01*
X0124861Y0062346D01*
X0129061Y0062346D01*
X0129061Y0058716D02*
X0124861Y0058716D01*
X0124861Y0059168D02*
X0129061Y0059168D01*
X0129061Y0059620D02*
X0124861Y0059620D01*
X0124861Y0060072D02*
X0129061Y0060072D01*
X0129061Y0060524D02*
X0124861Y0060524D01*
X0124861Y0060976D02*
X0129061Y0060976D01*
X0129061Y0061428D02*
X0124861Y0061428D01*
X0124861Y0061880D02*
X0129061Y0061880D01*
X0129061Y0062332D02*
X0124861Y0062332D01*
X0129061Y0065154D02*
X0129061Y0069236D01*
X0129061Y0065154D02*
X0124861Y0065154D01*
X0124861Y0069236D01*
X0129061Y0069236D01*
X0129061Y0065606D02*
X0124861Y0065606D01*
X0124861Y0066058D02*
X0129061Y0066058D01*
X0129061Y0066510D02*
X0124861Y0066510D01*
X0124861Y0066962D02*
X0129061Y0066962D01*
X0129061Y0067414D02*
X0124861Y0067414D01*
X0124861Y0067866D02*
X0129061Y0067866D01*
X0129061Y0068318D02*
X0124861Y0068318D01*
X0124861Y0068770D02*
X0129061Y0068770D01*
X0129061Y0069222D02*
X0124861Y0069222D01*
X0191975Y0046350D02*
X0196057Y0046350D01*
X0196057Y0042150D01*
X0191975Y0042150D01*
X0191975Y0046350D01*
X0191975Y0042602D02*
X0196057Y0042602D01*
X0196057Y0043054D02*
X0191975Y0043054D01*
X0191975Y0043506D02*
X0196057Y0043506D01*
X0196057Y0043958D02*
X0191975Y0043958D01*
X0191975Y0044410D02*
X0196057Y0044410D01*
X0196057Y0044862D02*
X0191975Y0044862D01*
X0191975Y0045314D02*
X0196057Y0045314D01*
X0196057Y0045766D02*
X0191975Y0045766D01*
X0191975Y0046218D02*
X0196057Y0046218D01*
X0198865Y0046350D02*
X0202947Y0046350D01*
X0202947Y0042150D01*
X0198865Y0042150D01*
X0198865Y0046350D01*
X0198865Y0042602D02*
X0202947Y0042602D01*
X0202947Y0043054D02*
X0198865Y0043054D01*
X0198865Y0043506D02*
X0202947Y0043506D01*
X0202947Y0043958D02*
X0198865Y0043958D01*
X0198865Y0044410D02*
X0202947Y0044410D01*
X0202947Y0044862D02*
X0198865Y0044862D01*
X0198865Y0045314D02*
X0202947Y0045314D01*
X0202947Y0045766D02*
X0198865Y0045766D01*
X0198865Y0046218D02*
X0202947Y0046218D01*
X0144947Y0178850D02*
X0140865Y0178850D01*
X0144947Y0178850D02*
X0144947Y0174650D01*
X0140865Y0174650D01*
X0140865Y0178850D01*
X0140865Y0175102D02*
X0144947Y0175102D01*
X0144947Y0175554D02*
X0140865Y0175554D01*
X0140865Y0176006D02*
X0144947Y0176006D01*
X0144947Y0176458D02*
X0140865Y0176458D01*
X0140865Y0176910D02*
X0144947Y0176910D01*
X0144947Y0177362D02*
X0140865Y0177362D01*
X0140865Y0177814D02*
X0144947Y0177814D01*
X0144947Y0178266D02*
X0140865Y0178266D01*
X0140865Y0178718D02*
X0144947Y0178718D01*
X0138057Y0178850D02*
X0133975Y0178850D01*
X0138057Y0178850D02*
X0138057Y0174650D01*
X0133975Y0174650D01*
X0133975Y0178850D01*
X0133975Y0175102D02*
X0138057Y0175102D01*
X0138057Y0175554D02*
X0133975Y0175554D01*
X0133975Y0176006D02*
X0138057Y0176006D01*
X0138057Y0176458D02*
X0133975Y0176458D01*
X0133975Y0176910D02*
X0138057Y0176910D01*
X0138057Y0177362D02*
X0133975Y0177362D01*
X0133975Y0177814D02*
X0138057Y0177814D01*
X0138057Y0178266D02*
X0133975Y0178266D01*
X0133975Y0178718D02*
X0138057Y0178718D01*
X0112061Y0178764D02*
X0112061Y0182846D01*
X0112061Y0178764D02*
X0107861Y0178764D01*
X0107861Y0182846D01*
X0112061Y0182846D01*
X0112061Y0179216D02*
X0107861Y0179216D01*
X0107861Y0179668D02*
X0112061Y0179668D01*
X0112061Y0180120D02*
X0107861Y0180120D01*
X0107861Y0180572D02*
X0112061Y0180572D01*
X0112061Y0181024D02*
X0107861Y0181024D01*
X0107861Y0181476D02*
X0112061Y0181476D01*
X0112061Y0181928D02*
X0107861Y0181928D01*
X0107861Y0182380D02*
X0112061Y0182380D01*
X0112061Y0182832D02*
X0107861Y0182832D01*
X0103061Y0182846D02*
X0103061Y0178764D01*
X0098861Y0178764D01*
X0098861Y0182846D01*
X0103061Y0182846D01*
X0103061Y0179216D02*
X0098861Y0179216D01*
X0098861Y0179668D02*
X0103061Y0179668D01*
X0103061Y0180120D02*
X0098861Y0180120D01*
X0098861Y0180572D02*
X0103061Y0180572D01*
X0103061Y0181024D02*
X0098861Y0181024D01*
X0098861Y0181476D02*
X0103061Y0181476D01*
X0103061Y0181928D02*
X0098861Y0181928D01*
X0098861Y0182380D02*
X0103061Y0182380D01*
X0103061Y0182832D02*
X0098861Y0182832D01*
X0093061Y0182846D02*
X0093061Y0178764D01*
X0088861Y0178764D01*
X0088861Y0182846D01*
X0093061Y0182846D01*
X0093061Y0179216D02*
X0088861Y0179216D01*
X0088861Y0179668D02*
X0093061Y0179668D01*
X0093061Y0180120D02*
X0088861Y0180120D01*
X0088861Y0180572D02*
X0093061Y0180572D01*
X0093061Y0181024D02*
X0088861Y0181024D01*
X0088861Y0181476D02*
X0093061Y0181476D01*
X0093061Y0181928D02*
X0088861Y0181928D01*
X0088861Y0182380D02*
X0093061Y0182380D01*
X0093061Y0182832D02*
X0088861Y0182832D01*
X0093061Y0185654D02*
X0093061Y0189736D01*
X0093061Y0185654D02*
X0088861Y0185654D01*
X0088861Y0189736D01*
X0093061Y0189736D01*
X0093061Y0186106D02*
X0088861Y0186106D01*
X0088861Y0186558D02*
X0093061Y0186558D01*
X0093061Y0187010D02*
X0088861Y0187010D01*
X0088861Y0187462D02*
X0093061Y0187462D01*
X0093061Y0187914D02*
X0088861Y0187914D01*
X0088861Y0188366D02*
X0093061Y0188366D01*
X0093061Y0188818D02*
X0088861Y0188818D01*
X0088861Y0189270D02*
X0093061Y0189270D01*
X0093061Y0189722D02*
X0088861Y0189722D01*
X0103061Y0189736D02*
X0103061Y0185654D01*
X0098861Y0185654D01*
X0098861Y0189736D01*
X0103061Y0189736D01*
X0103061Y0186106D02*
X0098861Y0186106D01*
X0098861Y0186558D02*
X0103061Y0186558D01*
X0103061Y0187010D02*
X0098861Y0187010D01*
X0098861Y0187462D02*
X0103061Y0187462D01*
X0103061Y0187914D02*
X0098861Y0187914D01*
X0098861Y0188366D02*
X0103061Y0188366D01*
X0103061Y0188818D02*
X0098861Y0188818D01*
X0098861Y0189270D02*
X0103061Y0189270D01*
X0103061Y0189722D02*
X0098861Y0189722D01*
X0112061Y0189736D02*
X0112061Y0185654D01*
X0107861Y0185654D01*
X0107861Y0189736D01*
X0112061Y0189736D01*
X0112061Y0186106D02*
X0107861Y0186106D01*
X0107861Y0186558D02*
X0112061Y0186558D01*
X0112061Y0187010D02*
X0107861Y0187010D01*
X0107861Y0187462D02*
X0112061Y0187462D01*
X0112061Y0187914D02*
X0107861Y0187914D01*
X0107861Y0188366D02*
X0112061Y0188366D01*
X0112061Y0188818D02*
X0107861Y0188818D01*
X0107861Y0189270D02*
X0112061Y0189270D01*
X0112061Y0189722D02*
X0107861Y0189722D01*
D14*
X0255513Y0118104D02*
X0255513Y0112782D01*
X0255513Y0118104D02*
X0262409Y0118104D01*
X0262409Y0112782D01*
X0255513Y0112782D01*
X0255513Y0113372D02*
X0262409Y0113372D01*
X0262409Y0113962D02*
X0255513Y0113962D01*
X0255513Y0114552D02*
X0262409Y0114552D01*
X0262409Y0115142D02*
X0255513Y0115142D01*
X0255513Y0115732D02*
X0262409Y0115732D01*
X0262409Y0116322D02*
X0255513Y0116322D01*
X0255513Y0116912D02*
X0262409Y0116912D01*
X0262409Y0117502D02*
X0255513Y0117502D01*
X0255513Y0118092D02*
X0262409Y0118092D01*
X0255513Y0104718D02*
X0255513Y0099396D01*
X0255513Y0104718D02*
X0262409Y0104718D01*
X0262409Y0099396D01*
X0255513Y0099396D01*
X0255513Y0099986D02*
X0262409Y0099986D01*
X0262409Y0100576D02*
X0255513Y0100576D01*
X0255513Y0101166D02*
X0262409Y0101166D01*
X0262409Y0101756D02*
X0255513Y0101756D01*
X0255513Y0102346D02*
X0262409Y0102346D01*
X0262409Y0102936D02*
X0255513Y0102936D01*
X0255513Y0103526D02*
X0262409Y0103526D01*
X0262409Y0104116D02*
X0255513Y0104116D01*
X0255513Y0104706D02*
X0262409Y0104706D01*
X0129622Y0054509D02*
X0129622Y0042889D01*
X0124300Y0042889D01*
X0124300Y0054509D01*
X0129622Y0054509D01*
X0129622Y0043479D02*
X0124300Y0043479D01*
X0124300Y0044069D02*
X0129622Y0044069D01*
X0129622Y0044659D02*
X0124300Y0044659D01*
X0124300Y0045249D02*
X0129622Y0045249D01*
X0129622Y0045839D02*
X0124300Y0045839D01*
X0124300Y0046429D02*
X0129622Y0046429D01*
X0129622Y0047019D02*
X0124300Y0047019D01*
X0124300Y0047609D02*
X0129622Y0047609D01*
X0129622Y0048199D02*
X0124300Y0048199D01*
X0124300Y0048789D02*
X0129622Y0048789D01*
X0129622Y0049379D02*
X0124300Y0049379D01*
X0124300Y0049969D02*
X0129622Y0049969D01*
X0129622Y0050559D02*
X0124300Y0050559D01*
X0124300Y0051149D02*
X0129622Y0051149D01*
X0129622Y0051739D02*
X0124300Y0051739D01*
X0124300Y0052329D02*
X0129622Y0052329D01*
X0129622Y0052919D02*
X0124300Y0052919D01*
X0124300Y0053509D02*
X0129622Y0053509D01*
X0129622Y0054099D02*
X0124300Y0054099D01*
X0101622Y0054509D02*
X0101622Y0042889D01*
X0096300Y0042889D01*
X0096300Y0054509D01*
X0101622Y0054509D01*
X0101622Y0043479D02*
X0096300Y0043479D01*
X0096300Y0044069D02*
X0101622Y0044069D01*
X0101622Y0044659D02*
X0096300Y0044659D01*
X0096300Y0045249D02*
X0101622Y0045249D01*
X0101622Y0045839D02*
X0096300Y0045839D01*
X0096300Y0046429D02*
X0101622Y0046429D01*
X0101622Y0047019D02*
X0096300Y0047019D01*
X0096300Y0047609D02*
X0101622Y0047609D01*
X0101622Y0048199D02*
X0096300Y0048199D01*
X0096300Y0048789D02*
X0101622Y0048789D01*
X0101622Y0049379D02*
X0096300Y0049379D01*
X0096300Y0049969D02*
X0101622Y0049969D01*
X0101622Y0050559D02*
X0096300Y0050559D01*
X0096300Y0051149D02*
X0101622Y0051149D01*
X0101622Y0051739D02*
X0096300Y0051739D01*
X0096300Y0052329D02*
X0101622Y0052329D01*
X0101622Y0052919D02*
X0096300Y0052919D01*
X0096300Y0053509D02*
X0101622Y0053509D01*
X0101622Y0054099D02*
X0096300Y0054099D01*
X0101622Y0035611D02*
X0101622Y0023991D01*
X0096300Y0023991D01*
X0096300Y0035611D01*
X0101622Y0035611D01*
X0101622Y0024581D02*
X0096300Y0024581D01*
X0096300Y0025171D02*
X0101622Y0025171D01*
X0101622Y0025761D02*
X0096300Y0025761D01*
X0096300Y0026351D02*
X0101622Y0026351D01*
X0101622Y0026941D02*
X0096300Y0026941D01*
X0096300Y0027531D02*
X0101622Y0027531D01*
X0101622Y0028121D02*
X0096300Y0028121D01*
X0096300Y0028711D02*
X0101622Y0028711D01*
X0101622Y0029301D02*
X0096300Y0029301D01*
X0096300Y0029891D02*
X0101622Y0029891D01*
X0101622Y0030481D02*
X0096300Y0030481D01*
X0096300Y0031071D02*
X0101622Y0031071D01*
X0101622Y0031661D02*
X0096300Y0031661D01*
X0096300Y0032251D02*
X0101622Y0032251D01*
X0101622Y0032841D02*
X0096300Y0032841D01*
X0096300Y0033431D02*
X0101622Y0033431D01*
X0101622Y0034021D02*
X0096300Y0034021D01*
X0096300Y0034611D02*
X0101622Y0034611D01*
X0101622Y0035201D02*
X0096300Y0035201D01*
X0129622Y0035611D02*
X0129622Y0023991D01*
X0124300Y0023991D01*
X0124300Y0035611D01*
X0129622Y0035611D01*
X0129622Y0024581D02*
X0124300Y0024581D01*
X0124300Y0025171D02*
X0129622Y0025171D01*
X0129622Y0025761D02*
X0124300Y0025761D01*
X0124300Y0026351D02*
X0129622Y0026351D01*
X0129622Y0026941D02*
X0124300Y0026941D01*
X0124300Y0027531D02*
X0129622Y0027531D01*
X0129622Y0028121D02*
X0124300Y0028121D01*
X0124300Y0028711D02*
X0129622Y0028711D01*
X0129622Y0029301D02*
X0124300Y0029301D01*
X0124300Y0029891D02*
X0129622Y0029891D01*
X0129622Y0030481D02*
X0124300Y0030481D01*
X0124300Y0031071D02*
X0129622Y0031071D01*
X0129622Y0031661D02*
X0124300Y0031661D01*
X0124300Y0032251D02*
X0129622Y0032251D01*
X0129622Y0032841D02*
X0124300Y0032841D01*
X0124300Y0033431D02*
X0129622Y0033431D01*
X0129622Y0034021D02*
X0124300Y0034021D01*
X0124300Y0034611D02*
X0129622Y0034611D01*
X0129622Y0035201D02*
X0124300Y0035201D01*
D15*
X0137633Y0133444D02*
X0137633Y0138056D01*
X0137633Y0133444D02*
X0133021Y0133444D01*
X0133021Y0138056D01*
X0137633Y0138056D01*
X0137633Y0133955D02*
X0133021Y0133955D01*
X0133021Y0134466D02*
X0137633Y0134466D01*
X0137633Y0134977D02*
X0133021Y0134977D01*
X0133021Y0135488D02*
X0137633Y0135488D01*
X0137633Y0135999D02*
X0133021Y0135999D01*
X0133021Y0136510D02*
X0137633Y0136510D01*
X0137633Y0137021D02*
X0133021Y0137021D01*
X0133021Y0137532D02*
X0137633Y0137532D01*
X0137633Y0138043D02*
X0133021Y0138043D01*
X0137633Y0141444D02*
X0137633Y0146056D01*
X0137633Y0141444D02*
X0133021Y0141444D01*
X0133021Y0146056D01*
X0137633Y0146056D01*
X0137633Y0141955D02*
X0133021Y0141955D01*
X0133021Y0142466D02*
X0137633Y0142466D01*
X0137633Y0142977D02*
X0133021Y0142977D01*
X0133021Y0143488D02*
X0137633Y0143488D01*
X0137633Y0143999D02*
X0133021Y0143999D01*
X0133021Y0144510D02*
X0137633Y0144510D01*
X0137633Y0145021D02*
X0133021Y0145021D01*
X0133021Y0145532D02*
X0137633Y0145532D01*
X0137633Y0146043D02*
X0133021Y0146043D01*
X0145900Y0146056D02*
X0145900Y0141444D01*
X0141288Y0141444D01*
X0141288Y0146056D01*
X0145900Y0146056D01*
X0145900Y0141955D02*
X0141288Y0141955D01*
X0141288Y0142466D02*
X0145900Y0142466D01*
X0145900Y0142977D02*
X0141288Y0142977D01*
X0141288Y0143488D02*
X0145900Y0143488D01*
X0145900Y0143999D02*
X0141288Y0143999D01*
X0141288Y0144510D02*
X0145900Y0144510D01*
X0145900Y0145021D02*
X0141288Y0145021D01*
X0141288Y0145532D02*
X0145900Y0145532D01*
X0145900Y0146043D02*
X0141288Y0146043D01*
X0145900Y0138056D02*
X0145900Y0133444D01*
X0141288Y0133444D01*
X0141288Y0138056D01*
X0145900Y0138056D01*
X0145900Y0133955D02*
X0141288Y0133955D01*
X0141288Y0134466D02*
X0145900Y0134466D01*
X0145900Y0134977D02*
X0141288Y0134977D01*
X0141288Y0135488D02*
X0145900Y0135488D01*
X0145900Y0135999D02*
X0141288Y0135999D01*
X0141288Y0136510D02*
X0145900Y0136510D01*
X0145900Y0137021D02*
X0141288Y0137021D01*
X0141288Y0137532D02*
X0145900Y0137532D01*
X0145900Y0138043D02*
X0141288Y0138043D01*
X0145900Y0165444D02*
X0145900Y0170056D01*
X0145900Y0165444D02*
X0141288Y0165444D01*
X0141288Y0170056D01*
X0145900Y0170056D01*
X0145900Y0165955D02*
X0141288Y0165955D01*
X0141288Y0166466D02*
X0145900Y0166466D01*
X0145900Y0166977D02*
X0141288Y0166977D01*
X0141288Y0167488D02*
X0145900Y0167488D01*
X0145900Y0167999D02*
X0141288Y0167999D01*
X0141288Y0168510D02*
X0145900Y0168510D01*
X0145900Y0169021D02*
X0141288Y0169021D01*
X0141288Y0169532D02*
X0145900Y0169532D01*
X0145900Y0170043D02*
X0141288Y0170043D01*
X0137633Y0170056D02*
X0137633Y0165444D01*
X0133021Y0165444D01*
X0133021Y0170056D01*
X0137633Y0170056D01*
X0137633Y0165955D02*
X0133021Y0165955D01*
X0133021Y0166466D02*
X0137633Y0166466D01*
X0137633Y0166977D02*
X0133021Y0166977D01*
X0133021Y0167488D02*
X0137633Y0167488D01*
X0137633Y0167999D02*
X0133021Y0167999D01*
X0133021Y0168510D02*
X0137633Y0168510D01*
X0137633Y0169021D02*
X0133021Y0169021D01*
X0133021Y0169532D02*
X0137633Y0169532D01*
X0137633Y0170043D02*
X0133021Y0170043D01*
X0256133Y0160056D02*
X0256133Y0155444D01*
X0251521Y0155444D01*
X0251521Y0160056D01*
X0256133Y0160056D01*
X0256133Y0155955D02*
X0251521Y0155955D01*
X0251521Y0156466D02*
X0256133Y0156466D01*
X0256133Y0156977D02*
X0251521Y0156977D01*
X0251521Y0157488D02*
X0256133Y0157488D01*
X0256133Y0157999D02*
X0251521Y0157999D01*
X0251521Y0158510D02*
X0256133Y0158510D01*
X0256133Y0159021D02*
X0251521Y0159021D01*
X0251521Y0159532D02*
X0256133Y0159532D01*
X0256133Y0160043D02*
X0251521Y0160043D01*
X0264400Y0160056D02*
X0264400Y0155444D01*
X0259788Y0155444D01*
X0259788Y0160056D01*
X0264400Y0160056D01*
X0264400Y0155955D02*
X0259788Y0155955D01*
X0259788Y0156466D02*
X0264400Y0156466D01*
X0264400Y0156977D02*
X0259788Y0156977D01*
X0259788Y0157488D02*
X0264400Y0157488D01*
X0264400Y0157999D02*
X0259788Y0157999D01*
X0259788Y0158510D02*
X0264400Y0158510D01*
X0264400Y0159021D02*
X0259788Y0159021D01*
X0259788Y0159532D02*
X0264400Y0159532D01*
X0264400Y0160043D02*
X0259788Y0160043D01*
D16*
X0124054Y0009818D02*
X0115190Y0009818D01*
X0115190Y0018682D01*
X0124054Y0018682D01*
X0124054Y0009818D01*
X0124054Y0010802D02*
X0115190Y0010802D01*
X0115190Y0011786D02*
X0124054Y0011786D01*
X0124054Y0012770D02*
X0115190Y0012770D01*
X0115190Y0013754D02*
X0124054Y0013754D01*
X0124054Y0014738D02*
X0115190Y0014738D01*
X0115190Y0015722D02*
X0124054Y0015722D01*
X0124054Y0016706D02*
X0115190Y0016706D01*
X0115190Y0017690D02*
X0124054Y0017690D01*
X0124054Y0018674D02*
X0115190Y0018674D01*
X0106731Y0009818D02*
X0097867Y0009818D01*
X0097867Y0018682D01*
X0106731Y0018682D01*
X0106731Y0009818D01*
X0106731Y0010802D02*
X0097867Y0010802D01*
X0097867Y0011786D02*
X0106731Y0011786D01*
X0106731Y0012770D02*
X0097867Y0012770D01*
X0097867Y0013754D02*
X0106731Y0013754D01*
X0106731Y0014738D02*
X0097867Y0014738D01*
X0097867Y0015722D02*
X0106731Y0015722D01*
X0106731Y0016706D02*
X0097867Y0016706D01*
X0097867Y0017690D02*
X0106731Y0017690D01*
X0106731Y0018674D02*
X0097867Y0018674D01*
D17*
X0060661Y0016250D03*
X0072461Y0035950D03*
X0048861Y0035950D03*
D18*
X0048861Y0032950D03*
X0048861Y0038950D03*
X0072461Y0038950D03*
X0072461Y0032950D03*
X0063661Y0016250D03*
X0057661Y0016250D03*
D19*
X0039177Y0016675D02*
X0039179Y0016772D01*
X0039186Y0016868D01*
X0039198Y0016964D01*
X0039215Y0017059D01*
X0039236Y0017153D01*
X0039262Y0017247D01*
X0039292Y0017338D01*
X0039327Y0017429D01*
X0039366Y0017517D01*
X0039409Y0017603D01*
X0039457Y0017687D01*
X0039509Y0017769D01*
X0039564Y0017848D01*
X0039624Y0017924D01*
X0039687Y0017997D01*
X0039754Y0018067D01*
X0039824Y0018134D01*
X0039897Y0018197D01*
X0039973Y0018257D01*
X0040052Y0018312D01*
X0040134Y0018364D01*
X0040218Y0018412D01*
X0040304Y0018455D01*
X0040392Y0018494D01*
X0040483Y0018529D01*
X0040574Y0018559D01*
X0040668Y0018585D01*
X0040762Y0018606D01*
X0040857Y0018623D01*
X0040953Y0018635D01*
X0041049Y0018642D01*
X0041146Y0018644D01*
X0041243Y0018642D01*
X0041339Y0018635D01*
X0041435Y0018623D01*
X0041530Y0018606D01*
X0041624Y0018585D01*
X0041718Y0018559D01*
X0041809Y0018529D01*
X0041900Y0018494D01*
X0041988Y0018455D01*
X0042074Y0018412D01*
X0042158Y0018364D01*
X0042240Y0018312D01*
X0042319Y0018257D01*
X0042395Y0018197D01*
X0042468Y0018134D01*
X0042538Y0018067D01*
X0042605Y0017997D01*
X0042668Y0017924D01*
X0042728Y0017848D01*
X0042783Y0017769D01*
X0042835Y0017687D01*
X0042883Y0017603D01*
X0042926Y0017517D01*
X0042965Y0017429D01*
X0043000Y0017338D01*
X0043030Y0017247D01*
X0043056Y0017153D01*
X0043077Y0017059D01*
X0043094Y0016964D01*
X0043106Y0016868D01*
X0043113Y0016772D01*
X0043115Y0016675D01*
X0043113Y0016578D01*
X0043106Y0016482D01*
X0043094Y0016386D01*
X0043077Y0016291D01*
X0043056Y0016197D01*
X0043030Y0016103D01*
X0043000Y0016012D01*
X0042965Y0015921D01*
X0042926Y0015833D01*
X0042883Y0015747D01*
X0042835Y0015663D01*
X0042783Y0015581D01*
X0042728Y0015502D01*
X0042668Y0015426D01*
X0042605Y0015353D01*
X0042538Y0015283D01*
X0042468Y0015216D01*
X0042395Y0015153D01*
X0042319Y0015093D01*
X0042240Y0015038D01*
X0042158Y0014986D01*
X0042074Y0014938D01*
X0041988Y0014895D01*
X0041900Y0014856D01*
X0041809Y0014821D01*
X0041718Y0014791D01*
X0041624Y0014765D01*
X0041530Y0014744D01*
X0041435Y0014727D01*
X0041339Y0014715D01*
X0041243Y0014708D01*
X0041146Y0014706D01*
X0041049Y0014708D01*
X0040953Y0014715D01*
X0040857Y0014727D01*
X0040762Y0014744D01*
X0040668Y0014765D01*
X0040574Y0014791D01*
X0040483Y0014821D01*
X0040392Y0014856D01*
X0040304Y0014895D01*
X0040218Y0014938D01*
X0040134Y0014986D01*
X0040052Y0015038D01*
X0039973Y0015093D01*
X0039897Y0015153D01*
X0039824Y0015216D01*
X0039754Y0015283D01*
X0039687Y0015353D01*
X0039624Y0015426D01*
X0039564Y0015502D01*
X0039509Y0015581D01*
X0039457Y0015663D01*
X0039409Y0015747D01*
X0039366Y0015833D01*
X0039327Y0015921D01*
X0039292Y0016012D01*
X0039262Y0016103D01*
X0039236Y0016197D01*
X0039215Y0016291D01*
X0039198Y0016386D01*
X0039186Y0016482D01*
X0039179Y0016578D01*
X0039177Y0016675D01*
X0236460Y0069159D02*
X0236462Y0069256D01*
X0236469Y0069352D01*
X0236481Y0069448D01*
X0236498Y0069543D01*
X0236519Y0069637D01*
X0236545Y0069731D01*
X0236575Y0069822D01*
X0236610Y0069913D01*
X0236649Y0070001D01*
X0236692Y0070087D01*
X0236740Y0070171D01*
X0236792Y0070253D01*
X0236847Y0070332D01*
X0236907Y0070408D01*
X0236970Y0070481D01*
X0237037Y0070551D01*
X0237107Y0070618D01*
X0237180Y0070681D01*
X0237256Y0070741D01*
X0237335Y0070796D01*
X0237417Y0070848D01*
X0237501Y0070896D01*
X0237587Y0070939D01*
X0237675Y0070978D01*
X0237766Y0071013D01*
X0237857Y0071043D01*
X0237951Y0071069D01*
X0238045Y0071090D01*
X0238140Y0071107D01*
X0238236Y0071119D01*
X0238332Y0071126D01*
X0238429Y0071128D01*
X0238526Y0071126D01*
X0238622Y0071119D01*
X0238718Y0071107D01*
X0238813Y0071090D01*
X0238907Y0071069D01*
X0239001Y0071043D01*
X0239092Y0071013D01*
X0239183Y0070978D01*
X0239271Y0070939D01*
X0239357Y0070896D01*
X0239441Y0070848D01*
X0239523Y0070796D01*
X0239602Y0070741D01*
X0239678Y0070681D01*
X0239751Y0070618D01*
X0239821Y0070551D01*
X0239888Y0070481D01*
X0239951Y0070408D01*
X0240011Y0070332D01*
X0240066Y0070253D01*
X0240118Y0070171D01*
X0240166Y0070087D01*
X0240209Y0070001D01*
X0240248Y0069913D01*
X0240283Y0069822D01*
X0240313Y0069731D01*
X0240339Y0069637D01*
X0240360Y0069543D01*
X0240377Y0069448D01*
X0240389Y0069352D01*
X0240396Y0069256D01*
X0240398Y0069159D01*
X0240396Y0069062D01*
X0240389Y0068966D01*
X0240377Y0068870D01*
X0240360Y0068775D01*
X0240339Y0068681D01*
X0240313Y0068587D01*
X0240283Y0068496D01*
X0240248Y0068405D01*
X0240209Y0068317D01*
X0240166Y0068231D01*
X0240118Y0068147D01*
X0240066Y0068065D01*
X0240011Y0067986D01*
X0239951Y0067910D01*
X0239888Y0067837D01*
X0239821Y0067767D01*
X0239751Y0067700D01*
X0239678Y0067637D01*
X0239602Y0067577D01*
X0239523Y0067522D01*
X0239441Y0067470D01*
X0239357Y0067422D01*
X0239271Y0067379D01*
X0239183Y0067340D01*
X0239092Y0067305D01*
X0239001Y0067275D01*
X0238907Y0067249D01*
X0238813Y0067228D01*
X0238718Y0067211D01*
X0238622Y0067199D01*
X0238526Y0067192D01*
X0238429Y0067190D01*
X0238332Y0067192D01*
X0238236Y0067199D01*
X0238140Y0067211D01*
X0238045Y0067228D01*
X0237951Y0067249D01*
X0237857Y0067275D01*
X0237766Y0067305D01*
X0237675Y0067340D01*
X0237587Y0067379D01*
X0237501Y0067422D01*
X0237417Y0067470D01*
X0237335Y0067522D01*
X0237256Y0067577D01*
X0237180Y0067637D01*
X0237107Y0067700D01*
X0237037Y0067767D01*
X0236970Y0067837D01*
X0236907Y0067910D01*
X0236847Y0067986D01*
X0236792Y0068065D01*
X0236740Y0068147D01*
X0236692Y0068231D01*
X0236649Y0068317D01*
X0236610Y0068405D01*
X0236575Y0068496D01*
X0236545Y0068587D01*
X0236519Y0068681D01*
X0236498Y0068775D01*
X0236481Y0068870D01*
X0236469Y0068966D01*
X0236462Y0069062D01*
X0236460Y0069159D01*
X0049492Y0197750D02*
X0049494Y0197847D01*
X0049501Y0197943D01*
X0049513Y0198039D01*
X0049530Y0198134D01*
X0049551Y0198228D01*
X0049577Y0198322D01*
X0049607Y0198413D01*
X0049642Y0198504D01*
X0049681Y0198592D01*
X0049724Y0198678D01*
X0049772Y0198762D01*
X0049824Y0198844D01*
X0049879Y0198923D01*
X0049939Y0198999D01*
X0050002Y0199072D01*
X0050069Y0199142D01*
X0050139Y0199209D01*
X0050212Y0199272D01*
X0050288Y0199332D01*
X0050367Y0199387D01*
X0050449Y0199439D01*
X0050533Y0199487D01*
X0050619Y0199530D01*
X0050707Y0199569D01*
X0050798Y0199604D01*
X0050889Y0199634D01*
X0050983Y0199660D01*
X0051077Y0199681D01*
X0051172Y0199698D01*
X0051268Y0199710D01*
X0051364Y0199717D01*
X0051461Y0199719D01*
X0051558Y0199717D01*
X0051654Y0199710D01*
X0051750Y0199698D01*
X0051845Y0199681D01*
X0051939Y0199660D01*
X0052033Y0199634D01*
X0052124Y0199604D01*
X0052215Y0199569D01*
X0052303Y0199530D01*
X0052389Y0199487D01*
X0052473Y0199439D01*
X0052555Y0199387D01*
X0052634Y0199332D01*
X0052710Y0199272D01*
X0052783Y0199209D01*
X0052853Y0199142D01*
X0052920Y0199072D01*
X0052983Y0198999D01*
X0053043Y0198923D01*
X0053098Y0198844D01*
X0053150Y0198762D01*
X0053198Y0198678D01*
X0053241Y0198592D01*
X0053280Y0198504D01*
X0053315Y0198413D01*
X0053345Y0198322D01*
X0053371Y0198228D01*
X0053392Y0198134D01*
X0053409Y0198039D01*
X0053421Y0197943D01*
X0053428Y0197847D01*
X0053430Y0197750D01*
X0053428Y0197653D01*
X0053421Y0197557D01*
X0053409Y0197461D01*
X0053392Y0197366D01*
X0053371Y0197272D01*
X0053345Y0197178D01*
X0053315Y0197087D01*
X0053280Y0196996D01*
X0053241Y0196908D01*
X0053198Y0196822D01*
X0053150Y0196738D01*
X0053098Y0196656D01*
X0053043Y0196577D01*
X0052983Y0196501D01*
X0052920Y0196428D01*
X0052853Y0196358D01*
X0052783Y0196291D01*
X0052710Y0196228D01*
X0052634Y0196168D01*
X0052555Y0196113D01*
X0052473Y0196061D01*
X0052389Y0196013D01*
X0052303Y0195970D01*
X0052215Y0195931D01*
X0052124Y0195896D01*
X0052033Y0195866D01*
X0051939Y0195840D01*
X0051845Y0195819D01*
X0051750Y0195802D01*
X0051654Y0195790D01*
X0051558Y0195783D01*
X0051461Y0195781D01*
X0051364Y0195783D01*
X0051268Y0195790D01*
X0051172Y0195802D01*
X0051077Y0195819D01*
X0050983Y0195840D01*
X0050889Y0195866D01*
X0050798Y0195896D01*
X0050707Y0195931D01*
X0050619Y0195970D01*
X0050533Y0196013D01*
X0050449Y0196061D01*
X0050367Y0196113D01*
X0050288Y0196168D01*
X0050212Y0196228D01*
X0050139Y0196291D01*
X0050069Y0196358D01*
X0050002Y0196428D01*
X0049939Y0196501D01*
X0049879Y0196577D01*
X0049824Y0196656D01*
X0049772Y0196738D01*
X0049724Y0196822D01*
X0049681Y0196908D01*
X0049642Y0196996D01*
X0049607Y0197087D01*
X0049577Y0197178D01*
X0049551Y0197272D01*
X0049530Y0197366D01*
X0049513Y0197461D01*
X0049501Y0197557D01*
X0049494Y0197653D01*
X0049492Y0197750D01*
D20*
X0041146Y0016675D03*
X0238429Y0069159D03*
X0051461Y0197750D03*
D21*
X0052130Y0158171D03*
X0060004Y0158171D03*
X0060004Y0148329D03*
X0052130Y0148329D03*
D22*
X0041461Y0129628D03*
X0041461Y0176872D03*
D23*
X0073501Y0083190D02*
X0073501Y0078510D01*
X0064821Y0078510D01*
X0064821Y0083190D01*
X0073501Y0083190D01*
X0073501Y0079029D02*
X0064821Y0079029D01*
X0064821Y0079548D02*
X0073501Y0079548D01*
X0073501Y0080067D02*
X0064821Y0080067D01*
X0064821Y0080586D02*
X0073501Y0080586D01*
X0073501Y0081105D02*
X0064821Y0081105D01*
X0064821Y0081624D02*
X0073501Y0081624D01*
X0073501Y0082143D02*
X0064821Y0082143D01*
X0064821Y0082662D02*
X0073501Y0082662D01*
X0073501Y0083181D02*
X0064821Y0083181D01*
X0073501Y0074090D02*
X0073501Y0069410D01*
X0064821Y0069410D01*
X0064821Y0074090D01*
X0073501Y0074090D01*
X0073501Y0069929D02*
X0064821Y0069929D01*
X0064821Y0070448D02*
X0073501Y0070448D01*
X0073501Y0070967D02*
X0064821Y0070967D01*
X0064821Y0071486D02*
X0073501Y0071486D01*
X0073501Y0072005D02*
X0064821Y0072005D01*
X0064821Y0072524D02*
X0073501Y0072524D01*
X0073501Y0073043D02*
X0064821Y0073043D01*
X0064821Y0073562D02*
X0073501Y0073562D01*
X0073501Y0074081D02*
X0064821Y0074081D01*
X0073501Y0064990D02*
X0073501Y0060310D01*
X0064821Y0060310D01*
X0064821Y0064990D01*
X0073501Y0064990D01*
X0073501Y0060829D02*
X0064821Y0060829D01*
X0064821Y0061348D02*
X0073501Y0061348D01*
X0073501Y0061867D02*
X0064821Y0061867D01*
X0064821Y0062386D02*
X0073501Y0062386D01*
X0073501Y0062905D02*
X0064821Y0062905D01*
X0064821Y0063424D02*
X0073501Y0063424D01*
X0073501Y0063943D02*
X0064821Y0063943D01*
X0064821Y0064462D02*
X0073501Y0064462D01*
X0073501Y0064981D02*
X0064821Y0064981D01*
D24*
X0048837Y0064917D02*
X0048837Y0078583D01*
X0048837Y0064917D02*
X0040683Y0064917D01*
X0040683Y0078583D01*
X0048837Y0078583D01*
X0048837Y0065822D02*
X0040683Y0065822D01*
X0040683Y0066727D02*
X0048837Y0066727D01*
X0048837Y0067632D02*
X0040683Y0067632D01*
X0040683Y0068537D02*
X0048837Y0068537D01*
X0048837Y0069442D02*
X0040683Y0069442D01*
X0040683Y0070347D02*
X0048837Y0070347D01*
X0048837Y0071252D02*
X0040683Y0071252D01*
X0040683Y0072157D02*
X0048837Y0072157D01*
X0048837Y0073062D02*
X0040683Y0073062D01*
X0040683Y0073967D02*
X0048837Y0073967D01*
X0048837Y0074872D02*
X0040683Y0074872D01*
X0040683Y0075777D02*
X0048837Y0075777D01*
X0048837Y0076682D02*
X0040683Y0076682D01*
X0040683Y0077587D02*
X0048837Y0077587D01*
X0048837Y0078492D02*
X0040683Y0078492D01*
D25*
X0060777Y0102366D02*
X0060777Y0105334D01*
X0064145Y0105334D01*
X0064145Y0102366D01*
X0060777Y0102366D01*
X0060777Y0102808D02*
X0064145Y0102808D01*
X0064145Y0103250D02*
X0060777Y0103250D01*
X0060777Y0103692D02*
X0064145Y0103692D01*
X0064145Y0104134D02*
X0060777Y0104134D01*
X0060777Y0104576D02*
X0064145Y0104576D01*
X0064145Y0105018D02*
X0060777Y0105018D01*
X0052777Y0106166D02*
X0052777Y0109134D01*
X0056145Y0109134D01*
X0056145Y0106166D01*
X0052777Y0106166D01*
X0052777Y0106608D02*
X0056145Y0106608D01*
X0056145Y0107050D02*
X0052777Y0107050D01*
X0052777Y0107492D02*
X0056145Y0107492D01*
X0056145Y0107934D02*
X0052777Y0107934D01*
X0052777Y0108376D02*
X0056145Y0108376D01*
X0056145Y0108818D02*
X0052777Y0108818D01*
X0060777Y0109966D02*
X0060777Y0112934D01*
X0064145Y0112934D01*
X0064145Y0109966D01*
X0060777Y0109966D01*
X0060777Y0110408D02*
X0064145Y0110408D01*
X0064145Y0110850D02*
X0060777Y0110850D01*
X0060777Y0111292D02*
X0064145Y0111292D01*
X0064145Y0111734D02*
X0060777Y0111734D01*
X0060777Y0112176D02*
X0064145Y0112176D01*
X0064145Y0112618D02*
X0060777Y0112618D01*
D26*
X0065090Y0186379D02*
X0070902Y0186379D01*
X0065090Y0186379D02*
X0065090Y0191405D01*
X0070902Y0191405D01*
X0070902Y0186379D01*
X0070902Y0187265D02*
X0065090Y0187265D01*
X0065090Y0188151D02*
X0070902Y0188151D01*
X0070902Y0189037D02*
X0065090Y0189037D01*
X0065090Y0189923D02*
X0070902Y0189923D01*
X0070902Y0190809D02*
X0065090Y0190809D01*
X0037831Y0186379D02*
X0032019Y0186379D01*
X0032019Y0191405D01*
X0037831Y0191405D01*
X0037831Y0186379D01*
X0037831Y0187265D02*
X0032019Y0187265D01*
X0032019Y0188151D02*
X0037831Y0188151D01*
X0037831Y0189037D02*
X0032019Y0189037D01*
X0032019Y0189923D02*
X0037831Y0189923D01*
X0037831Y0190809D02*
X0032019Y0190809D01*
X0032019Y0195237D02*
X0037831Y0195237D01*
X0032019Y0195237D02*
X0032019Y0200263D01*
X0037831Y0200263D01*
X0037831Y0195237D01*
X0037831Y0196123D02*
X0032019Y0196123D01*
X0032019Y0197009D02*
X0037831Y0197009D01*
X0037831Y0197895D02*
X0032019Y0197895D01*
X0032019Y0198781D02*
X0037831Y0198781D01*
X0037831Y0199667D02*
X0032019Y0199667D01*
X0032019Y0204095D02*
X0037831Y0204095D01*
X0032019Y0204095D02*
X0032019Y0209121D01*
X0037831Y0209121D01*
X0037831Y0204095D01*
X0037831Y0204981D02*
X0032019Y0204981D01*
X0032019Y0205867D02*
X0037831Y0205867D01*
X0037831Y0206753D02*
X0032019Y0206753D01*
X0032019Y0207639D02*
X0037831Y0207639D01*
X0037831Y0208525D02*
X0032019Y0208525D01*
X0065090Y0204095D02*
X0070902Y0204095D01*
X0065090Y0204095D02*
X0065090Y0209121D01*
X0070902Y0209121D01*
X0070902Y0204095D01*
X0070902Y0204981D02*
X0065090Y0204981D01*
X0065090Y0205867D02*
X0070902Y0205867D01*
X0070902Y0206753D02*
X0065090Y0206753D01*
X0065090Y0207639D02*
X0070902Y0207639D01*
X0070902Y0208525D02*
X0065090Y0208525D01*
D27*
X0105587Y0067967D02*
X0105587Y0066013D01*
X0105587Y0067967D02*
X0110099Y0067967D01*
X0110099Y0066013D01*
X0105587Y0066013D01*
X0105587Y0066441D02*
X0110099Y0066441D01*
X0110099Y0066869D02*
X0105587Y0066869D01*
X0105587Y0067297D02*
X0110099Y0067297D01*
X0110099Y0067725D02*
X0105587Y0067725D01*
X0105587Y0064227D02*
X0105587Y0062273D01*
X0105587Y0064227D02*
X0110099Y0064227D01*
X0110099Y0062273D01*
X0105587Y0062273D01*
X0105587Y0062701D02*
X0110099Y0062701D01*
X0110099Y0063129D02*
X0105587Y0063129D01*
X0105587Y0063557D02*
X0110099Y0063557D01*
X0110099Y0063985D02*
X0105587Y0063985D01*
X0105587Y0060487D02*
X0105587Y0058533D01*
X0105587Y0060487D02*
X0110099Y0060487D01*
X0110099Y0058533D01*
X0105587Y0058533D01*
X0105587Y0058961D02*
X0110099Y0058961D01*
X0110099Y0059389D02*
X0105587Y0059389D01*
X0105587Y0059817D02*
X0110099Y0059817D01*
X0110099Y0060245D02*
X0105587Y0060245D01*
X0115823Y0060487D02*
X0115823Y0058533D01*
X0115823Y0060487D02*
X0120335Y0060487D01*
X0120335Y0058533D01*
X0115823Y0058533D01*
X0115823Y0058961D02*
X0120335Y0058961D01*
X0120335Y0059389D02*
X0115823Y0059389D01*
X0115823Y0059817D02*
X0120335Y0059817D01*
X0120335Y0060245D02*
X0115823Y0060245D01*
X0115823Y0066013D02*
X0115823Y0067967D01*
X0120335Y0067967D01*
X0120335Y0066013D01*
X0115823Y0066013D01*
X0115823Y0066441D02*
X0120335Y0066441D01*
X0120335Y0066869D02*
X0115823Y0066869D01*
X0115823Y0067297D02*
X0120335Y0067297D01*
X0120335Y0067725D02*
X0115823Y0067725D01*
D28*
X0113969Y0084672D02*
X0113969Y0086828D01*
X0122425Y0086828D01*
X0122425Y0084672D01*
X0113969Y0084672D01*
X0113969Y0085113D02*
X0122425Y0085113D01*
X0122425Y0085554D02*
X0113969Y0085554D01*
X0113969Y0085995D02*
X0122425Y0085995D01*
X0122425Y0086436D02*
X0113969Y0086436D01*
X0113969Y0089672D02*
X0113969Y0091828D01*
X0122425Y0091828D01*
X0122425Y0089672D01*
X0113969Y0089672D01*
X0113969Y0090113D02*
X0122425Y0090113D01*
X0122425Y0090554D02*
X0113969Y0090554D01*
X0113969Y0090995D02*
X0122425Y0090995D01*
X0122425Y0091436D02*
X0113969Y0091436D01*
X0093496Y0091828D02*
X0093496Y0089672D01*
X0093496Y0091828D02*
X0101952Y0091828D01*
X0101952Y0089672D01*
X0093496Y0089672D01*
X0093496Y0090113D02*
X0101952Y0090113D01*
X0101952Y0090554D02*
X0093496Y0090554D01*
X0093496Y0090995D02*
X0101952Y0090995D01*
X0101952Y0091436D02*
X0093496Y0091436D01*
X0093496Y0086828D02*
X0093496Y0084672D01*
X0093496Y0086828D02*
X0101952Y0086828D01*
X0101952Y0084672D01*
X0093496Y0084672D01*
X0093496Y0085113D02*
X0101952Y0085113D01*
X0101952Y0085554D02*
X0093496Y0085554D01*
X0093496Y0085995D02*
X0101952Y0085995D01*
X0101952Y0086436D02*
X0093496Y0086436D01*
X0093496Y0094672D02*
X0093496Y0096828D01*
X0101952Y0096828D01*
X0101952Y0094672D01*
X0093496Y0094672D01*
X0093496Y0095113D02*
X0101952Y0095113D01*
X0101952Y0095554D02*
X0093496Y0095554D01*
X0093496Y0095995D02*
X0101952Y0095995D01*
X0101952Y0096436D02*
X0093496Y0096436D01*
X0093496Y0099672D02*
X0093496Y0101828D01*
X0101952Y0101828D01*
X0101952Y0099672D01*
X0093496Y0099672D01*
X0093496Y0100113D02*
X0101952Y0100113D01*
X0101952Y0100554D02*
X0093496Y0100554D01*
X0093496Y0100995D02*
X0101952Y0100995D01*
X0101952Y0101436D02*
X0093496Y0101436D01*
X0113969Y0101828D02*
X0113969Y0099672D01*
X0113969Y0101828D02*
X0122425Y0101828D01*
X0122425Y0099672D01*
X0113969Y0099672D01*
X0113969Y0100113D02*
X0122425Y0100113D01*
X0122425Y0100554D02*
X0113969Y0100554D01*
X0113969Y0100995D02*
X0122425Y0100995D01*
X0122425Y0101436D02*
X0113969Y0101436D01*
X0113969Y0096828D02*
X0113969Y0094672D01*
X0113969Y0096828D02*
X0122425Y0096828D01*
X0122425Y0094672D01*
X0113969Y0094672D01*
X0113969Y0095113D02*
X0122425Y0095113D01*
X0122425Y0095554D02*
X0113969Y0095554D01*
X0113969Y0095995D02*
X0122425Y0095995D01*
X0122425Y0096436D02*
X0113969Y0096436D01*
X0113039Y0115467D02*
X0110883Y0115467D01*
X0110883Y0119985D01*
X0113039Y0119985D01*
X0113039Y0115467D01*
X0113039Y0115908D02*
X0110883Y0115908D01*
X0110883Y0116349D02*
X0113039Y0116349D01*
X0113039Y0116790D02*
X0110883Y0116790D01*
X0110883Y0117231D02*
X0113039Y0117231D01*
X0113039Y0117672D02*
X0110883Y0117672D01*
X0110883Y0118113D02*
X0113039Y0118113D01*
X0113039Y0118554D02*
X0110883Y0118554D01*
X0110883Y0118995D02*
X0113039Y0118995D01*
X0113039Y0119436D02*
X0110883Y0119436D01*
X0110883Y0119877D02*
X0113039Y0119877D01*
X0115883Y0115467D02*
X0118039Y0115467D01*
X0115883Y0115467D02*
X0115883Y0119985D01*
X0118039Y0119985D01*
X0118039Y0115467D01*
X0118039Y0115908D02*
X0115883Y0115908D01*
X0115883Y0116349D02*
X0118039Y0116349D01*
X0118039Y0116790D02*
X0115883Y0116790D01*
X0115883Y0117231D02*
X0118039Y0117231D01*
X0118039Y0117672D02*
X0115883Y0117672D01*
X0115883Y0118113D02*
X0118039Y0118113D01*
X0118039Y0118554D02*
X0115883Y0118554D01*
X0115883Y0118995D02*
X0118039Y0118995D01*
X0118039Y0119436D02*
X0115883Y0119436D01*
X0115883Y0119877D02*
X0118039Y0119877D01*
X0120883Y0115467D02*
X0123039Y0115467D01*
X0120883Y0115467D02*
X0120883Y0119985D01*
X0123039Y0119985D01*
X0123039Y0115467D01*
X0123039Y0115908D02*
X0120883Y0115908D01*
X0120883Y0116349D02*
X0123039Y0116349D01*
X0123039Y0116790D02*
X0120883Y0116790D01*
X0120883Y0117231D02*
X0123039Y0117231D01*
X0123039Y0117672D02*
X0120883Y0117672D01*
X0120883Y0118113D02*
X0123039Y0118113D01*
X0123039Y0118554D02*
X0120883Y0118554D01*
X0120883Y0118995D02*
X0123039Y0118995D01*
X0123039Y0119436D02*
X0120883Y0119436D01*
X0120883Y0119877D02*
X0123039Y0119877D01*
X0108039Y0115467D02*
X0105883Y0115467D01*
X0105883Y0119985D01*
X0108039Y0119985D01*
X0108039Y0115467D01*
X0108039Y0115908D02*
X0105883Y0115908D01*
X0105883Y0116349D02*
X0108039Y0116349D01*
X0108039Y0116790D02*
X0105883Y0116790D01*
X0105883Y0117231D02*
X0108039Y0117231D01*
X0108039Y0117672D02*
X0105883Y0117672D01*
X0105883Y0118113D02*
X0108039Y0118113D01*
X0108039Y0118554D02*
X0105883Y0118554D01*
X0105883Y0118995D02*
X0108039Y0118995D01*
X0108039Y0119436D02*
X0105883Y0119436D01*
X0105883Y0119877D02*
X0108039Y0119877D01*
X0103039Y0115467D02*
X0100883Y0115467D01*
X0100883Y0119985D01*
X0103039Y0119985D01*
X0103039Y0115467D01*
X0103039Y0115908D02*
X0100883Y0115908D01*
X0100883Y0116349D02*
X0103039Y0116349D01*
X0103039Y0116790D02*
X0100883Y0116790D01*
X0100883Y0117231D02*
X0103039Y0117231D01*
X0103039Y0117672D02*
X0100883Y0117672D01*
X0100883Y0118113D02*
X0103039Y0118113D01*
X0103039Y0118554D02*
X0100883Y0118554D01*
X0100883Y0118995D02*
X0103039Y0118995D01*
X0103039Y0119436D02*
X0100883Y0119436D01*
X0100883Y0119877D02*
X0103039Y0119877D01*
X0098039Y0115467D02*
X0095883Y0115467D01*
X0095883Y0119985D01*
X0098039Y0119985D01*
X0098039Y0115467D01*
X0098039Y0115908D02*
X0095883Y0115908D01*
X0095883Y0116349D02*
X0098039Y0116349D01*
X0098039Y0116790D02*
X0095883Y0116790D01*
X0095883Y0117231D02*
X0098039Y0117231D01*
X0098039Y0117672D02*
X0095883Y0117672D01*
X0095883Y0118113D02*
X0098039Y0118113D01*
X0098039Y0118554D02*
X0095883Y0118554D01*
X0095883Y0118995D02*
X0098039Y0118995D01*
X0098039Y0119436D02*
X0095883Y0119436D01*
X0095883Y0119877D02*
X0098039Y0119877D01*
X0093039Y0115467D02*
X0090883Y0115467D01*
X0090883Y0119985D01*
X0093039Y0119985D01*
X0093039Y0115467D01*
X0093039Y0115908D02*
X0090883Y0115908D01*
X0090883Y0116349D02*
X0093039Y0116349D01*
X0093039Y0116790D02*
X0090883Y0116790D01*
X0090883Y0117231D02*
X0093039Y0117231D01*
X0093039Y0117672D02*
X0090883Y0117672D01*
X0090883Y0118113D02*
X0093039Y0118113D01*
X0093039Y0118554D02*
X0090883Y0118554D01*
X0090883Y0118995D02*
X0093039Y0118995D01*
X0093039Y0119436D02*
X0090883Y0119436D01*
X0090883Y0119877D02*
X0093039Y0119877D01*
X0088039Y0115467D02*
X0085883Y0115467D01*
X0085883Y0119985D01*
X0088039Y0119985D01*
X0088039Y0115467D01*
X0088039Y0115908D02*
X0085883Y0115908D01*
X0085883Y0116349D02*
X0088039Y0116349D01*
X0088039Y0116790D02*
X0085883Y0116790D01*
X0085883Y0117231D02*
X0088039Y0117231D01*
X0088039Y0117672D02*
X0085883Y0117672D01*
X0085883Y0118113D02*
X0088039Y0118113D01*
X0088039Y0118554D02*
X0085883Y0118554D01*
X0085883Y0118995D02*
X0088039Y0118995D01*
X0088039Y0119436D02*
X0085883Y0119436D01*
X0085883Y0119877D02*
X0088039Y0119877D01*
X0088039Y0137515D02*
X0085883Y0137515D01*
X0085883Y0142033D01*
X0088039Y0142033D01*
X0088039Y0137515D01*
X0088039Y0137956D02*
X0085883Y0137956D01*
X0085883Y0138397D02*
X0088039Y0138397D01*
X0088039Y0138838D02*
X0085883Y0138838D01*
X0085883Y0139279D02*
X0088039Y0139279D01*
X0088039Y0139720D02*
X0085883Y0139720D01*
X0085883Y0140161D02*
X0088039Y0140161D01*
X0088039Y0140602D02*
X0085883Y0140602D01*
X0085883Y0141043D02*
X0088039Y0141043D01*
X0088039Y0141484D02*
X0085883Y0141484D01*
X0085883Y0141925D02*
X0088039Y0141925D01*
X0090883Y0137515D02*
X0093039Y0137515D01*
X0090883Y0137515D02*
X0090883Y0142033D01*
X0093039Y0142033D01*
X0093039Y0137515D01*
X0093039Y0137956D02*
X0090883Y0137956D01*
X0090883Y0138397D02*
X0093039Y0138397D01*
X0093039Y0138838D02*
X0090883Y0138838D01*
X0090883Y0139279D02*
X0093039Y0139279D01*
X0093039Y0139720D02*
X0090883Y0139720D01*
X0090883Y0140161D02*
X0093039Y0140161D01*
X0093039Y0140602D02*
X0090883Y0140602D01*
X0090883Y0141043D02*
X0093039Y0141043D01*
X0093039Y0141484D02*
X0090883Y0141484D01*
X0090883Y0141925D02*
X0093039Y0141925D01*
X0095883Y0137515D02*
X0098039Y0137515D01*
X0095883Y0137515D02*
X0095883Y0142033D01*
X0098039Y0142033D01*
X0098039Y0137515D01*
X0098039Y0137956D02*
X0095883Y0137956D01*
X0095883Y0138397D02*
X0098039Y0138397D01*
X0098039Y0138838D02*
X0095883Y0138838D01*
X0095883Y0139279D02*
X0098039Y0139279D01*
X0098039Y0139720D02*
X0095883Y0139720D01*
X0095883Y0140161D02*
X0098039Y0140161D01*
X0098039Y0140602D02*
X0095883Y0140602D01*
X0095883Y0141043D02*
X0098039Y0141043D01*
X0098039Y0141484D02*
X0095883Y0141484D01*
X0095883Y0141925D02*
X0098039Y0141925D01*
X0100883Y0137515D02*
X0103039Y0137515D01*
X0100883Y0137515D02*
X0100883Y0142033D01*
X0103039Y0142033D01*
X0103039Y0137515D01*
X0103039Y0137956D02*
X0100883Y0137956D01*
X0100883Y0138397D02*
X0103039Y0138397D01*
X0103039Y0138838D02*
X0100883Y0138838D01*
X0100883Y0139279D02*
X0103039Y0139279D01*
X0103039Y0139720D02*
X0100883Y0139720D01*
X0100883Y0140161D02*
X0103039Y0140161D01*
X0103039Y0140602D02*
X0100883Y0140602D01*
X0100883Y0141043D02*
X0103039Y0141043D01*
X0103039Y0141484D02*
X0100883Y0141484D01*
X0100883Y0141925D02*
X0103039Y0141925D01*
X0105883Y0137515D02*
X0108039Y0137515D01*
X0105883Y0137515D02*
X0105883Y0142033D01*
X0108039Y0142033D01*
X0108039Y0137515D01*
X0108039Y0137956D02*
X0105883Y0137956D01*
X0105883Y0138397D02*
X0108039Y0138397D01*
X0108039Y0138838D02*
X0105883Y0138838D01*
X0105883Y0139279D02*
X0108039Y0139279D01*
X0108039Y0139720D02*
X0105883Y0139720D01*
X0105883Y0140161D02*
X0108039Y0140161D01*
X0108039Y0140602D02*
X0105883Y0140602D01*
X0105883Y0141043D02*
X0108039Y0141043D01*
X0108039Y0141484D02*
X0105883Y0141484D01*
X0105883Y0141925D02*
X0108039Y0141925D01*
X0110883Y0137515D02*
X0113039Y0137515D01*
X0110883Y0137515D02*
X0110883Y0142033D01*
X0113039Y0142033D01*
X0113039Y0137515D01*
X0113039Y0137956D02*
X0110883Y0137956D01*
X0110883Y0138397D02*
X0113039Y0138397D01*
X0113039Y0138838D02*
X0110883Y0138838D01*
X0110883Y0139279D02*
X0113039Y0139279D01*
X0113039Y0139720D02*
X0110883Y0139720D01*
X0110883Y0140161D02*
X0113039Y0140161D01*
X0113039Y0140602D02*
X0110883Y0140602D01*
X0110883Y0141043D02*
X0113039Y0141043D01*
X0113039Y0141484D02*
X0110883Y0141484D01*
X0110883Y0141925D02*
X0113039Y0141925D01*
X0115883Y0137515D02*
X0118039Y0137515D01*
X0115883Y0137515D02*
X0115883Y0142033D01*
X0118039Y0142033D01*
X0118039Y0137515D01*
X0118039Y0137956D02*
X0115883Y0137956D01*
X0115883Y0138397D02*
X0118039Y0138397D01*
X0118039Y0138838D02*
X0115883Y0138838D01*
X0115883Y0139279D02*
X0118039Y0139279D01*
X0118039Y0139720D02*
X0115883Y0139720D01*
X0115883Y0140161D02*
X0118039Y0140161D01*
X0118039Y0140602D02*
X0115883Y0140602D01*
X0115883Y0141043D02*
X0118039Y0141043D01*
X0118039Y0141484D02*
X0115883Y0141484D01*
X0115883Y0141925D02*
X0118039Y0141925D01*
X0120883Y0137515D02*
X0123039Y0137515D01*
X0120883Y0137515D02*
X0120883Y0142033D01*
X0123039Y0142033D01*
X0123039Y0137515D01*
X0123039Y0137956D02*
X0120883Y0137956D01*
X0120883Y0138397D02*
X0123039Y0138397D01*
X0123039Y0138838D02*
X0120883Y0138838D01*
X0120883Y0139279D02*
X0123039Y0139279D01*
X0123039Y0139720D02*
X0120883Y0139720D01*
X0120883Y0140161D02*
X0123039Y0140161D01*
X0123039Y0140602D02*
X0120883Y0140602D01*
X0120883Y0141043D02*
X0123039Y0141043D01*
X0123039Y0141484D02*
X0120883Y0141484D01*
X0120883Y0141925D02*
X0123039Y0141925D01*
D29*
X0129791Y0169580D02*
X0110131Y0169580D01*
X0129791Y0169580D02*
X0129791Y0162920D01*
X0110131Y0162920D01*
X0110131Y0169580D01*
X0110131Y0163659D02*
X0129791Y0163659D01*
X0129791Y0164398D02*
X0110131Y0164398D01*
X0110131Y0165137D02*
X0129791Y0165137D01*
X0129791Y0165876D02*
X0110131Y0165876D01*
X0110131Y0166615D02*
X0129791Y0166615D01*
X0129791Y0167354D02*
X0110131Y0167354D01*
X0110131Y0168093D02*
X0129791Y0168093D01*
X0129791Y0168832D02*
X0110131Y0168832D01*
X0110131Y0169571D02*
X0129791Y0169571D01*
X0091791Y0169580D02*
X0072131Y0169580D01*
X0091791Y0169580D02*
X0091791Y0162920D01*
X0072131Y0162920D01*
X0072131Y0169580D01*
X0072131Y0163659D02*
X0091791Y0163659D01*
X0091791Y0164398D02*
X0072131Y0164398D01*
X0072131Y0165137D02*
X0091791Y0165137D01*
X0091791Y0165876D02*
X0072131Y0165876D01*
X0072131Y0166615D02*
X0091791Y0166615D01*
X0091791Y0167354D02*
X0072131Y0167354D01*
X0072131Y0168093D02*
X0091791Y0168093D01*
X0091791Y0168832D02*
X0072131Y0168832D01*
X0072131Y0169571D02*
X0091791Y0169571D01*
X0201131Y0142580D02*
X0220791Y0142580D01*
X0220791Y0135920D01*
X0201131Y0135920D01*
X0201131Y0142580D01*
X0201131Y0136659D02*
X0220791Y0136659D01*
X0220791Y0137398D02*
X0201131Y0137398D01*
X0201131Y0138137D02*
X0220791Y0138137D01*
X0220791Y0138876D02*
X0201131Y0138876D01*
X0201131Y0139615D02*
X0220791Y0139615D01*
X0220791Y0140354D02*
X0201131Y0140354D01*
X0201131Y0141093D02*
X0220791Y0141093D01*
X0220791Y0141832D02*
X0201131Y0141832D01*
X0201131Y0142571D02*
X0220791Y0142571D01*
X0239131Y0142580D02*
X0258791Y0142580D01*
X0258791Y0135920D01*
X0239131Y0135920D01*
X0239131Y0142580D01*
X0239131Y0136659D02*
X0258791Y0136659D01*
X0258791Y0137398D02*
X0239131Y0137398D01*
X0239131Y0138137D02*
X0258791Y0138137D01*
X0258791Y0138876D02*
X0239131Y0138876D01*
X0239131Y0139615D02*
X0258791Y0139615D01*
X0258791Y0140354D02*
X0239131Y0140354D01*
X0239131Y0141093D02*
X0258791Y0141093D01*
X0258791Y0141832D02*
X0239131Y0141832D01*
X0239131Y0142571D02*
X0258791Y0142571D01*
D30*
X0266315Y0143955D02*
X0266315Y0147853D01*
X0270607Y0147853D01*
X0270607Y0143955D01*
X0266315Y0143955D01*
X0266315Y0144387D02*
X0270607Y0144387D01*
X0270607Y0144819D02*
X0266315Y0144819D01*
X0266315Y0145251D02*
X0270607Y0145251D01*
X0270607Y0145683D02*
X0266315Y0145683D01*
X0266315Y0146115D02*
X0270607Y0146115D01*
X0270607Y0146547D02*
X0266315Y0146547D01*
X0266315Y0146979D02*
X0270607Y0146979D01*
X0270607Y0147411D02*
X0266315Y0147411D01*
X0266315Y0147843D02*
X0270607Y0147843D01*
X0266315Y0150647D02*
X0266315Y0154545D01*
X0270607Y0154545D01*
X0270607Y0150647D01*
X0266315Y0150647D01*
X0266315Y0151079D02*
X0270607Y0151079D01*
X0270607Y0151511D02*
X0266315Y0151511D01*
X0266315Y0151943D02*
X0270607Y0151943D01*
X0270607Y0152375D02*
X0266315Y0152375D01*
X0266315Y0152807D02*
X0270607Y0152807D01*
X0270607Y0153239D02*
X0266315Y0153239D01*
X0266315Y0153671D02*
X0270607Y0153671D01*
X0270607Y0154103D02*
X0266315Y0154103D01*
X0266315Y0154535D02*
X0270607Y0154535D01*
X0244028Y0156459D02*
X0244028Y0152561D01*
X0238554Y0152561D01*
X0238554Y0156459D01*
X0244028Y0156459D01*
X0244028Y0152993D02*
X0238554Y0152993D01*
X0238554Y0153425D02*
X0244028Y0153425D01*
X0244028Y0153857D02*
X0238554Y0153857D01*
X0238554Y0154289D02*
X0244028Y0154289D01*
X0244028Y0154721D02*
X0238554Y0154721D01*
X0238554Y0155153D02*
X0244028Y0155153D01*
X0244028Y0155585D02*
X0238554Y0155585D01*
X0238554Y0156017D02*
X0244028Y0156017D01*
X0244028Y0156449D02*
X0238554Y0156449D01*
X0244028Y0160041D02*
X0244028Y0163939D01*
X0244028Y0160041D02*
X0238554Y0160041D01*
X0238554Y0163939D01*
X0244028Y0163939D01*
X0244028Y0160473D02*
X0238554Y0160473D01*
X0238554Y0160905D02*
X0244028Y0160905D01*
X0244028Y0161337D02*
X0238554Y0161337D01*
X0238554Y0161769D02*
X0244028Y0161769D01*
X0244028Y0162201D02*
X0238554Y0162201D01*
X0238554Y0162633D02*
X0244028Y0162633D01*
X0244028Y0163065D02*
X0238554Y0163065D01*
X0238554Y0163497D02*
X0244028Y0163497D01*
X0244028Y0163929D02*
X0238554Y0163929D01*
X0244028Y0168561D02*
X0244028Y0172459D01*
X0244028Y0168561D02*
X0238554Y0168561D01*
X0238554Y0172459D01*
X0244028Y0172459D01*
X0244028Y0168993D02*
X0238554Y0168993D01*
X0238554Y0169425D02*
X0244028Y0169425D01*
X0244028Y0169857D02*
X0238554Y0169857D01*
X0238554Y0170289D02*
X0244028Y0170289D01*
X0244028Y0170721D02*
X0238554Y0170721D01*
X0238554Y0171153D02*
X0244028Y0171153D01*
X0244028Y0171585D02*
X0238554Y0171585D01*
X0238554Y0172017D02*
X0244028Y0172017D01*
X0244028Y0172449D02*
X0238554Y0172449D01*
X0235367Y0172301D02*
X0235367Y0176199D01*
X0235367Y0172301D02*
X0229893Y0172301D01*
X0229893Y0176199D01*
X0235367Y0176199D01*
X0235367Y0172733D02*
X0229893Y0172733D01*
X0229893Y0173165D02*
X0235367Y0173165D01*
X0235367Y0173597D02*
X0229893Y0173597D01*
X0229893Y0174029D02*
X0235367Y0174029D01*
X0235367Y0174461D02*
X0229893Y0174461D01*
X0229893Y0174893D02*
X0235367Y0174893D01*
X0235367Y0175325D02*
X0229893Y0175325D01*
X0229893Y0175757D02*
X0235367Y0175757D01*
X0235367Y0176189D02*
X0229893Y0176189D01*
X0244028Y0176041D02*
X0244028Y0179939D01*
X0244028Y0176041D02*
X0238554Y0176041D01*
X0238554Y0179939D01*
X0244028Y0179939D01*
X0244028Y0176473D02*
X0238554Y0176473D01*
X0238554Y0176905D02*
X0244028Y0176905D01*
X0244028Y0177337D02*
X0238554Y0177337D01*
X0238554Y0177769D02*
X0244028Y0177769D01*
X0244028Y0178201D02*
X0238554Y0178201D01*
X0238554Y0178633D02*
X0244028Y0178633D01*
X0244028Y0179065D02*
X0238554Y0179065D01*
X0238554Y0179497D02*
X0244028Y0179497D01*
X0244028Y0179929D02*
X0238554Y0179929D01*
X0252665Y0180396D02*
X0256563Y0180396D01*
X0256563Y0176104D01*
X0252665Y0176104D01*
X0252665Y0180396D01*
X0252665Y0176536D02*
X0256563Y0176536D01*
X0256563Y0176968D02*
X0252665Y0176968D01*
X0252665Y0177400D02*
X0256563Y0177400D01*
X0256563Y0177832D02*
X0252665Y0177832D01*
X0252665Y0178264D02*
X0256563Y0178264D01*
X0256563Y0178696D02*
X0252665Y0178696D01*
X0252665Y0179128D02*
X0256563Y0179128D01*
X0256563Y0179560D02*
X0252665Y0179560D01*
X0252665Y0179992D02*
X0256563Y0179992D01*
X0259358Y0180396D02*
X0263256Y0180396D01*
X0263256Y0176104D01*
X0259358Y0176104D01*
X0259358Y0180396D01*
X0259358Y0176536D02*
X0263256Y0176536D01*
X0263256Y0176968D02*
X0259358Y0176968D01*
X0259358Y0177400D02*
X0263256Y0177400D01*
X0263256Y0177832D02*
X0259358Y0177832D01*
X0259358Y0178264D02*
X0263256Y0178264D01*
X0263256Y0178696D02*
X0259358Y0178696D01*
X0259358Y0179128D02*
X0263256Y0179128D01*
X0263256Y0179560D02*
X0259358Y0179560D01*
X0259358Y0179992D02*
X0263256Y0179992D01*
X0263256Y0172396D02*
X0259358Y0172396D01*
X0263256Y0172396D02*
X0263256Y0168104D01*
X0259358Y0168104D01*
X0259358Y0172396D01*
X0259358Y0168536D02*
X0263256Y0168536D01*
X0263256Y0168968D02*
X0259358Y0168968D01*
X0259358Y0169400D02*
X0263256Y0169400D01*
X0263256Y0169832D02*
X0259358Y0169832D01*
X0259358Y0170264D02*
X0263256Y0170264D01*
X0263256Y0170696D02*
X0259358Y0170696D01*
X0259358Y0171128D02*
X0263256Y0171128D01*
X0263256Y0171560D02*
X0259358Y0171560D01*
X0259358Y0171992D02*
X0263256Y0171992D01*
X0256563Y0172396D02*
X0252665Y0172396D01*
X0256563Y0172396D02*
X0256563Y0168104D01*
X0252665Y0168104D01*
X0252665Y0172396D01*
X0252665Y0168536D02*
X0256563Y0168536D01*
X0256563Y0168968D02*
X0252665Y0168968D01*
X0252665Y0169400D02*
X0256563Y0169400D01*
X0256563Y0169832D02*
X0252665Y0169832D01*
X0252665Y0170264D02*
X0256563Y0170264D01*
X0256563Y0170696D02*
X0252665Y0170696D01*
X0252665Y0171128D02*
X0256563Y0171128D01*
X0256563Y0171560D02*
X0252665Y0171560D01*
X0252665Y0171992D02*
X0256563Y0171992D01*
X0235367Y0160199D02*
X0235367Y0156301D01*
X0229893Y0156301D01*
X0229893Y0160199D01*
X0235367Y0160199D01*
X0235367Y0156733D02*
X0229893Y0156733D01*
X0229893Y0157165D02*
X0235367Y0157165D01*
X0235367Y0157597D02*
X0229893Y0157597D01*
X0229893Y0158029D02*
X0235367Y0158029D01*
X0235367Y0158461D02*
X0229893Y0158461D01*
X0229893Y0158893D02*
X0235367Y0158893D01*
X0235367Y0159325D02*
X0229893Y0159325D01*
X0229893Y0159757D02*
X0235367Y0159757D01*
X0235367Y0160189D02*
X0229893Y0160189D01*
X0144756Y0161896D02*
X0140858Y0161896D01*
X0144756Y0161896D02*
X0144756Y0157604D01*
X0140858Y0157604D01*
X0140858Y0161896D01*
X0140858Y0158036D02*
X0144756Y0158036D01*
X0144756Y0158468D02*
X0140858Y0158468D01*
X0140858Y0158900D02*
X0144756Y0158900D01*
X0144756Y0159332D02*
X0140858Y0159332D01*
X0140858Y0159764D02*
X0144756Y0159764D01*
X0144756Y0160196D02*
X0140858Y0160196D01*
X0140858Y0160628D02*
X0144756Y0160628D01*
X0144756Y0161060D02*
X0140858Y0161060D01*
X0140858Y0161492D02*
X0144756Y0161492D01*
X0138063Y0161896D02*
X0134165Y0161896D01*
X0138063Y0161896D02*
X0138063Y0157604D01*
X0134165Y0157604D01*
X0134165Y0161896D01*
X0134165Y0158036D02*
X0138063Y0158036D01*
X0138063Y0158468D02*
X0134165Y0158468D01*
X0134165Y0158900D02*
X0138063Y0158900D01*
X0138063Y0159332D02*
X0134165Y0159332D01*
X0134165Y0159764D02*
X0138063Y0159764D01*
X0138063Y0160196D02*
X0134165Y0160196D01*
X0134165Y0160628D02*
X0138063Y0160628D01*
X0138063Y0161060D02*
X0134165Y0161060D01*
X0134165Y0161492D02*
X0138063Y0161492D01*
X0138063Y0153896D02*
X0134165Y0153896D01*
X0138063Y0153896D02*
X0138063Y0149604D01*
X0134165Y0149604D01*
X0134165Y0153896D01*
X0134165Y0150036D02*
X0138063Y0150036D01*
X0138063Y0150468D02*
X0134165Y0150468D01*
X0134165Y0150900D02*
X0138063Y0150900D01*
X0138063Y0151332D02*
X0134165Y0151332D01*
X0134165Y0151764D02*
X0138063Y0151764D01*
X0138063Y0152196D02*
X0134165Y0152196D01*
X0134165Y0152628D02*
X0138063Y0152628D01*
X0138063Y0153060D02*
X0134165Y0153060D01*
X0134165Y0153492D02*
X0138063Y0153492D01*
X0140858Y0153896D02*
X0144756Y0153896D01*
X0144756Y0149604D01*
X0140858Y0149604D01*
X0140858Y0153896D01*
X0140858Y0150036D02*
X0144756Y0150036D01*
X0144756Y0150468D02*
X0140858Y0150468D01*
X0140858Y0150900D02*
X0144756Y0150900D01*
X0144756Y0151332D02*
X0140858Y0151332D01*
X0140858Y0151764D02*
X0144756Y0151764D01*
X0144756Y0152196D02*
X0140858Y0152196D01*
X0140858Y0152628D02*
X0144756Y0152628D01*
X0144756Y0153060D02*
X0140858Y0153060D01*
X0140858Y0153492D02*
X0144756Y0153492D01*
X0144756Y0128896D02*
X0140858Y0128896D01*
X0144756Y0128896D02*
X0144756Y0124604D01*
X0140858Y0124604D01*
X0140858Y0128896D01*
X0140858Y0125036D02*
X0144756Y0125036D01*
X0144756Y0125468D02*
X0140858Y0125468D01*
X0140858Y0125900D02*
X0144756Y0125900D01*
X0144756Y0126332D02*
X0140858Y0126332D01*
X0140858Y0126764D02*
X0144756Y0126764D01*
X0144756Y0127196D02*
X0140858Y0127196D01*
X0140858Y0127628D02*
X0144756Y0127628D01*
X0144756Y0128060D02*
X0140858Y0128060D01*
X0140858Y0128492D02*
X0144756Y0128492D01*
X0138063Y0128896D02*
X0134165Y0128896D01*
X0138063Y0128896D02*
X0138063Y0124604D01*
X0134165Y0124604D01*
X0134165Y0128896D01*
X0134165Y0125036D02*
X0138063Y0125036D01*
X0138063Y0125468D02*
X0134165Y0125468D01*
X0134165Y0125900D02*
X0138063Y0125900D01*
X0138063Y0126332D02*
X0134165Y0126332D01*
X0134165Y0126764D02*
X0138063Y0126764D01*
X0138063Y0127196D02*
X0134165Y0127196D01*
X0134165Y0127628D02*
X0138063Y0127628D01*
X0138063Y0128060D02*
X0134165Y0128060D01*
X0134165Y0128492D02*
X0138063Y0128492D01*
X0138063Y0113396D02*
X0134165Y0113396D01*
X0138063Y0113396D02*
X0138063Y0109104D01*
X0134165Y0109104D01*
X0134165Y0113396D01*
X0134165Y0109536D02*
X0138063Y0109536D01*
X0138063Y0109968D02*
X0134165Y0109968D01*
X0134165Y0110400D02*
X0138063Y0110400D01*
X0138063Y0110832D02*
X0134165Y0110832D01*
X0134165Y0111264D02*
X0138063Y0111264D01*
X0138063Y0111696D02*
X0134165Y0111696D01*
X0134165Y0112128D02*
X0138063Y0112128D01*
X0138063Y0112560D02*
X0134165Y0112560D01*
X0134165Y0112992D02*
X0138063Y0112992D01*
X0140858Y0113396D02*
X0144756Y0113396D01*
X0144756Y0109104D01*
X0140858Y0109104D01*
X0140858Y0113396D01*
X0140858Y0109536D02*
X0144756Y0109536D01*
X0144756Y0109968D02*
X0140858Y0109968D01*
X0140858Y0110400D02*
X0144756Y0110400D01*
X0144756Y0110832D02*
X0140858Y0110832D01*
X0140858Y0111264D02*
X0144756Y0111264D01*
X0144756Y0111696D02*
X0140858Y0111696D01*
X0140858Y0112128D02*
X0144756Y0112128D01*
X0144756Y0112560D02*
X0140858Y0112560D01*
X0140858Y0112992D02*
X0144756Y0112992D01*
X0084256Y0096104D02*
X0080358Y0096104D01*
X0080358Y0100396D01*
X0084256Y0100396D01*
X0084256Y0096104D01*
X0084256Y0096536D02*
X0080358Y0096536D01*
X0080358Y0096968D02*
X0084256Y0096968D01*
X0084256Y0097400D02*
X0080358Y0097400D01*
X0080358Y0097832D02*
X0084256Y0097832D01*
X0084256Y0098264D02*
X0080358Y0098264D01*
X0080358Y0098696D02*
X0084256Y0098696D01*
X0084256Y0099128D02*
X0080358Y0099128D01*
X0080358Y0099560D02*
X0084256Y0099560D01*
X0084256Y0099992D02*
X0080358Y0099992D01*
X0077563Y0096104D02*
X0073665Y0096104D01*
X0073665Y0100396D01*
X0077563Y0100396D01*
X0077563Y0096104D01*
X0077563Y0096536D02*
X0073665Y0096536D01*
X0073665Y0096968D02*
X0077563Y0096968D01*
X0077563Y0097400D02*
X0073665Y0097400D01*
X0073665Y0097832D02*
X0077563Y0097832D01*
X0077563Y0098264D02*
X0073665Y0098264D01*
X0073665Y0098696D02*
X0077563Y0098696D01*
X0077563Y0099128D02*
X0073665Y0099128D01*
X0073665Y0099560D02*
X0077563Y0099560D01*
X0077563Y0099992D02*
X0073665Y0099992D01*
X0073665Y0092396D02*
X0077563Y0092396D01*
X0077563Y0088104D01*
X0073665Y0088104D01*
X0073665Y0092396D01*
X0073665Y0088536D02*
X0077563Y0088536D01*
X0077563Y0088968D02*
X0073665Y0088968D01*
X0073665Y0089400D02*
X0077563Y0089400D01*
X0077563Y0089832D02*
X0073665Y0089832D01*
X0073665Y0090264D02*
X0077563Y0090264D01*
X0077563Y0090696D02*
X0073665Y0090696D01*
X0073665Y0091128D02*
X0077563Y0091128D01*
X0077563Y0091560D02*
X0073665Y0091560D01*
X0073665Y0091992D02*
X0077563Y0091992D01*
X0080358Y0092396D02*
X0084256Y0092396D01*
X0084256Y0088104D01*
X0080358Y0088104D01*
X0080358Y0092396D01*
X0080358Y0088536D02*
X0084256Y0088536D01*
X0084256Y0088968D02*
X0080358Y0088968D01*
X0080358Y0089400D02*
X0084256Y0089400D01*
X0084256Y0089832D02*
X0080358Y0089832D01*
X0080358Y0090264D02*
X0084256Y0090264D01*
X0084256Y0090696D02*
X0080358Y0090696D01*
X0080358Y0091128D02*
X0084256Y0091128D01*
X0084256Y0091560D02*
X0080358Y0091560D01*
X0080358Y0091992D02*
X0084256Y0091992D01*
X0224665Y0120896D02*
X0228563Y0120896D01*
X0228563Y0116604D01*
X0224665Y0116604D01*
X0224665Y0120896D01*
X0224665Y0117036D02*
X0228563Y0117036D01*
X0228563Y0117468D02*
X0224665Y0117468D01*
X0224665Y0117900D02*
X0228563Y0117900D01*
X0228563Y0118332D02*
X0224665Y0118332D01*
X0224665Y0118764D02*
X0228563Y0118764D01*
X0228563Y0119196D02*
X0224665Y0119196D01*
X0224665Y0119628D02*
X0228563Y0119628D01*
X0228563Y0120060D02*
X0224665Y0120060D01*
X0224665Y0120492D02*
X0228563Y0120492D01*
X0231358Y0120896D02*
X0235256Y0120896D01*
X0235256Y0116604D01*
X0231358Y0116604D01*
X0231358Y0120896D01*
X0231358Y0117036D02*
X0235256Y0117036D01*
X0235256Y0117468D02*
X0231358Y0117468D01*
X0231358Y0117900D02*
X0235256Y0117900D01*
X0235256Y0118332D02*
X0231358Y0118332D01*
X0231358Y0118764D02*
X0235256Y0118764D01*
X0235256Y0119196D02*
X0231358Y0119196D01*
X0231358Y0119628D02*
X0235256Y0119628D01*
X0235256Y0120060D02*
X0231358Y0120060D01*
X0231358Y0120492D02*
X0235256Y0120492D01*
X0250607Y0114045D02*
X0250607Y0110147D01*
X0246315Y0110147D01*
X0246315Y0114045D01*
X0250607Y0114045D01*
X0250607Y0110579D02*
X0246315Y0110579D01*
X0246315Y0111011D02*
X0250607Y0111011D01*
X0250607Y0111443D02*
X0246315Y0111443D01*
X0246315Y0111875D02*
X0250607Y0111875D01*
X0250607Y0112307D02*
X0246315Y0112307D01*
X0246315Y0112739D02*
X0250607Y0112739D01*
X0250607Y0113171D02*
X0246315Y0113171D01*
X0246315Y0113603D02*
X0250607Y0113603D01*
X0250607Y0114035D02*
X0246315Y0114035D01*
X0250607Y0107353D02*
X0250607Y0103455D01*
X0246315Y0103455D01*
X0246315Y0107353D01*
X0250607Y0107353D01*
X0250607Y0103887D02*
X0246315Y0103887D01*
X0246315Y0104319D02*
X0250607Y0104319D01*
X0250607Y0104751D02*
X0246315Y0104751D01*
X0246315Y0105183D02*
X0250607Y0105183D01*
X0250607Y0105615D02*
X0246315Y0105615D01*
X0246315Y0106047D02*
X0250607Y0106047D01*
X0250607Y0106479D02*
X0246315Y0106479D01*
X0246315Y0106911D02*
X0250607Y0106911D01*
X0250607Y0107343D02*
X0246315Y0107343D01*
D31*
X0204711Y0182850D02*
X0200211Y0182850D01*
X0204711Y0182850D02*
X0204711Y0176650D01*
X0200211Y0176650D01*
X0200211Y0182850D01*
X0200211Y0177149D02*
X0204711Y0177149D01*
X0204711Y0177648D02*
X0200211Y0177648D01*
X0200211Y0178147D02*
X0204711Y0178147D01*
X0204711Y0178646D02*
X0200211Y0178646D01*
X0200211Y0179145D02*
X0204711Y0179145D01*
X0204711Y0179644D02*
X0200211Y0179644D01*
X0200211Y0180143D02*
X0204711Y0180143D01*
X0204711Y0180642D02*
X0200211Y0180642D01*
X0200211Y0181141D02*
X0204711Y0181141D01*
X0204711Y0181640D02*
X0200211Y0181640D01*
X0200211Y0182139D02*
X0204711Y0182139D01*
X0204711Y0182638D02*
X0200211Y0182638D01*
X0198711Y0182850D02*
X0194211Y0182850D01*
X0198711Y0182850D02*
X0198711Y0176650D01*
X0194211Y0176650D01*
X0194211Y0182850D01*
X0194211Y0177149D02*
X0198711Y0177149D01*
X0198711Y0177648D02*
X0194211Y0177648D01*
X0194211Y0178147D02*
X0198711Y0178147D01*
X0198711Y0178646D02*
X0194211Y0178646D01*
X0194211Y0179145D02*
X0198711Y0179145D01*
X0198711Y0179644D02*
X0194211Y0179644D01*
X0194211Y0180143D02*
X0198711Y0180143D01*
X0198711Y0180642D02*
X0194211Y0180642D01*
X0194211Y0181141D02*
X0198711Y0181141D01*
X0198711Y0181640D02*
X0194211Y0181640D01*
X0194211Y0182139D02*
X0198711Y0182139D01*
X0198711Y0182638D02*
X0194211Y0182638D01*
X0194211Y0184550D02*
X0198711Y0184550D01*
X0194211Y0184550D02*
X0194211Y0190750D01*
X0198711Y0190750D01*
X0198711Y0184550D01*
X0198711Y0185049D02*
X0194211Y0185049D01*
X0194211Y0185548D02*
X0198711Y0185548D01*
X0198711Y0186047D02*
X0194211Y0186047D01*
X0194211Y0186546D02*
X0198711Y0186546D01*
X0198711Y0187045D02*
X0194211Y0187045D01*
X0194211Y0187544D02*
X0198711Y0187544D01*
X0198711Y0188043D02*
X0194211Y0188043D01*
X0194211Y0188542D02*
X0198711Y0188542D01*
X0198711Y0189041D02*
X0194211Y0189041D01*
X0194211Y0189540D02*
X0198711Y0189540D01*
X0198711Y0190039D02*
X0194211Y0190039D01*
X0194211Y0190538D02*
X0198711Y0190538D01*
X0200211Y0184550D02*
X0204711Y0184550D01*
X0200211Y0184550D02*
X0200211Y0190750D01*
X0204711Y0190750D01*
X0204711Y0184550D01*
X0204711Y0185049D02*
X0200211Y0185049D01*
X0200211Y0185548D02*
X0204711Y0185548D01*
X0204711Y0186047D02*
X0200211Y0186047D01*
X0200211Y0186546D02*
X0204711Y0186546D01*
X0204711Y0187045D02*
X0200211Y0187045D01*
X0200211Y0187544D02*
X0204711Y0187544D01*
X0204711Y0188043D02*
X0200211Y0188043D01*
X0200211Y0188542D02*
X0204711Y0188542D01*
X0204711Y0189041D02*
X0200211Y0189041D01*
X0200211Y0189540D02*
X0204711Y0189540D01*
X0204711Y0190039D02*
X0200211Y0190039D01*
X0200211Y0190538D02*
X0204711Y0190538D01*
D32*
X0199461Y0187650D03*
X0199461Y0179750D03*
M02*
