G75*
G70*
%OFA0B0*%
%FSLAX25Y25*%
%IPPOS*%
%LPD*%
%AMOC8*
5,1,8,0,0,1.08239X$1,22.5*
%
%ADD10C,0.01200*%
%ADD11C,0.01000*%
%ADD12C,0.00700*%
%ADD13C,0.00500*%
%ADD14C,0.00900*%
%ADD15C,0.00800*%
%ADD16C,0.00600*%
%ADD17R,0.00400X0.00100*%
%ADD18R,0.00700X0.00100*%
%ADD19R,0.01000X0.00100*%
%ADD20R,0.01200X0.00100*%
%ADD21R,0.01500X0.00100*%
%ADD22R,0.01800X0.00100*%
%ADD23R,0.02000X0.00100*%
%ADD24R,0.01400X0.00100*%
%ADD25R,0.02300X0.00100*%
%ADD26R,0.01100X0.00100*%
%ADD27R,0.02800X0.00100*%
%ADD28R,0.03200X0.00100*%
%ADD29R,0.00300X0.00100*%
%ADD30R,0.02400X0.00100*%
%ADD31R,0.00500X0.00100*%
%ADD32R,0.01700X0.00100*%
%ADD33R,0.03800X0.00100*%
%ADD34R,0.02500X0.00100*%
%ADD35R,0.02600X0.00100*%
%ADD36R,0.02100X0.00100*%
%ADD37R,0.04600X0.00100*%
%ADD38R,0.05000X0.00100*%
%ADD39R,0.05400X0.00100*%
%ADD40R,0.05800X0.00100*%
%ADD41R,0.02200X0.00100*%
%ADD42R,0.06200X0.00100*%
%ADD43R,0.02700X0.00100*%
%ADD44R,0.06500X0.00100*%
%ADD45R,0.06800X0.00100*%
%ADD46R,0.07200X0.00100*%
%ADD47R,0.02900X0.00100*%
%ADD48R,0.07400X0.00100*%
%ADD49R,0.03000X0.00100*%
%ADD50R,0.07600X0.00100*%
%ADD51R,0.07800X0.00100*%
%ADD52R,0.03100X0.00100*%
%ADD53R,0.08000X0.00100*%
%ADD54R,0.08200X0.00100*%
%ADD55R,0.03300X0.00100*%
%ADD56R,0.08400X0.00100*%
%ADD57R,0.08700X0.00100*%
%ADD58R,0.03400X0.00100*%
%ADD59R,0.08900X0.00100*%
%ADD60R,0.03500X0.00100*%
%ADD61R,0.09000X0.00100*%
%ADD62R,0.03600X0.00100*%
%ADD63R,0.09200X0.00100*%
%ADD64R,0.04100X0.00100*%
%ADD65R,0.03700X0.00100*%
%ADD66R,0.03900X0.00100*%
%ADD67R,0.04000X0.00100*%
%ADD68R,0.04200X0.00100*%
%ADD69R,0.04300X0.00100*%
%ADD70R,0.04400X0.00100*%
%ADD71R,0.00900X0.00100*%
%ADD72R,0.01900X0.00100*%
%ADD73R,0.04500X0.00100*%
%ADD74R,0.01300X0.00100*%
%ADD75R,0.01600X0.00100*%
%ADD76R,0.04700X0.00100*%
%ADD77R,0.04800X0.00100*%
%ADD78R,0.04900X0.00100*%
%ADD79R,0.05100X0.00100*%
%ADD80R,0.05300X0.00100*%
%ADD81R,0.05500X0.00100*%
%ADD82R,0.06000X0.00100*%
%ADD83R,0.06300X0.00100*%
%ADD84R,0.06600X0.00100*%
%ADD85R,0.11000X0.00100*%
%ADD86R,0.10900X0.00100*%
%ADD87R,0.10800X0.00100*%
%ADD88R,0.10700X0.00100*%
%ADD89R,0.06100X0.00100*%
%ADD90R,0.05700X0.00100*%
%ADD91R,0.05200X0.00100*%
%ADD92R,0.09400X0.00100*%
%ADD93R,0.09300X0.00100*%
%ADD94R,0.08800X0.00100*%
%ADD95R,0.08600X0.00100*%
%ADD96R,0.07100X0.00100*%
%ADD97R,0.09100X0.00100*%
%ADD98R,0.00800X0.00100*%
%ADD99R,0.00100X0.00100*%
%ADD100R,0.21500X0.00100*%
%ADD101R,0.22900X0.00100*%
%ADD102R,0.00600X0.00100*%
%ADD103R,0.00200X0.00100*%
%ADD104R,0.06700X0.00100*%
%ADD105R,0.05600X0.00100*%
%ADD106R,0.07000X0.00100*%
%ADD107R,0.06400X0.00100*%
%ADD108R,0.23300X0.00100*%
%ADD109R,0.22300X0.00100*%
%ADD110R,0.05900X0.00100*%
D10*
X0262961Y0184750D02*
X0266461Y0188250D01*
X0269961Y0184750D01*
X0262961Y0184750D01*
X0264461Y0185250D02*
X0266461Y0187250D01*
X0268461Y0185250D01*
X0265461Y0185250D01*
X0266961Y0186250D01*
X0273461Y0188250D02*
X0276961Y0184750D01*
X0280461Y0188250D01*
X0273461Y0188250D01*
X0274961Y0187750D02*
X0278961Y0187750D01*
X0276961Y0185750D01*
X0275461Y0187250D01*
X0277461Y0187250D01*
X0276961Y0186750D02*
X0276961Y0186250D01*
D11*
X0085961Y0122750D02*
X0085963Y0122813D01*
X0085969Y0122875D01*
X0085979Y0122937D01*
X0085992Y0122999D01*
X0086010Y0123059D01*
X0086031Y0123118D01*
X0086056Y0123176D01*
X0086085Y0123232D01*
X0086117Y0123286D01*
X0086152Y0123338D01*
X0086190Y0123387D01*
X0086232Y0123435D01*
X0086276Y0123479D01*
X0086324Y0123521D01*
X0086373Y0123559D01*
X0086425Y0123594D01*
X0086479Y0123626D01*
X0086535Y0123655D01*
X0086593Y0123680D01*
X0086652Y0123701D01*
X0086712Y0123719D01*
X0086774Y0123732D01*
X0086836Y0123742D01*
X0086898Y0123748D01*
X0086961Y0123750D01*
X0087024Y0123748D01*
X0087086Y0123742D01*
X0087148Y0123732D01*
X0087210Y0123719D01*
X0087270Y0123701D01*
X0087329Y0123680D01*
X0087387Y0123655D01*
X0087443Y0123626D01*
X0087497Y0123594D01*
X0087549Y0123559D01*
X0087598Y0123521D01*
X0087646Y0123479D01*
X0087690Y0123435D01*
X0087732Y0123387D01*
X0087770Y0123338D01*
X0087805Y0123286D01*
X0087837Y0123232D01*
X0087866Y0123176D01*
X0087891Y0123118D01*
X0087912Y0123059D01*
X0087930Y0122999D01*
X0087943Y0122937D01*
X0087953Y0122875D01*
X0087959Y0122813D01*
X0087961Y0122750D01*
X0087959Y0122687D01*
X0087953Y0122625D01*
X0087943Y0122563D01*
X0087930Y0122501D01*
X0087912Y0122441D01*
X0087891Y0122382D01*
X0087866Y0122324D01*
X0087837Y0122268D01*
X0087805Y0122214D01*
X0087770Y0122162D01*
X0087732Y0122113D01*
X0087690Y0122065D01*
X0087646Y0122021D01*
X0087598Y0121979D01*
X0087549Y0121941D01*
X0087497Y0121906D01*
X0087443Y0121874D01*
X0087387Y0121845D01*
X0087329Y0121820D01*
X0087270Y0121799D01*
X0087210Y0121781D01*
X0087148Y0121768D01*
X0087086Y0121758D01*
X0087024Y0121752D01*
X0086961Y0121750D01*
X0086898Y0121752D01*
X0086836Y0121758D01*
X0086774Y0121768D01*
X0086712Y0121781D01*
X0086652Y0121799D01*
X0086593Y0121820D01*
X0086535Y0121845D01*
X0086479Y0121874D01*
X0086425Y0121906D01*
X0086373Y0121941D01*
X0086324Y0121979D01*
X0086276Y0122021D01*
X0086232Y0122065D01*
X0086190Y0122113D01*
X0086152Y0122162D01*
X0086117Y0122214D01*
X0086085Y0122268D01*
X0086056Y0122324D01*
X0086031Y0122382D01*
X0086010Y0122441D01*
X0085992Y0122501D01*
X0085979Y0122563D01*
X0085969Y0122625D01*
X0085963Y0122687D01*
X0085961Y0122750D01*
X0103461Y0100750D02*
X0103463Y0100813D01*
X0103469Y0100875D01*
X0103479Y0100937D01*
X0103492Y0100999D01*
X0103510Y0101059D01*
X0103531Y0101118D01*
X0103556Y0101176D01*
X0103585Y0101232D01*
X0103617Y0101286D01*
X0103652Y0101338D01*
X0103690Y0101387D01*
X0103732Y0101435D01*
X0103776Y0101479D01*
X0103824Y0101521D01*
X0103873Y0101559D01*
X0103925Y0101594D01*
X0103979Y0101626D01*
X0104035Y0101655D01*
X0104093Y0101680D01*
X0104152Y0101701D01*
X0104212Y0101719D01*
X0104274Y0101732D01*
X0104336Y0101742D01*
X0104398Y0101748D01*
X0104461Y0101750D01*
X0104524Y0101748D01*
X0104586Y0101742D01*
X0104648Y0101732D01*
X0104710Y0101719D01*
X0104770Y0101701D01*
X0104829Y0101680D01*
X0104887Y0101655D01*
X0104943Y0101626D01*
X0104997Y0101594D01*
X0105049Y0101559D01*
X0105098Y0101521D01*
X0105146Y0101479D01*
X0105190Y0101435D01*
X0105232Y0101387D01*
X0105270Y0101338D01*
X0105305Y0101286D01*
X0105337Y0101232D01*
X0105366Y0101176D01*
X0105391Y0101118D01*
X0105412Y0101059D01*
X0105430Y0100999D01*
X0105443Y0100937D01*
X0105453Y0100875D01*
X0105459Y0100813D01*
X0105461Y0100750D01*
X0105459Y0100687D01*
X0105453Y0100625D01*
X0105443Y0100563D01*
X0105430Y0100501D01*
X0105412Y0100441D01*
X0105391Y0100382D01*
X0105366Y0100324D01*
X0105337Y0100268D01*
X0105305Y0100214D01*
X0105270Y0100162D01*
X0105232Y0100113D01*
X0105190Y0100065D01*
X0105146Y0100021D01*
X0105098Y0099979D01*
X0105049Y0099941D01*
X0104997Y0099906D01*
X0104943Y0099874D01*
X0104887Y0099845D01*
X0104829Y0099820D01*
X0104770Y0099799D01*
X0104710Y0099781D01*
X0104648Y0099768D01*
X0104586Y0099758D01*
X0104524Y0099752D01*
X0104461Y0099750D01*
X0104398Y0099752D01*
X0104336Y0099758D01*
X0104274Y0099768D01*
X0104212Y0099781D01*
X0104152Y0099799D01*
X0104093Y0099820D01*
X0104035Y0099845D01*
X0103979Y0099874D01*
X0103925Y0099906D01*
X0103873Y0099941D01*
X0103824Y0099979D01*
X0103776Y0100021D01*
X0103732Y0100065D01*
X0103690Y0100113D01*
X0103652Y0100162D01*
X0103617Y0100214D01*
X0103585Y0100268D01*
X0103556Y0100324D01*
X0103531Y0100382D01*
X0103510Y0100441D01*
X0103492Y0100501D01*
X0103479Y0100563D01*
X0103469Y0100625D01*
X0103463Y0100687D01*
X0103461Y0100750D01*
X0225961Y0031487D02*
X0227829Y0033355D01*
X0229697Y0031487D01*
X0229697Y0027750D01*
X0232038Y0027750D02*
X0232038Y0033355D01*
X0235774Y0027750D01*
X0235774Y0033355D01*
X0238115Y0031487D02*
X0239983Y0033355D01*
X0241852Y0031487D01*
X0241852Y0027750D01*
X0244192Y0027750D02*
X0247929Y0027750D01*
X0250269Y0028684D02*
X0251204Y0027750D01*
X0253072Y0027750D01*
X0254006Y0028684D01*
X0254006Y0032421D01*
X0253072Y0033355D01*
X0251204Y0033355D01*
X0250269Y0032421D01*
X0250269Y0028684D01*
X0256347Y0028684D02*
X0257281Y0027750D01*
X0259149Y0027750D01*
X0260083Y0028684D01*
X0260083Y0030552D01*
X0258215Y0030552D01*
X0256347Y0028684D02*
X0256347Y0032421D01*
X0257281Y0033355D01*
X0259149Y0033355D01*
X0260083Y0032421D01*
X0268501Y0033355D02*
X0270369Y0033355D01*
X0269435Y0033355D02*
X0269435Y0027750D01*
X0268501Y0027750D02*
X0270369Y0027750D01*
X0272552Y0027750D02*
X0272552Y0033355D01*
X0276289Y0027750D01*
X0276289Y0033355D01*
X0244192Y0033355D02*
X0244192Y0027750D01*
X0241852Y0030552D02*
X0238115Y0030552D01*
X0238115Y0031487D02*
X0238115Y0027750D01*
X0229697Y0030552D02*
X0225961Y0030552D01*
X0225961Y0031487D02*
X0225961Y0027750D01*
X0280961Y0067750D02*
X0280963Y0067813D01*
X0280969Y0067875D01*
X0280979Y0067937D01*
X0280992Y0067999D01*
X0281010Y0068059D01*
X0281031Y0068118D01*
X0281056Y0068176D01*
X0281085Y0068232D01*
X0281117Y0068286D01*
X0281152Y0068338D01*
X0281190Y0068387D01*
X0281232Y0068435D01*
X0281276Y0068479D01*
X0281324Y0068521D01*
X0281373Y0068559D01*
X0281425Y0068594D01*
X0281479Y0068626D01*
X0281535Y0068655D01*
X0281593Y0068680D01*
X0281652Y0068701D01*
X0281712Y0068719D01*
X0281774Y0068732D01*
X0281836Y0068742D01*
X0281898Y0068748D01*
X0281961Y0068750D01*
X0282024Y0068748D01*
X0282086Y0068742D01*
X0282148Y0068732D01*
X0282210Y0068719D01*
X0282270Y0068701D01*
X0282329Y0068680D01*
X0282387Y0068655D01*
X0282443Y0068626D01*
X0282497Y0068594D01*
X0282549Y0068559D01*
X0282598Y0068521D01*
X0282646Y0068479D01*
X0282690Y0068435D01*
X0282732Y0068387D01*
X0282770Y0068338D01*
X0282805Y0068286D01*
X0282837Y0068232D01*
X0282866Y0068176D01*
X0282891Y0068118D01*
X0282912Y0068059D01*
X0282930Y0067999D01*
X0282943Y0067937D01*
X0282953Y0067875D01*
X0282959Y0067813D01*
X0282961Y0067750D01*
X0282959Y0067687D01*
X0282953Y0067625D01*
X0282943Y0067563D01*
X0282930Y0067501D01*
X0282912Y0067441D01*
X0282891Y0067382D01*
X0282866Y0067324D01*
X0282837Y0067268D01*
X0282805Y0067214D01*
X0282770Y0067162D01*
X0282732Y0067113D01*
X0282690Y0067065D01*
X0282646Y0067021D01*
X0282598Y0066979D01*
X0282549Y0066941D01*
X0282497Y0066906D01*
X0282443Y0066874D01*
X0282387Y0066845D01*
X0282329Y0066820D01*
X0282270Y0066799D01*
X0282210Y0066781D01*
X0282148Y0066768D01*
X0282086Y0066758D01*
X0282024Y0066752D01*
X0281961Y0066750D01*
X0281898Y0066752D01*
X0281836Y0066758D01*
X0281774Y0066768D01*
X0281712Y0066781D01*
X0281652Y0066799D01*
X0281593Y0066820D01*
X0281535Y0066845D01*
X0281479Y0066874D01*
X0281425Y0066906D01*
X0281373Y0066941D01*
X0281324Y0066979D01*
X0281276Y0067021D01*
X0281232Y0067065D01*
X0281190Y0067113D01*
X0281152Y0067162D01*
X0281117Y0067214D01*
X0281085Y0067268D01*
X0281056Y0067324D01*
X0281031Y0067382D01*
X0281010Y0067441D01*
X0280992Y0067501D01*
X0280979Y0067563D01*
X0280969Y0067625D01*
X0280963Y0067687D01*
X0280961Y0067750D01*
D12*
X0144206Y0022735D02*
X0144206Y0021100D01*
X0144206Y0021917D02*
X0149111Y0021917D01*
X0149111Y0021100D02*
X0149111Y0022735D01*
X0148293Y0024538D02*
X0149111Y0025355D01*
X0149111Y0026990D01*
X0148293Y0027807D01*
X0145024Y0027807D01*
X0144206Y0026990D01*
X0144206Y0025355D01*
X0145024Y0024538D01*
X0148293Y0024538D01*
X0154206Y0023552D02*
X0155024Y0024369D01*
X0156659Y0024369D01*
X0157476Y0023552D01*
X0157476Y0021100D01*
X0159111Y0021100D02*
X0154206Y0021100D01*
X0154206Y0023552D01*
X0154206Y0026256D02*
X0159111Y0026256D01*
X0159111Y0029526D01*
X0158293Y0031413D02*
X0159111Y0032230D01*
X0159111Y0033865D01*
X0158293Y0034682D01*
X0157476Y0034682D01*
X0156659Y0033865D01*
X0156659Y0032230D01*
X0155841Y0031413D01*
X0155024Y0031413D01*
X0154206Y0032230D01*
X0154206Y0033865D01*
X0155024Y0034682D01*
X0154206Y0036569D02*
X0159111Y0036569D01*
X0159111Y0039839D01*
X0156659Y0038204D02*
X0156659Y0036569D01*
X0154206Y0036569D02*
X0154206Y0039839D01*
X0154206Y0041726D02*
X0154206Y0044995D01*
X0154206Y0043360D02*
X0159111Y0043360D01*
X0149111Y0040007D02*
X0144206Y0040007D01*
X0144206Y0043276D01*
X0146659Y0041642D02*
X0146659Y0040007D01*
X0149111Y0038120D02*
X0149111Y0034850D01*
X0144206Y0034850D01*
X0144206Y0038120D01*
X0146659Y0036485D02*
X0146659Y0034850D01*
X0146659Y0032963D02*
X0147476Y0032146D01*
X0147476Y0029694D01*
X0149111Y0029694D02*
X0144206Y0029694D01*
X0144206Y0032146D01*
X0145024Y0032963D01*
X0146659Y0032963D01*
X0147476Y0031329D02*
X0149111Y0032963D01*
X0154206Y0029526D02*
X0154206Y0026256D01*
X0156659Y0026256D02*
X0156659Y0027891D01*
X0159111Y0024369D02*
X0157476Y0022735D01*
X0163206Y0023052D02*
X0164024Y0023869D01*
X0164841Y0023869D01*
X0165659Y0023052D01*
X0166476Y0023869D01*
X0167293Y0023869D01*
X0168111Y0023052D01*
X0168111Y0021417D01*
X0167293Y0020600D01*
X0165659Y0022235D02*
X0165659Y0023052D01*
X0163206Y0023052D02*
X0163206Y0021417D01*
X0164024Y0020600D01*
X0174206Y0020600D02*
X0174206Y0023869D01*
X0175841Y0023052D02*
X0176659Y0023869D01*
X0178293Y0023869D01*
X0179111Y0023052D01*
X0179111Y0021417D01*
X0178293Y0020600D01*
X0176659Y0020600D02*
X0175841Y0022235D01*
X0175841Y0023052D01*
X0176659Y0020600D02*
X0174206Y0020600D01*
X0174206Y0025756D02*
X0177476Y0025756D01*
X0179111Y0027391D01*
X0177476Y0029026D01*
X0174206Y0029026D01*
X0168111Y0029152D02*
X0167293Y0028335D01*
X0168111Y0029152D02*
X0168111Y0030787D01*
X0167293Y0031604D01*
X0166476Y0031604D01*
X0165659Y0030787D01*
X0165659Y0029969D01*
X0165659Y0030787D02*
X0164841Y0031604D01*
X0164024Y0031604D01*
X0163206Y0030787D01*
X0163206Y0029152D01*
X0164024Y0028335D01*
X0167293Y0026574D02*
X0168111Y0026574D01*
X0168111Y0025756D01*
X0167293Y0025756D01*
X0167293Y0026574D01*
X0166476Y0033491D02*
X0163206Y0033491D01*
X0163206Y0036760D02*
X0166476Y0036760D01*
X0168111Y0035126D01*
X0166476Y0033491D01*
X0184258Y0033398D02*
X0184258Y0030946D01*
X0189163Y0030946D01*
X0189163Y0033398D01*
X0188345Y0034215D01*
X0185076Y0034215D01*
X0184258Y0033398D01*
X0184258Y0029059D02*
X0189163Y0029059D01*
X0184258Y0025789D01*
X0189163Y0025789D01*
X0188345Y0023903D02*
X0186711Y0023903D01*
X0186711Y0022268D01*
X0188345Y0023903D02*
X0189163Y0023085D01*
X0189163Y0021450D01*
X0188345Y0020633D01*
X0185076Y0020633D01*
X0184258Y0021450D01*
X0184258Y0023085D01*
X0185076Y0023903D01*
X0194258Y0023085D02*
X0194258Y0021450D01*
X0195076Y0020633D01*
X0198345Y0020633D01*
X0199163Y0021450D01*
X0199163Y0023085D01*
X0198345Y0023903D01*
X0196711Y0023903D01*
X0196711Y0022268D01*
X0195076Y0023903D02*
X0194258Y0023085D01*
X0194258Y0025789D02*
X0199163Y0029059D01*
X0194258Y0029059D01*
X0194258Y0030946D02*
X0194258Y0033398D01*
X0195076Y0034215D01*
X0198345Y0034215D01*
X0199163Y0033398D01*
X0199163Y0030946D01*
X0194258Y0030946D01*
X0194258Y0025789D02*
X0199163Y0025789D01*
X0204206Y0025756D02*
X0204206Y0027391D01*
X0204206Y0026574D02*
X0209111Y0026574D01*
X0209111Y0027391D02*
X0209111Y0025756D01*
X0207476Y0023869D02*
X0204206Y0023869D01*
X0204206Y0020600D02*
X0207476Y0020600D01*
X0209111Y0022235D01*
X0207476Y0023869D01*
X0209111Y0029194D02*
X0204206Y0029194D01*
X0209111Y0032463D01*
X0204206Y0032463D01*
X0122328Y0176526D02*
X0119059Y0176526D01*
X0117424Y0178161D01*
X0119059Y0179796D01*
X0122328Y0179796D01*
X0122328Y0181683D02*
X0117424Y0181683D01*
X0117424Y0184135D01*
X0118241Y0184952D01*
X0119876Y0184952D01*
X0120693Y0184135D01*
X0120693Y0181683D01*
X0120693Y0183317D02*
X0122328Y0184952D01*
X0122328Y0186839D02*
X0122328Y0190109D01*
X0122328Y0191996D02*
X0117424Y0191996D01*
X0117424Y0195265D01*
X0119876Y0193630D02*
X0119876Y0191996D01*
X0117424Y0190109D02*
X0117424Y0186839D01*
X0122328Y0186839D01*
X0119876Y0186839D02*
X0119876Y0188474D01*
X0127881Y0190009D02*
X0132785Y0190009D01*
X0127881Y0186739D01*
X0132785Y0186739D01*
X0131968Y0184852D02*
X0130333Y0184852D01*
X0130333Y0183217D01*
X0128699Y0181583D02*
X0131968Y0181583D01*
X0132785Y0182400D01*
X0132785Y0184035D01*
X0131968Y0184852D01*
X0128699Y0184852D02*
X0127881Y0184035D01*
X0127881Y0182400D01*
X0128699Y0181583D01*
X0119876Y0179796D02*
X0119876Y0176526D01*
X0137806Y0187922D02*
X0139441Y0186287D01*
X0137806Y0187922D02*
X0142711Y0187922D01*
X0142711Y0186287D02*
X0142711Y0189557D01*
X0141893Y0191444D02*
X0142711Y0192261D01*
X0142711Y0193896D01*
X0141893Y0194713D01*
X0141076Y0194713D01*
X0140259Y0193896D01*
X0140259Y0193078D01*
X0140259Y0193896D02*
X0139441Y0194713D01*
X0138624Y0194713D01*
X0137806Y0193896D01*
X0137806Y0192261D01*
X0138624Y0191444D01*
X0132785Y0191896D02*
X0132785Y0194348D01*
X0131968Y0195165D01*
X0128699Y0195165D01*
X0127881Y0194348D01*
X0127881Y0191896D01*
X0132785Y0191896D01*
X0147806Y0192261D02*
X0148624Y0191444D01*
X0147806Y0192261D02*
X0147806Y0193896D01*
X0148624Y0194713D01*
X0149441Y0194713D01*
X0152711Y0191444D01*
X0152711Y0194713D01*
X0157806Y0193078D02*
X0162711Y0193078D01*
X0162711Y0191444D02*
X0162711Y0194713D01*
X0159441Y0191444D02*
X0157806Y0193078D01*
X0157806Y0187922D02*
X0162711Y0187922D01*
X0162711Y0186287D02*
X0162711Y0189557D01*
X0159441Y0186287D02*
X0157806Y0187922D01*
X0152711Y0187922D02*
X0147806Y0187922D01*
X0149441Y0186287D01*
X0152711Y0186287D02*
X0152711Y0189557D01*
X0167806Y0187922D02*
X0169441Y0186287D01*
X0167806Y0187922D02*
X0172711Y0187922D01*
X0172711Y0186287D02*
X0172711Y0189557D01*
X0171893Y0191444D02*
X0168624Y0194713D01*
X0171893Y0194713D01*
X0172711Y0193896D01*
X0172711Y0192261D01*
X0171893Y0191444D01*
X0168624Y0191444D01*
X0167806Y0192261D01*
X0167806Y0193896D01*
X0168624Y0194713D01*
X0177806Y0193896D02*
X0177806Y0192261D01*
X0178624Y0191444D01*
X0179441Y0191444D01*
X0180259Y0192261D01*
X0180259Y0194713D01*
X0181893Y0194713D02*
X0178624Y0194713D01*
X0177806Y0193896D01*
X0181893Y0194713D02*
X0182711Y0193896D01*
X0182711Y0192261D01*
X0181893Y0191444D01*
X0187806Y0192261D02*
X0187806Y0193896D01*
X0188624Y0194713D01*
X0189441Y0194713D01*
X0190259Y0193896D01*
X0190259Y0192261D01*
X0189441Y0191444D01*
X0188624Y0191444D01*
X0187806Y0192261D01*
X0190259Y0192261D02*
X0191076Y0191444D01*
X0191893Y0191444D01*
X0192711Y0192261D01*
X0192711Y0193896D01*
X0191893Y0194713D01*
X0191076Y0194713D01*
X0190259Y0193896D01*
X0203806Y0194713D02*
X0203806Y0191444D01*
X0203806Y0194713D02*
X0204624Y0194713D01*
X0207893Y0191444D01*
X0208711Y0191444D01*
X0213806Y0194713D02*
X0214624Y0193078D01*
X0216259Y0191444D01*
X0216259Y0193896D01*
X0217076Y0194713D01*
X0217893Y0194713D01*
X0218711Y0193896D01*
X0218711Y0192261D01*
X0217893Y0191444D01*
X0216259Y0191444D01*
X0223806Y0191444D02*
X0223806Y0194713D01*
X0225441Y0193896D02*
X0226259Y0194713D01*
X0227893Y0194713D01*
X0228711Y0193896D01*
X0228711Y0192261D01*
X0227893Y0191444D01*
X0226259Y0191444D02*
X0225441Y0193078D01*
X0225441Y0193896D01*
X0226259Y0191444D02*
X0223806Y0191444D01*
X0233806Y0193896D02*
X0236259Y0191444D01*
X0236259Y0194713D01*
X0238711Y0193896D02*
X0233806Y0193896D01*
X0243806Y0193896D02*
X0244624Y0194713D01*
X0245441Y0194713D01*
X0246259Y0193896D01*
X0247076Y0194713D01*
X0247893Y0194713D01*
X0248711Y0193896D01*
X0248711Y0192261D01*
X0247893Y0191444D01*
X0246259Y0193078D02*
X0246259Y0193896D01*
X0243806Y0193896D02*
X0243806Y0192261D01*
X0244624Y0191444D01*
X0253806Y0192261D02*
X0254624Y0191444D01*
X0253806Y0192261D02*
X0253806Y0193896D01*
X0254624Y0194713D01*
X0255441Y0194713D01*
X0258711Y0191444D01*
X0258711Y0194713D01*
X0263806Y0193078D02*
X0268711Y0193078D01*
X0268711Y0191444D02*
X0268711Y0194713D01*
X0265441Y0191444D02*
X0263806Y0193078D01*
X0273806Y0192261D02*
X0273806Y0193896D01*
X0274624Y0194713D01*
X0277893Y0191444D01*
X0278711Y0192261D01*
X0278711Y0193896D01*
X0277893Y0194713D01*
X0274624Y0194713D01*
X0273806Y0192261D02*
X0274624Y0191444D01*
X0277893Y0191444D01*
D13*
X0242749Y0177303D02*
X0241582Y0177303D01*
X0242749Y0177303D02*
X0242749Y0173800D01*
X0241582Y0173800D01*
X0240234Y0173800D02*
X0240234Y0177303D01*
X0239066Y0176135D01*
X0237899Y0177303D01*
X0237899Y0173800D01*
X0236551Y0173800D02*
X0236551Y0177303D01*
X0234215Y0177303D02*
X0234215Y0173800D01*
X0235383Y0174968D01*
X0236551Y0173800D01*
X0232868Y0175551D02*
X0232284Y0174968D01*
X0230532Y0174968D01*
X0230532Y0173800D02*
X0230532Y0177303D01*
X0232284Y0177303D01*
X0232868Y0176719D01*
X0232868Y0175551D01*
X0229185Y0174968D02*
X0226849Y0174968D01*
X0226849Y0176135D02*
X0229185Y0176135D01*
X0225501Y0176135D02*
X0224918Y0176135D01*
X0223166Y0176135D01*
X0223166Y0174968D02*
X0225501Y0174968D01*
X0224918Y0173800D02*
X0224918Y0177303D01*
X0223750Y0177303D02*
X0223750Y0173800D01*
X0221878Y0173800D02*
X0220711Y0173800D01*
X0220711Y0177303D01*
X0221878Y0177303D01*
X0115360Y0192617D02*
X0115360Y0194953D01*
X0114193Y0196120D01*
X0113025Y0194953D01*
X0113025Y0192617D01*
X0111677Y0193201D02*
X0111677Y0195536D01*
X0111093Y0196120D01*
X0109342Y0196120D01*
X0109342Y0192617D01*
X0111093Y0192617D01*
X0111677Y0193201D01*
X0113025Y0194369D02*
X0115360Y0194369D01*
X0107994Y0193785D02*
X0107410Y0194369D01*
X0106242Y0194369D01*
X0105659Y0194953D01*
X0105659Y0195536D01*
X0106242Y0196120D01*
X0107410Y0196120D01*
X0107994Y0195536D01*
X0107994Y0193785D02*
X0107994Y0193201D01*
X0107410Y0192617D01*
X0106242Y0192617D01*
X0105659Y0193201D01*
X0103860Y0192617D02*
X0101525Y0192617D01*
X0101525Y0196120D01*
X0100177Y0195536D02*
X0099593Y0196120D01*
X0098426Y0196120D01*
X0097842Y0195536D01*
X0097842Y0193201D01*
X0098426Y0192617D01*
X0099593Y0192617D01*
X0100177Y0193201D01*
X0096494Y0193201D02*
X0095910Y0192617D01*
X0094742Y0192617D01*
X0094159Y0193201D01*
X0094742Y0194369D02*
X0095910Y0194369D01*
X0096494Y0193785D01*
X0096494Y0193201D01*
X0094742Y0194369D02*
X0094159Y0194953D01*
X0094159Y0195536D01*
X0094742Y0196120D01*
X0095910Y0196120D01*
X0096494Y0195536D01*
X0224684Y0024051D02*
X0225851Y0022883D01*
X0225851Y0020548D01*
X0227199Y0021132D02*
X0229535Y0023467D01*
X0229535Y0021132D01*
X0228951Y0020548D01*
X0227783Y0020548D01*
X0227199Y0021132D01*
X0227199Y0023467D01*
X0227783Y0024051D01*
X0228951Y0024051D01*
X0229535Y0023467D01*
X0225851Y0022300D02*
X0223516Y0022300D01*
X0223516Y0022883D02*
X0224684Y0024051D01*
X0223516Y0022883D02*
X0223516Y0020548D01*
X0233516Y0020548D02*
X0233516Y0022883D01*
X0234684Y0024051D01*
X0235851Y0022883D01*
X0235851Y0020548D01*
X0237199Y0020548D02*
X0239535Y0020548D01*
X0238367Y0020548D02*
X0238367Y0024051D01*
X0237199Y0022883D01*
X0235851Y0022300D02*
X0233516Y0022300D01*
X0243516Y0022300D02*
X0245851Y0022300D01*
X0245851Y0022883D02*
X0245851Y0020548D01*
X0247199Y0020548D02*
X0249535Y0022883D01*
X0249535Y0023467D01*
X0248951Y0024051D01*
X0247783Y0024051D01*
X0247199Y0023467D01*
X0245851Y0022883D02*
X0244684Y0024051D01*
X0243516Y0022883D01*
X0243516Y0020548D01*
X0247199Y0020548D02*
X0249535Y0020548D01*
X0253516Y0020548D02*
X0253516Y0022883D01*
X0254684Y0024051D01*
X0255851Y0022883D01*
X0255851Y0020548D01*
X0257199Y0021132D02*
X0257783Y0020548D01*
X0258951Y0020548D01*
X0259535Y0021132D01*
X0259535Y0021716D01*
X0258951Y0022300D01*
X0258367Y0022300D01*
X0258951Y0022300D02*
X0259535Y0022883D01*
X0259535Y0023467D01*
X0258951Y0024051D01*
X0257783Y0024051D01*
X0257199Y0023467D01*
X0255851Y0022300D02*
X0253516Y0022300D01*
X0263516Y0022300D02*
X0265851Y0022300D01*
X0265851Y0022883D02*
X0265851Y0020548D01*
X0267199Y0022300D02*
X0269535Y0022300D01*
X0268951Y0024051D02*
X0267199Y0022300D01*
X0265851Y0022883D02*
X0264684Y0024051D01*
X0263516Y0022883D01*
X0263516Y0020548D01*
X0268951Y0020548D02*
X0268951Y0024051D01*
X0273516Y0022883D02*
X0273516Y0020548D01*
X0273516Y0022300D02*
X0275851Y0022300D01*
X0275851Y0022883D02*
X0275851Y0020548D01*
X0277199Y0021132D02*
X0277783Y0020548D01*
X0278951Y0020548D01*
X0279535Y0021132D01*
X0279535Y0022300D01*
X0278951Y0022883D01*
X0278367Y0022883D01*
X0277199Y0022300D01*
X0277199Y0024051D01*
X0279535Y0024051D01*
X0275851Y0022883D02*
X0274684Y0024051D01*
X0273516Y0022883D01*
D14*
X0253922Y0179759D02*
X0250519Y0179759D01*
X0250519Y0184863D01*
X0248397Y0183162D02*
X0246696Y0184863D01*
X0244994Y0183162D01*
X0244994Y0179759D01*
X0244994Y0182311D02*
X0248397Y0182311D01*
X0248397Y0183162D02*
X0248397Y0179759D01*
X0241171Y0179759D02*
X0241171Y0184863D01*
X0239470Y0184863D02*
X0242873Y0184863D01*
X0237488Y0184863D02*
X0235787Y0184863D01*
X0236637Y0184863D02*
X0236637Y0179759D01*
X0235787Y0179759D02*
X0237488Y0179759D01*
X0233665Y0180610D02*
X0232814Y0179759D01*
X0231113Y0179759D01*
X0230262Y0180610D01*
X0230262Y0184013D01*
X0231113Y0184863D01*
X0232814Y0184863D01*
X0233665Y0184013D01*
X0233665Y0182311D02*
X0231963Y0182311D01*
X0233665Y0182311D02*
X0233665Y0180610D01*
X0228280Y0179759D02*
X0226579Y0179759D01*
X0227429Y0179759D02*
X0227429Y0184863D01*
X0226579Y0184863D02*
X0228280Y0184863D01*
X0224457Y0184013D02*
X0223606Y0184863D01*
X0221054Y0184863D01*
X0221054Y0179759D01*
X0223606Y0179759D01*
X0224457Y0180610D01*
X0224457Y0184013D01*
D15*
X0267548Y0161053D02*
X0267548Y0157851D01*
X0268348Y0157050D01*
X0269950Y0157050D01*
X0270751Y0157851D01*
X0270751Y0161053D01*
X0269950Y0161854D01*
X0268348Y0161854D01*
X0267548Y0161053D01*
X0272704Y0161854D02*
X0275907Y0157050D01*
X0275907Y0161854D01*
X0272704Y0161854D02*
X0272704Y0157050D01*
X0269389Y0125745D02*
X0269389Y0121541D01*
X0267988Y0121541D02*
X0270791Y0121541D01*
X0267988Y0124344D02*
X0269389Y0125745D01*
X0157207Y0133050D02*
X0154004Y0137854D01*
X0152051Y0137053D02*
X0151250Y0137854D01*
X0148848Y0137854D01*
X0148848Y0133050D01*
X0148848Y0134651D02*
X0151250Y0134651D01*
X0152051Y0135452D01*
X0152051Y0137053D01*
X0150449Y0134651D02*
X0152051Y0133050D01*
X0154004Y0133050D02*
X0157207Y0137854D01*
X0157207Y0141450D02*
X0154004Y0146254D01*
X0152051Y0146254D02*
X0148848Y0146254D01*
X0150449Y0146254D02*
X0150449Y0141450D01*
X0154004Y0141450D02*
X0157207Y0146254D01*
X0154707Y0165450D02*
X0151504Y0165450D01*
X0151504Y0170254D01*
D16*
X0158857Y0182684D02*
X0162661Y0182684D01*
X0162661Y0183952D02*
X0158857Y0183952D01*
X0160125Y0183952D02*
X0160125Y0184585D01*
X0160125Y0183952D02*
X0160125Y0182050D01*
X0161393Y0182050D02*
X0161393Y0184585D01*
X0168857Y0183952D02*
X0172661Y0183952D01*
X0172661Y0182684D02*
X0168857Y0182684D01*
X0170125Y0182050D02*
X0170125Y0183952D01*
X0170125Y0184585D01*
X0171393Y0184585D02*
X0171393Y0182050D01*
X0179625Y0187050D02*
X0179625Y0188952D01*
X0179625Y0189585D01*
X0180893Y0189585D02*
X0180893Y0187050D01*
X0182161Y0187684D02*
X0178357Y0187684D01*
X0178357Y0188952D02*
X0182161Y0188952D01*
X0214857Y0188952D02*
X0218661Y0188952D01*
X0218661Y0187684D02*
X0214857Y0187684D01*
X0216125Y0187050D02*
X0216125Y0188952D01*
X0216125Y0189585D01*
X0217393Y0189585D02*
X0217393Y0187050D01*
X0224357Y0187684D02*
X0228161Y0187684D01*
X0228161Y0188952D02*
X0224357Y0188952D01*
X0225625Y0188952D02*
X0225625Y0189585D01*
X0225625Y0188952D02*
X0225625Y0187050D01*
X0226893Y0187050D02*
X0226893Y0189585D01*
X0244357Y0188952D02*
X0248161Y0188952D01*
X0248161Y0187684D02*
X0244357Y0187684D01*
X0245625Y0187050D02*
X0245625Y0188952D01*
X0245625Y0189585D01*
X0246893Y0189585D02*
X0246893Y0187050D01*
X0264139Y0183091D02*
X0269143Y0179754D01*
X0269143Y0183091D02*
X0264139Y0179754D01*
X0264139Y0177934D02*
X0264139Y0174598D01*
X0264139Y0176266D02*
X0269143Y0176266D01*
X0274156Y0177052D02*
X0274990Y0177886D01*
X0276659Y0177886D01*
X0277493Y0177052D01*
X0277493Y0174550D01*
X0279161Y0174550D02*
X0274156Y0174550D01*
X0274156Y0177052D01*
X0274156Y0179706D02*
X0279161Y0183043D01*
X0279161Y0179706D02*
X0274156Y0183043D01*
X0279161Y0177886D02*
X0277493Y0176218D01*
D17*
X0212111Y0153250D03*
X0202811Y0153250D03*
X0200211Y0153250D03*
X0198311Y0153250D03*
X0195711Y0153250D03*
X0193911Y0153250D03*
X0193311Y0146050D03*
X0193511Y0145950D03*
X0193611Y0145850D03*
X0193811Y0145750D03*
X0193911Y0145650D03*
X0194011Y0145550D03*
X0194111Y0145450D03*
X0183411Y0153250D03*
X0169811Y0152350D03*
X0164111Y0153250D03*
X0165711Y0145950D03*
X0165411Y0145750D03*
X0165311Y0145650D03*
X0165211Y0145550D03*
X0165011Y0145450D03*
X0164911Y0145350D03*
X0164811Y0145250D03*
X0164711Y0145150D03*
X0164611Y0145050D03*
X0164511Y0144950D03*
X0164411Y0144850D03*
X0164311Y0144750D03*
X0164011Y0144350D03*
X0165211Y0134650D03*
X0165311Y0134550D03*
X0165611Y0134350D03*
X0165711Y0134250D03*
X0165911Y0134150D03*
X0166211Y0133950D03*
X0166411Y0133850D03*
X0192311Y0133650D03*
X0192911Y0133950D03*
X0193111Y0134050D03*
X0193311Y0134150D03*
X0193611Y0134350D03*
X0194111Y0134750D03*
X0177211Y0144750D03*
D18*
X0167361Y0146750D03*
X0167061Y0146650D03*
X0169961Y0152450D03*
X0191861Y0146750D03*
X0191461Y0133350D03*
X0167761Y0133350D03*
X0200961Y0115050D03*
X0181961Y0106550D03*
X0230861Y0115050D03*
X0158861Y0164150D03*
X0171561Y0167750D03*
D19*
X0179611Y0156350D03*
X0170111Y0152550D03*
X0212211Y0166150D03*
X0168211Y0133250D03*
X0200911Y0113750D03*
X0230711Y0113750D03*
D20*
X0221611Y0111350D03*
X0221511Y0111050D03*
X0221411Y0110850D03*
X0221311Y0110650D03*
X0221311Y0110550D03*
X0221211Y0110350D03*
X0221111Y0110150D03*
X0221111Y0110050D03*
X0221011Y0109850D03*
X0220911Y0109650D03*
X0220911Y0109550D03*
X0220811Y0109350D03*
X0220711Y0109150D03*
X0220611Y0108850D03*
X0220511Y0108650D03*
X0219811Y0106650D03*
X0225911Y0108250D03*
X0190111Y0111350D03*
X0190011Y0111150D03*
X0189911Y0110850D03*
X0189811Y0110650D03*
X0189711Y0110450D03*
X0189711Y0110350D03*
X0189611Y0110150D03*
X0189511Y0109950D03*
X0189511Y0109850D03*
X0189411Y0109650D03*
X0189311Y0109450D03*
X0189311Y0109350D03*
X0189211Y0109150D03*
X0189111Y0108950D03*
X0188211Y0106650D03*
X0181911Y0108250D03*
X0184811Y0115050D03*
X0168111Y0146950D03*
X0170211Y0152650D03*
X0171511Y0167550D03*
D21*
X0171461Y0167450D03*
X0170361Y0152750D03*
X0175161Y0114750D03*
X0175161Y0114650D03*
X0175161Y0114550D03*
X0175161Y0114450D03*
X0175161Y0114350D03*
X0175161Y0114250D03*
X0175161Y0114150D03*
X0175161Y0114050D03*
X0175161Y0113950D03*
X0175161Y0113850D03*
X0175161Y0113750D03*
X0175161Y0113650D03*
X0175161Y0113550D03*
X0175161Y0113450D03*
X0175161Y0113350D03*
X0175161Y0113250D03*
X0175161Y0113150D03*
X0175161Y0113050D03*
X0175161Y0112950D03*
X0175161Y0112850D03*
X0175161Y0112750D03*
X0175161Y0112650D03*
X0175161Y0112550D03*
X0175161Y0112450D03*
X0175161Y0112350D03*
X0175161Y0112250D03*
X0175161Y0112150D03*
X0175161Y0112050D03*
X0175161Y0111950D03*
X0175161Y0111850D03*
X0175961Y0109650D03*
X0176261Y0108850D03*
X0177961Y0108650D03*
X0177961Y0108550D03*
X0178061Y0108750D03*
X0178061Y0108850D03*
X0178161Y0108950D03*
X0178161Y0109050D03*
X0178261Y0109150D03*
X0178261Y0109250D03*
X0178361Y0109350D03*
X0178361Y0109450D03*
X0178461Y0109550D03*
X0178461Y0109650D03*
X0178561Y0109750D03*
X0178561Y0109850D03*
X0178661Y0109950D03*
X0178661Y0110050D03*
X0178761Y0110250D03*
X0178861Y0110450D03*
X0178961Y0110650D03*
X0179061Y0110850D03*
X0179061Y0110950D03*
X0179161Y0111050D03*
X0179161Y0111150D03*
X0179261Y0111250D03*
X0179261Y0111350D03*
X0179361Y0111450D03*
X0179361Y0111550D03*
X0179461Y0111750D03*
X0179461Y0111850D03*
X0179461Y0113450D03*
X0179461Y0113550D03*
X0179461Y0113650D03*
X0179461Y0113750D03*
X0179461Y0113850D03*
X0179461Y0113950D03*
X0179461Y0114050D03*
X0179461Y0114150D03*
X0179461Y0114250D03*
X0179461Y0114350D03*
X0179461Y0114450D03*
X0179461Y0114550D03*
X0179461Y0114650D03*
X0184661Y0114950D03*
X0186461Y0111050D03*
X0186561Y0110850D03*
X0186761Y0110350D03*
X0186861Y0110150D03*
X0187161Y0109450D03*
X0187461Y0108750D03*
X0188261Y0107050D03*
X0188261Y0106950D03*
X0184761Y0108350D03*
X0184761Y0108450D03*
X0184761Y0108550D03*
X0184761Y0108650D03*
X0184761Y0108750D03*
X0184761Y0108850D03*
X0184761Y0108950D03*
X0184761Y0109050D03*
X0184761Y0109150D03*
X0184761Y0109250D03*
X0184761Y0109350D03*
X0184761Y0109450D03*
X0184761Y0109550D03*
X0184761Y0109650D03*
X0184761Y0109750D03*
X0184761Y0109850D03*
X0181961Y0108050D03*
X0181961Y0106850D03*
X0172361Y0108450D03*
X0172261Y0108550D03*
X0172261Y0108650D03*
X0172161Y0108750D03*
X0172161Y0108850D03*
X0172061Y0108950D03*
X0172061Y0109050D03*
X0171961Y0109150D03*
X0171961Y0109250D03*
X0171861Y0109350D03*
X0171861Y0109450D03*
X0171761Y0109550D03*
X0171761Y0109650D03*
X0171661Y0109750D03*
X0171661Y0109850D03*
X0171561Y0109950D03*
X0171561Y0110050D03*
X0171461Y0110150D03*
X0171461Y0110250D03*
X0171461Y0110350D03*
X0171361Y0110450D03*
X0171361Y0110550D03*
X0171261Y0110650D03*
X0171261Y0110750D03*
X0171161Y0110850D03*
X0171161Y0110950D03*
X0171061Y0111050D03*
X0171061Y0111150D03*
X0170961Y0111250D03*
X0170961Y0111350D03*
X0170861Y0111550D03*
X0170861Y0111650D03*
X0170761Y0111850D03*
X0170761Y0111950D03*
X0170761Y0112050D03*
X0170761Y0112150D03*
X0170761Y0112250D03*
X0170761Y0112350D03*
X0170761Y0112450D03*
X0170761Y0112550D03*
X0170761Y0112650D03*
X0170761Y0112750D03*
X0170761Y0112850D03*
X0170761Y0112950D03*
X0170761Y0113050D03*
X0170761Y0113150D03*
X0170761Y0113250D03*
X0170761Y0113350D03*
X0170761Y0113450D03*
X0170761Y0113550D03*
X0170761Y0113650D03*
X0168461Y0113650D03*
X0168461Y0113750D03*
X0168461Y0113550D03*
X0168461Y0113450D03*
X0168461Y0113350D03*
X0168461Y0113250D03*
X0168461Y0113150D03*
X0168461Y0113050D03*
X0168461Y0112950D03*
X0168461Y0112850D03*
X0168461Y0112750D03*
X0168461Y0112650D03*
X0168461Y0112550D03*
X0168461Y0112450D03*
X0168461Y0112350D03*
X0168461Y0112250D03*
X0168461Y0112150D03*
X0168461Y0112050D03*
X0168461Y0111950D03*
X0168461Y0111850D03*
X0168361Y0111650D03*
X0168361Y0111550D03*
X0168261Y0111450D03*
X0168261Y0111350D03*
X0168161Y0111250D03*
X0168161Y0111150D03*
X0168061Y0110950D03*
X0168061Y0110850D03*
X0167961Y0110750D03*
X0167961Y0110650D03*
X0167861Y0110550D03*
X0167861Y0110450D03*
X0167761Y0110350D03*
X0167761Y0110250D03*
X0167661Y0110150D03*
X0167661Y0110050D03*
X0167561Y0109950D03*
X0167561Y0109850D03*
X0167461Y0109650D03*
X0167361Y0109450D03*
X0167261Y0109250D03*
X0167161Y0109050D03*
X0167161Y0108950D03*
X0167061Y0108850D03*
X0167061Y0108750D03*
X0166961Y0108650D03*
X0166961Y0108550D03*
X0165361Y0108550D03*
X0166061Y0106750D03*
X0162061Y0106750D03*
X0162061Y0106850D03*
X0161261Y0108550D03*
X0161161Y0108750D03*
X0161061Y0108950D03*
X0160961Y0109150D03*
X0160861Y0109350D03*
X0160761Y0109550D03*
X0160761Y0109650D03*
X0160661Y0109750D03*
X0160661Y0109850D03*
X0160561Y0109950D03*
X0160561Y0110050D03*
X0160461Y0110150D03*
X0160461Y0110250D03*
X0160361Y0110350D03*
X0160361Y0110450D03*
X0160261Y0110550D03*
X0160261Y0110650D03*
X0160161Y0110750D03*
X0160161Y0110850D03*
X0160061Y0110950D03*
X0160061Y0111050D03*
X0160061Y0111150D03*
X0159961Y0111250D03*
X0159961Y0111350D03*
X0159861Y0111450D03*
X0159861Y0111550D03*
X0159761Y0111750D03*
X0159761Y0111850D03*
X0159661Y0112050D03*
X0159661Y0112150D03*
X0159661Y0112250D03*
X0159761Y0112650D03*
X0159761Y0112750D03*
X0159761Y0112850D03*
X0159761Y0112950D03*
X0159761Y0113050D03*
X0159761Y0113150D03*
X0159761Y0113250D03*
X0159761Y0113350D03*
X0159761Y0113450D03*
X0159761Y0113550D03*
X0159761Y0113650D03*
X0159761Y0113750D03*
X0159761Y0113850D03*
X0159761Y0113950D03*
X0159761Y0114050D03*
X0159761Y0114150D03*
X0157461Y0113250D03*
X0157461Y0113150D03*
X0157461Y0113050D03*
X0157461Y0112950D03*
X0157461Y0112850D03*
X0157461Y0112750D03*
X0157461Y0112650D03*
X0157461Y0112550D03*
X0157461Y0112450D03*
X0157461Y0112350D03*
X0157461Y0112250D03*
X0157461Y0112150D03*
X0157461Y0112050D03*
X0157461Y0111950D03*
X0157361Y0111750D03*
X0157361Y0111650D03*
X0157261Y0111550D03*
X0157261Y0111450D03*
X0157261Y0111350D03*
X0157161Y0111250D03*
X0157161Y0111150D03*
X0157061Y0111050D03*
X0157061Y0110950D03*
X0156961Y0110850D03*
X0156961Y0110750D03*
X0156861Y0110650D03*
X0156861Y0110550D03*
X0156761Y0110350D03*
X0156661Y0110150D03*
X0156561Y0109950D03*
X0156461Y0109750D03*
X0156461Y0109650D03*
X0156361Y0109550D03*
X0156361Y0109450D03*
X0156261Y0109350D03*
X0156261Y0109250D03*
X0156161Y0109150D03*
X0156161Y0109050D03*
X0156061Y0108950D03*
X0156061Y0108850D03*
X0155961Y0108750D03*
X0155961Y0108650D03*
X0155861Y0108550D03*
X0155061Y0106850D03*
X0155061Y0106750D03*
X0151061Y0106750D03*
X0151061Y0106850D03*
X0150261Y0108450D03*
X0150161Y0108650D03*
X0150161Y0108750D03*
X0150061Y0108850D03*
X0150061Y0108950D03*
X0149961Y0109050D03*
X0149961Y0109150D03*
X0149861Y0109250D03*
X0149861Y0109350D03*
X0149761Y0109450D03*
X0149761Y0109550D03*
X0149661Y0109650D03*
X0149661Y0109750D03*
X0149561Y0109850D03*
X0149561Y0109950D03*
X0149461Y0110050D03*
X0149461Y0110150D03*
X0149361Y0110250D03*
X0149361Y0110350D03*
X0149261Y0110450D03*
X0149261Y0110550D03*
X0149261Y0110650D03*
X0149161Y0110750D03*
X0149161Y0110850D03*
X0149061Y0110950D03*
X0149061Y0111050D03*
X0148961Y0111150D03*
X0148961Y0111250D03*
X0148861Y0111350D03*
X0148861Y0111450D03*
X0148761Y0111650D03*
X0148761Y0111750D03*
X0148661Y0111950D03*
X0148661Y0112050D03*
X0148661Y0112150D03*
X0148661Y0112250D03*
X0148661Y0112350D03*
X0148661Y0112450D03*
X0148661Y0112550D03*
X0148661Y0112650D03*
X0148661Y0112750D03*
X0148661Y0112850D03*
X0148761Y0113950D03*
X0148761Y0114050D03*
X0148761Y0114150D03*
X0148761Y0114250D03*
X0148761Y0114350D03*
X0148761Y0114450D03*
X0148761Y0114550D03*
X0148761Y0114650D03*
X0148761Y0114750D03*
X0148761Y0114850D03*
X0148761Y0114950D03*
X0153061Y0114050D03*
X0153061Y0113950D03*
X0153061Y0113850D03*
X0153061Y0113750D03*
X0153061Y0113650D03*
X0153061Y0113550D03*
X0153061Y0113450D03*
X0153061Y0113350D03*
X0153061Y0113250D03*
X0153061Y0113150D03*
X0153061Y0113050D03*
X0153061Y0112950D03*
X0153061Y0112850D03*
X0153061Y0112750D03*
X0153061Y0112650D03*
X0153061Y0112550D03*
X0153061Y0112450D03*
X0153061Y0112350D03*
X0153061Y0112250D03*
X0153061Y0112150D03*
X0153061Y0112050D03*
X0153061Y0111950D03*
X0153061Y0111850D03*
X0164061Y0111950D03*
X0164161Y0113350D03*
X0164161Y0113450D03*
X0191661Y0114950D03*
X0194061Y0114950D03*
X0194061Y0114850D03*
X0194061Y0114750D03*
X0194061Y0114650D03*
X0194061Y0114550D03*
X0194061Y0114450D03*
X0194061Y0114350D03*
X0194061Y0114250D03*
X0194061Y0114150D03*
X0194061Y0114050D03*
X0194061Y0113950D03*
X0194061Y0113850D03*
X0194061Y0113750D03*
X0194061Y0113650D03*
X0194061Y0113550D03*
X0194061Y0113450D03*
X0194061Y0113350D03*
X0194061Y0113250D03*
X0194061Y0113150D03*
X0194061Y0113050D03*
X0194061Y0112950D03*
X0194061Y0112850D03*
X0194061Y0112750D03*
X0191561Y0109650D03*
X0191561Y0109550D03*
X0191561Y0109450D03*
X0191561Y0109350D03*
X0191561Y0109250D03*
X0191561Y0109150D03*
X0191561Y0109050D03*
X0203561Y0109050D03*
X0203561Y0109150D03*
X0203561Y0109250D03*
X0203561Y0109350D03*
X0203561Y0109450D03*
X0203561Y0109550D03*
X0203561Y0109650D03*
X0203561Y0109750D03*
X0203561Y0109850D03*
X0203561Y0109950D03*
X0203561Y0110050D03*
X0203561Y0110150D03*
X0203561Y0110250D03*
X0203561Y0110350D03*
X0203561Y0110450D03*
X0203561Y0110550D03*
X0203561Y0110650D03*
X0203561Y0110750D03*
X0203561Y0110850D03*
X0203561Y0110950D03*
X0203561Y0111050D03*
X0203561Y0111150D03*
X0203561Y0111250D03*
X0203561Y0111350D03*
X0203561Y0111450D03*
X0203561Y0111550D03*
X0203561Y0111650D03*
X0203561Y0111750D03*
X0203561Y0111850D03*
X0203561Y0111950D03*
X0203561Y0112050D03*
X0203561Y0112150D03*
X0203561Y0112250D03*
X0203561Y0112350D03*
X0203561Y0112450D03*
X0203561Y0112550D03*
X0203561Y0112650D03*
X0203561Y0112750D03*
X0203561Y0112850D03*
X0203561Y0112950D03*
X0203561Y0113050D03*
X0203561Y0113150D03*
X0203561Y0113250D03*
X0208961Y0110950D03*
X0208961Y0110850D03*
X0209061Y0111050D03*
X0209061Y0111150D03*
X0209161Y0111350D03*
X0209161Y0111450D03*
X0209261Y0111550D03*
X0209261Y0111650D03*
X0209361Y0111850D03*
X0209361Y0111950D03*
X0209461Y0112050D03*
X0209461Y0112150D03*
X0209461Y0112250D03*
X0209561Y0112350D03*
X0209561Y0112450D03*
X0209661Y0112550D03*
X0209661Y0112650D03*
X0209661Y0112750D03*
X0209761Y0112850D03*
X0209761Y0112950D03*
X0209861Y0113050D03*
X0209861Y0113150D03*
X0211461Y0113150D03*
X0211561Y0112950D03*
X0211661Y0112650D03*
X0211761Y0112450D03*
X0211761Y0112350D03*
X0211861Y0112150D03*
X0211961Y0111850D03*
X0212061Y0111650D03*
X0212161Y0111350D03*
X0212261Y0111050D03*
X0212361Y0110850D03*
X0212461Y0110550D03*
X0212561Y0110250D03*
X0212661Y0110050D03*
X0216261Y0110050D03*
X0216261Y0110150D03*
X0216261Y0110250D03*
X0216261Y0110350D03*
X0216261Y0110450D03*
X0216261Y0110550D03*
X0216261Y0110650D03*
X0216261Y0110750D03*
X0216261Y0110850D03*
X0216261Y0110950D03*
X0216261Y0111050D03*
X0216261Y0111150D03*
X0216261Y0111250D03*
X0216261Y0111350D03*
X0216261Y0111450D03*
X0216261Y0109950D03*
X0216261Y0109850D03*
X0216261Y0109750D03*
X0216261Y0109650D03*
X0216261Y0109550D03*
X0216261Y0109450D03*
X0216261Y0109350D03*
X0216261Y0109250D03*
X0216261Y0109150D03*
X0216261Y0109050D03*
X0216261Y0108950D03*
X0216261Y0108850D03*
X0216261Y0108750D03*
X0216261Y0108650D03*
X0216261Y0108550D03*
X0216261Y0108450D03*
X0216261Y0108350D03*
X0216261Y0108250D03*
X0216261Y0108150D03*
X0216261Y0108050D03*
X0216261Y0107950D03*
X0218761Y0109250D03*
X0218461Y0109950D03*
X0218161Y0110650D03*
X0218061Y0110850D03*
X0217861Y0111350D03*
X0219761Y0107050D03*
X0219761Y0106950D03*
X0223161Y0109250D03*
X0223161Y0109350D03*
X0223161Y0109450D03*
X0228661Y0109450D03*
X0228661Y0109350D03*
X0228661Y0109250D03*
X0228661Y0109150D03*
X0228661Y0109050D03*
X0228661Y0108950D03*
X0228661Y0108850D03*
X0228661Y0109550D03*
X0228661Y0109650D03*
X0228661Y0109750D03*
X0228661Y0109850D03*
X0228661Y0111850D03*
X0228661Y0111950D03*
X0228661Y0112050D03*
X0228661Y0112150D03*
X0228661Y0112250D03*
X0228661Y0112350D03*
X0228661Y0112450D03*
X0228661Y0112550D03*
X0228661Y0112650D03*
X0228661Y0112750D03*
X0228661Y0112850D03*
X0233361Y0112850D03*
X0233361Y0112950D03*
X0233361Y0113050D03*
X0233361Y0113150D03*
X0233361Y0113250D03*
X0233361Y0113350D03*
X0233361Y0113450D03*
X0233361Y0113550D03*
X0233361Y0113650D03*
X0233361Y0113750D03*
X0233361Y0112750D03*
X0233361Y0112650D03*
X0233361Y0112550D03*
X0233361Y0112450D03*
X0233361Y0112350D03*
X0233361Y0112250D03*
X0233361Y0112150D03*
X0233361Y0112050D03*
X0233361Y0111950D03*
X0233361Y0111850D03*
X0233361Y0111750D03*
X0233361Y0111650D03*
X0233361Y0111550D03*
X0233361Y0111450D03*
X0233361Y0111350D03*
X0233361Y0111250D03*
X0233361Y0111150D03*
X0233361Y0111050D03*
X0233361Y0110950D03*
X0233361Y0110850D03*
X0233361Y0110750D03*
X0233361Y0110650D03*
X0233361Y0110550D03*
X0233361Y0110450D03*
X0233361Y0110350D03*
X0233361Y0110250D03*
X0233361Y0110150D03*
X0233361Y0110050D03*
X0233361Y0109950D03*
X0233361Y0109850D03*
X0233361Y0109750D03*
X0233361Y0109650D03*
X0233361Y0109550D03*
X0233361Y0109450D03*
X0233361Y0109350D03*
X0233361Y0109250D03*
X0233361Y0109150D03*
X0233361Y0109050D03*
X0233361Y0108950D03*
X0233361Y0108850D03*
X0223161Y0114950D03*
X0208861Y0110650D03*
X0208861Y0110550D03*
X0208761Y0110350D03*
X0208761Y0110250D03*
X0208661Y0110050D03*
X0207461Y0106650D03*
D22*
X0213211Y0108350D03*
X0199111Y0112350D03*
X0199011Y0112150D03*
X0198911Y0112050D03*
X0198811Y0111850D03*
X0198711Y0111750D03*
X0198511Y0111450D03*
X0196711Y0109050D03*
X0195211Y0111050D03*
X0195111Y0111150D03*
X0194911Y0111450D03*
X0194811Y0111550D03*
X0194711Y0111650D03*
X0194711Y0111750D03*
X0194611Y0111850D03*
X0194511Y0111950D03*
X0194311Y0112250D03*
X0191511Y0114250D03*
X0191511Y0114350D03*
X0184811Y0114350D03*
X0184811Y0114450D03*
X0175111Y0111450D03*
X0175111Y0111350D03*
X0177111Y0107150D03*
X0173111Y0107150D03*
X0173111Y0107050D03*
X0166111Y0107050D03*
X0166111Y0107150D03*
X0164111Y0111350D03*
X0164111Y0111450D03*
X0155111Y0107150D03*
X0151011Y0107150D03*
X0153111Y0111450D03*
X0188211Y0107350D03*
X0210711Y0114750D03*
X0210711Y0114850D03*
X0210711Y0114950D03*
X0216311Y0114450D03*
X0216311Y0114350D03*
X0223011Y0114350D03*
X0223011Y0114250D03*
X0223011Y0114150D03*
X0225911Y0107850D03*
X0225911Y0107750D03*
X0225911Y0107650D03*
X0225911Y0107550D03*
X0225911Y0107450D03*
X0225911Y0107350D03*
X0225911Y0107250D03*
X0225911Y0107150D03*
X0183411Y0135250D03*
X0183411Y0135350D03*
X0186811Y0138050D03*
X0186711Y0138250D03*
X0186711Y0138350D03*
X0186611Y0138450D03*
X0186611Y0138550D03*
X0186511Y0138950D03*
X0186511Y0140750D03*
X0186611Y0141150D03*
X0186611Y0141250D03*
X0186711Y0141350D03*
X0186711Y0141450D03*
X0186711Y0141550D03*
X0186811Y0141650D03*
X0183511Y0141850D03*
X0183511Y0141950D03*
X0183511Y0142050D03*
X0183511Y0142150D03*
X0183511Y0142250D03*
X0183511Y0142350D03*
X0183511Y0142450D03*
X0183511Y0142550D03*
X0183511Y0142650D03*
X0183511Y0142750D03*
X0183511Y0142850D03*
X0183511Y0142950D03*
X0183511Y0143050D03*
X0183511Y0143150D03*
X0183511Y0143250D03*
X0183511Y0143350D03*
X0183511Y0143450D03*
X0183511Y0143550D03*
X0183511Y0143650D03*
X0183511Y0143750D03*
X0183511Y0143850D03*
X0183511Y0143950D03*
X0183511Y0144050D03*
X0183511Y0144150D03*
X0183511Y0144250D03*
X0183511Y0144350D03*
X0183511Y0144450D03*
X0183511Y0144550D03*
X0183511Y0144650D03*
X0190311Y0144850D03*
X0193811Y0141650D03*
X0193911Y0141550D03*
X0193911Y0141450D03*
X0194011Y0141250D03*
X0194011Y0141150D03*
X0194111Y0140750D03*
X0194111Y0138950D03*
X0194011Y0138550D03*
X0194011Y0138450D03*
X0193911Y0138350D03*
X0193911Y0138250D03*
X0193811Y0138050D03*
X0176611Y0136850D03*
X0176611Y0136750D03*
X0176611Y0136650D03*
X0176611Y0136550D03*
X0176611Y0136450D03*
X0176611Y0136350D03*
X0176611Y0136250D03*
X0176611Y0136150D03*
X0176611Y0136050D03*
X0176611Y0135950D03*
X0176611Y0135850D03*
X0176611Y0135750D03*
X0176611Y0135650D03*
X0176611Y0135550D03*
X0176611Y0135450D03*
X0176611Y0135350D03*
X0176611Y0135250D03*
X0176611Y0135150D03*
X0173211Y0136950D03*
X0173211Y0137050D03*
X0170311Y0134850D03*
X0167411Y0137050D03*
X0167411Y0137150D03*
X0167311Y0140850D03*
X0167311Y0140950D03*
X0167311Y0141050D03*
X0167311Y0141150D03*
X0167311Y0141250D03*
X0167311Y0141350D03*
X0167311Y0141450D03*
X0167311Y0141550D03*
X0167311Y0141650D03*
X0167311Y0141750D03*
X0167311Y0141850D03*
X0167311Y0141950D03*
X0167311Y0142050D03*
X0167311Y0142150D03*
X0167311Y0142250D03*
X0167311Y0142350D03*
X0167311Y0142450D03*
X0167311Y0142550D03*
X0167311Y0142650D03*
X0167311Y0142750D03*
X0167311Y0142850D03*
X0167311Y0142950D03*
X0167311Y0143050D03*
X0167311Y0143150D03*
X0167311Y0143250D03*
X0167311Y0143350D03*
X0167311Y0143450D03*
X0167311Y0143550D03*
X0167311Y0143650D03*
X0167311Y0143750D03*
X0167311Y0143850D03*
X0167311Y0143950D03*
X0167311Y0144050D03*
X0167311Y0144650D03*
X0173411Y0144650D03*
X0173311Y0142850D03*
X0173311Y0142750D03*
X0173311Y0142650D03*
X0173311Y0142550D03*
X0173311Y0142450D03*
X0173311Y0142350D03*
X0173311Y0142250D03*
X0173311Y0142150D03*
X0170511Y0152850D03*
X0189711Y0153450D03*
X0191511Y0158050D03*
X0191611Y0158250D03*
X0191711Y0158450D03*
X0191711Y0158550D03*
X0191811Y0158750D03*
X0191811Y0158850D03*
X0166911Y0166150D03*
D23*
X0184411Y0166150D03*
X0192511Y0160450D03*
X0192411Y0160250D03*
X0192211Y0159750D03*
X0190811Y0156350D03*
X0188511Y0156550D03*
X0189711Y0153650D03*
X0189711Y0153550D03*
X0170611Y0152950D03*
X0176711Y0144350D03*
X0178611Y0141750D03*
X0178711Y0141650D03*
X0178811Y0141550D03*
X0178911Y0141350D03*
X0179011Y0141250D03*
X0179111Y0141150D03*
X0179211Y0141050D03*
X0179211Y0140950D03*
X0179311Y0140850D03*
X0179411Y0140750D03*
X0179511Y0140650D03*
X0179511Y0140550D03*
X0179611Y0140450D03*
X0179711Y0140350D03*
X0179811Y0140250D03*
X0179811Y0140150D03*
X0179911Y0140050D03*
X0180011Y0139950D03*
X0180111Y0139850D03*
X0180111Y0139750D03*
X0180211Y0139650D03*
X0180311Y0139550D03*
X0180411Y0139450D03*
X0180411Y0139350D03*
X0180511Y0139250D03*
X0180611Y0139150D03*
X0180711Y0139050D03*
X0180811Y0138850D03*
X0180911Y0138750D03*
X0181011Y0138650D03*
X0181111Y0138450D03*
X0181211Y0138350D03*
X0181311Y0138250D03*
X0181411Y0138050D03*
X0181511Y0137950D03*
X0181611Y0137850D03*
X0183311Y0135550D03*
X0187111Y0137450D03*
X0187211Y0137350D03*
X0187011Y0137650D03*
X0193411Y0137350D03*
X0193511Y0137450D03*
X0193511Y0137550D03*
X0193611Y0137650D03*
X0193611Y0142050D03*
X0193511Y0142250D03*
X0193411Y0142350D03*
X0187211Y0142350D03*
X0187111Y0142250D03*
X0187011Y0142050D03*
X0173111Y0136750D03*
X0167611Y0136650D03*
X0184911Y0113950D03*
X0184911Y0113850D03*
X0191411Y0113850D03*
X0191411Y0113750D03*
X0195511Y0110650D03*
X0195611Y0110550D03*
X0196711Y0109150D03*
X0197711Y0110450D03*
X0197811Y0110550D03*
X0188211Y0107650D03*
X0177111Y0107350D03*
X0173111Y0107350D03*
X0175111Y0111050D03*
X0175111Y0111150D03*
X0166111Y0107350D03*
X0166111Y0107250D03*
X0162011Y0107350D03*
X0164111Y0111050D03*
X0164111Y0111150D03*
X0155111Y0107350D03*
X0151011Y0107350D03*
X0153111Y0111150D03*
X0210711Y0114550D03*
X0210711Y0114650D03*
X0216411Y0114050D03*
X0216411Y0113950D03*
X0222911Y0113850D03*
X0222911Y0113750D03*
X0222911Y0113650D03*
D24*
X0223111Y0111450D03*
X0223111Y0111350D03*
X0223111Y0111250D03*
X0223111Y0111150D03*
X0223111Y0111050D03*
X0223111Y0110950D03*
X0223111Y0110850D03*
X0223111Y0110750D03*
X0223111Y0110650D03*
X0223111Y0110550D03*
X0223111Y0110450D03*
X0223111Y0110350D03*
X0223111Y0110250D03*
X0223111Y0110150D03*
X0223111Y0110050D03*
X0223111Y0109950D03*
X0223111Y0109850D03*
X0223111Y0109750D03*
X0223111Y0109650D03*
X0223111Y0109550D03*
X0225911Y0108150D03*
X0225911Y0106850D03*
X0228711Y0109950D03*
X0228711Y0110050D03*
X0228711Y0110150D03*
X0228711Y0110250D03*
X0228711Y0110350D03*
X0228711Y0110450D03*
X0228711Y0110550D03*
X0228711Y0110650D03*
X0228711Y0110750D03*
X0228711Y0110850D03*
X0228711Y0110950D03*
X0228711Y0111050D03*
X0228711Y0111150D03*
X0228711Y0111250D03*
X0228711Y0111350D03*
X0228711Y0111450D03*
X0228711Y0111550D03*
X0228711Y0111650D03*
X0228711Y0111750D03*
X0219011Y0108750D03*
X0219011Y0108650D03*
X0218911Y0108850D03*
X0218911Y0108950D03*
X0218811Y0109050D03*
X0218811Y0109150D03*
X0218711Y0109350D03*
X0218711Y0109450D03*
X0218611Y0109550D03*
X0218611Y0109650D03*
X0218511Y0109750D03*
X0218511Y0109850D03*
X0218411Y0110050D03*
X0218411Y0110150D03*
X0218311Y0110250D03*
X0218311Y0110350D03*
X0218211Y0110450D03*
X0218211Y0110550D03*
X0218111Y0110750D03*
X0218011Y0110950D03*
X0218011Y0111050D03*
X0217911Y0111150D03*
X0217911Y0111250D03*
X0217811Y0111450D03*
X0191611Y0111350D03*
X0191611Y0111250D03*
X0191611Y0111150D03*
X0191611Y0111050D03*
X0191611Y0110950D03*
X0191611Y0110850D03*
X0191611Y0110750D03*
X0191611Y0110650D03*
X0191611Y0110550D03*
X0191611Y0110450D03*
X0191611Y0110350D03*
X0191611Y0110250D03*
X0191611Y0110150D03*
X0191611Y0110050D03*
X0191611Y0109950D03*
X0191611Y0109850D03*
X0191611Y0109750D03*
X0187511Y0108650D03*
X0187411Y0108850D03*
X0187411Y0108950D03*
X0187311Y0109050D03*
X0187311Y0109150D03*
X0187211Y0109250D03*
X0187211Y0109350D03*
X0187111Y0109550D03*
X0187111Y0109650D03*
X0187011Y0109750D03*
X0187011Y0109850D03*
X0186911Y0109950D03*
X0186911Y0110050D03*
X0186811Y0110250D03*
X0186711Y0110450D03*
X0186711Y0110550D03*
X0186611Y0110650D03*
X0186611Y0110750D03*
X0186511Y0110950D03*
X0186411Y0111150D03*
X0186411Y0111250D03*
X0186311Y0111350D03*
X0186311Y0111450D03*
X0184711Y0111450D03*
X0184711Y0111350D03*
X0184711Y0111250D03*
X0184711Y0111150D03*
X0184711Y0111050D03*
X0184711Y0110950D03*
X0184711Y0110850D03*
X0184711Y0110750D03*
X0184711Y0110650D03*
X0184711Y0110550D03*
X0184711Y0110450D03*
X0184711Y0110350D03*
X0184711Y0110250D03*
X0184711Y0110150D03*
X0184711Y0110050D03*
X0184711Y0109950D03*
X0179011Y0110750D03*
X0178911Y0110550D03*
X0178811Y0110350D03*
X0178711Y0110150D03*
X0176111Y0109350D03*
X0176111Y0109250D03*
X0176111Y0109150D03*
X0176211Y0109050D03*
X0176211Y0108950D03*
X0176311Y0108750D03*
X0176311Y0108650D03*
X0176411Y0108550D03*
X0176011Y0109450D03*
X0176011Y0109550D03*
X0175911Y0109750D03*
X0175911Y0109850D03*
X0174311Y0109650D03*
X0174211Y0109350D03*
X0174111Y0109150D03*
X0174011Y0108850D03*
X0173111Y0106750D03*
X0173111Y0106650D03*
X0177111Y0106650D03*
X0177111Y0106750D03*
X0168111Y0111050D03*
X0167511Y0109750D03*
X0167411Y0109550D03*
X0167311Y0109350D03*
X0167211Y0109150D03*
X0165311Y0108750D03*
X0165311Y0108650D03*
X0165211Y0108850D03*
X0165211Y0108950D03*
X0165111Y0109050D03*
X0165111Y0109150D03*
X0165111Y0109250D03*
X0165011Y0109350D03*
X0165011Y0109450D03*
X0165011Y0109550D03*
X0164911Y0109650D03*
X0164911Y0109750D03*
X0164811Y0109850D03*
X0163311Y0109750D03*
X0163211Y0109450D03*
X0163111Y0109150D03*
X0163011Y0108950D03*
X0162911Y0108650D03*
X0164111Y0112050D03*
X0164111Y0112150D03*
X0164111Y0112250D03*
X0164111Y0112350D03*
X0164111Y0112450D03*
X0164111Y0112550D03*
X0164111Y0112650D03*
X0164111Y0112750D03*
X0164111Y0112850D03*
X0164111Y0112950D03*
X0164111Y0113050D03*
X0164111Y0113150D03*
X0164111Y0113250D03*
X0156811Y0110450D03*
X0156711Y0110250D03*
X0156611Y0110050D03*
X0156511Y0109850D03*
X0154211Y0108950D03*
X0154211Y0108850D03*
X0154211Y0108750D03*
X0154311Y0108650D03*
X0154311Y0108550D03*
X0154111Y0109050D03*
X0154111Y0109150D03*
X0154011Y0109250D03*
X0154011Y0109350D03*
X0154011Y0109450D03*
X0153911Y0109550D03*
X0153911Y0109650D03*
X0153911Y0109750D03*
X0153811Y0109850D03*
X0152311Y0109850D03*
X0152311Y0109750D03*
X0152211Y0109550D03*
X0152111Y0109250D03*
X0152011Y0109050D03*
X0151911Y0108750D03*
X0166111Y0106650D03*
X0189711Y0153150D03*
X0221911Y0152950D03*
X0221911Y0166450D03*
X0204111Y0166150D03*
D25*
X0212861Y0164350D03*
X0212861Y0164250D03*
X0212861Y0164150D03*
X0212861Y0164050D03*
X0212861Y0163950D03*
X0212861Y0163850D03*
X0212861Y0163750D03*
X0212861Y0163650D03*
X0212861Y0163550D03*
X0212861Y0163450D03*
X0212861Y0163350D03*
X0212861Y0163250D03*
X0212861Y0163150D03*
X0212861Y0163050D03*
X0212861Y0162950D03*
X0212861Y0162850D03*
X0212861Y0162750D03*
X0212861Y0162650D03*
X0212861Y0162550D03*
X0212861Y0162450D03*
X0212861Y0162350D03*
X0212861Y0162250D03*
X0212861Y0162150D03*
X0212861Y0162050D03*
X0212861Y0161950D03*
X0212861Y0161850D03*
X0212861Y0161750D03*
X0212861Y0161650D03*
X0212861Y0161550D03*
X0212861Y0161450D03*
X0212861Y0161350D03*
X0212861Y0161250D03*
X0216861Y0161050D03*
X0216861Y0160950D03*
X0216861Y0160850D03*
X0216861Y0160750D03*
X0216861Y0160650D03*
X0216761Y0160250D03*
X0216761Y0160150D03*
X0216761Y0160050D03*
X0216761Y0159950D03*
X0216761Y0159850D03*
X0216761Y0159750D03*
X0216761Y0159650D03*
X0216761Y0159550D03*
X0216761Y0159450D03*
X0216761Y0159350D03*
X0216761Y0159250D03*
X0216761Y0159150D03*
X0216861Y0158750D03*
X0216861Y0158650D03*
X0216861Y0158550D03*
X0216861Y0158450D03*
X0216861Y0158350D03*
X0216961Y0158250D03*
X0216961Y0158150D03*
X0216961Y0158050D03*
X0217061Y0157750D03*
X0216961Y0161150D03*
X0216961Y0161250D03*
X0216961Y0161350D03*
X0217061Y0161650D03*
X0226761Y0161750D03*
X0226861Y0161450D03*
X0226861Y0161350D03*
X0226861Y0161250D03*
X0226961Y0161150D03*
X0226961Y0161050D03*
X0226961Y0160950D03*
X0226961Y0160850D03*
X0227061Y0160450D03*
X0227061Y0160350D03*
X0227061Y0160250D03*
X0227061Y0160150D03*
X0227061Y0160050D03*
X0227061Y0159450D03*
X0227061Y0159350D03*
X0227061Y0159250D03*
X0227061Y0159150D03*
X0227061Y0159050D03*
X0227061Y0158950D03*
X0226961Y0158550D03*
X0226961Y0158450D03*
X0226961Y0158350D03*
X0226961Y0158250D03*
X0226861Y0158150D03*
X0226861Y0158050D03*
X0226861Y0157950D03*
X0212861Y0153450D03*
X0203661Y0155250D03*
X0203661Y0155350D03*
X0203661Y0155450D03*
X0203661Y0155550D03*
X0203661Y0155650D03*
X0203661Y0155750D03*
X0199261Y0158150D03*
X0199261Y0158250D03*
X0199261Y0158350D03*
X0199261Y0158450D03*
X0199261Y0158550D03*
X0199261Y0158650D03*
X0199261Y0158750D03*
X0199261Y0158850D03*
X0199261Y0158950D03*
X0199261Y0160550D03*
X0199261Y0160650D03*
X0199261Y0160750D03*
X0199261Y0160850D03*
X0199261Y0160950D03*
X0199261Y0161050D03*
X0199261Y0161150D03*
X0199261Y0161250D03*
X0199261Y0161350D03*
X0199261Y0161450D03*
X0194761Y0157850D03*
X0194761Y0157750D03*
X0194761Y0157650D03*
X0194761Y0157550D03*
X0194761Y0157450D03*
X0194761Y0157350D03*
X0194761Y0157250D03*
X0189661Y0153950D03*
X0184361Y0155450D03*
X0184361Y0155550D03*
X0184361Y0155650D03*
X0184361Y0155750D03*
X0184361Y0155850D03*
X0184361Y0155950D03*
X0184361Y0156050D03*
X0184361Y0156150D03*
X0184361Y0156250D03*
X0184361Y0156350D03*
X0184361Y0156450D03*
X0184361Y0156550D03*
X0184361Y0156650D03*
X0184361Y0156750D03*
X0184361Y0156850D03*
X0184361Y0156950D03*
X0184361Y0157050D03*
X0184361Y0157150D03*
X0184361Y0157250D03*
X0184361Y0157350D03*
X0184361Y0157450D03*
X0184361Y0157550D03*
X0184361Y0157650D03*
X0184361Y0157750D03*
X0184261Y0166050D03*
X0170661Y0159550D03*
X0170661Y0159450D03*
X0170661Y0159350D03*
X0170661Y0159250D03*
X0170661Y0159150D03*
X0170661Y0159050D03*
X0170661Y0158950D03*
X0170761Y0153150D03*
X0170761Y0153050D03*
X0163161Y0162350D03*
X0163161Y0162450D03*
X0163161Y0162550D03*
X0176861Y0143950D03*
X0187661Y0142850D03*
X0192961Y0142850D03*
X0193061Y0136950D03*
X0192961Y0136850D03*
X0187661Y0136850D03*
X0187561Y0136950D03*
X0183161Y0135950D03*
X0172861Y0136450D03*
X0185061Y0113350D03*
X0185061Y0113250D03*
X0185161Y0113150D03*
X0185161Y0113050D03*
X0185161Y0112950D03*
X0191261Y0112950D03*
X0191261Y0113050D03*
X0196661Y0109350D03*
X0177161Y0107750D03*
X0177161Y0107650D03*
X0175161Y0110650D03*
X0173061Y0107750D03*
X0173061Y0107650D03*
X0162061Y0107650D03*
X0162061Y0107750D03*
X0153061Y0110650D03*
X0153061Y0110750D03*
X0216661Y0113050D03*
X0216661Y0113150D03*
X0222761Y0113050D03*
X0222761Y0112950D03*
X0222761Y0112850D03*
X0219761Y0108050D03*
X0219761Y0107950D03*
D26*
X0219761Y0106550D03*
X0225861Y0106650D03*
X0216361Y0115050D03*
X0188261Y0106550D03*
X0181961Y0106650D03*
X0191061Y0146950D03*
X0189761Y0153050D03*
X0213461Y0166150D03*
D27*
X0217811Y0163150D03*
X0218011Y0163350D03*
X0218111Y0163450D03*
X0221911Y0166350D03*
X0225811Y0163350D03*
X0225911Y0163250D03*
X0226011Y0163150D03*
X0226111Y0156450D03*
X0226011Y0156350D03*
X0226011Y0156250D03*
X0225911Y0156150D03*
X0225811Y0156050D03*
X0221911Y0153050D03*
X0218011Y0156050D03*
X0217911Y0156150D03*
X0217811Y0156250D03*
X0217811Y0156350D03*
X0217711Y0156450D03*
X0212611Y0154050D03*
X0189711Y0154550D03*
X0184511Y0164850D03*
X0184511Y0164950D03*
X0184511Y0165050D03*
X0194711Y0165050D03*
X0194711Y0165150D03*
X0194711Y0164950D03*
X0203911Y0165450D03*
X0177211Y0143150D03*
X0182911Y0136650D03*
X0192511Y0136550D03*
X0210711Y0113650D03*
X0210711Y0113550D03*
X0216911Y0112050D03*
X0216911Y0111950D03*
X0216911Y0111850D03*
X0219711Y0108550D03*
X0196711Y0109650D03*
X0190911Y0111450D03*
X0190911Y0111550D03*
X0188211Y0108550D03*
X0185411Y0111850D03*
X0185411Y0111950D03*
X0177211Y0108250D03*
X0175111Y0109950D03*
X0173011Y0108250D03*
X0166111Y0108250D03*
X0164111Y0109950D03*
X0164111Y0110050D03*
X0162011Y0108350D03*
X0162011Y0108250D03*
X0155111Y0108250D03*
X0155111Y0108350D03*
X0153111Y0109950D03*
X0151011Y0108250D03*
D28*
X0196711Y0109950D03*
X0190311Y0135050D03*
X0182711Y0137150D03*
X0177411Y0142550D03*
X0177411Y0142650D03*
X0190311Y0144650D03*
X0189611Y0155050D03*
X0180111Y0156950D03*
X0179811Y0157350D03*
X0179511Y0157750D03*
X0179411Y0157850D03*
X0177111Y0160350D03*
X0176911Y0160650D03*
X0175911Y0161750D03*
X0175811Y0161850D03*
X0174911Y0162850D03*
X0174811Y0162950D03*
X0173811Y0164050D03*
X0171111Y0166950D03*
X0184711Y0164050D03*
X0184811Y0163850D03*
X0184811Y0163750D03*
X0194411Y0163650D03*
X0194511Y0163850D03*
X0194511Y0163950D03*
X0194511Y0164050D03*
X0204111Y0164950D03*
X0204211Y0164850D03*
X0204211Y0164750D03*
X0218511Y0163850D03*
X0225311Y0163850D03*
X0225411Y0163750D03*
X0225411Y0155650D03*
X0221911Y0153150D03*
X0218411Y0155650D03*
X0212411Y0154550D03*
D29*
X0213661Y0153250D03*
X0204561Y0153250D03*
X0194661Y0144950D03*
X0194761Y0144850D03*
X0194861Y0144750D03*
X0194961Y0144650D03*
X0195061Y0144550D03*
X0195061Y0144450D03*
X0195161Y0144350D03*
X0195261Y0144250D03*
X0195361Y0144150D03*
X0195361Y0144050D03*
X0195461Y0143950D03*
X0195561Y0143850D03*
X0195561Y0143750D03*
X0195661Y0143650D03*
X0195761Y0143450D03*
X0195861Y0143250D03*
X0195961Y0143050D03*
X0196061Y0142850D03*
X0196161Y0142650D03*
X0196161Y0142550D03*
X0196261Y0142350D03*
X0196261Y0142250D03*
X0196361Y0142050D03*
X0196361Y0141950D03*
X0196461Y0141650D03*
X0196461Y0141550D03*
X0196561Y0141050D03*
X0196561Y0140950D03*
X0196561Y0140850D03*
X0196561Y0139350D03*
X0196561Y0139250D03*
X0196461Y0138650D03*
X0196361Y0138250D03*
X0196261Y0137950D03*
X0196161Y0137650D03*
X0196061Y0137350D03*
X0195961Y0137150D03*
X0195861Y0136950D03*
X0195761Y0136750D03*
X0195561Y0136450D03*
X0195461Y0136250D03*
X0195361Y0136150D03*
X0195261Y0135950D03*
X0195161Y0135850D03*
X0195061Y0135750D03*
X0194861Y0135450D03*
X0194761Y0135350D03*
X0194661Y0135250D03*
X0194561Y0135150D03*
X0194461Y0135050D03*
X0194361Y0134950D03*
X0194261Y0134850D03*
X0193961Y0134650D03*
X0193861Y0134550D03*
X0193761Y0134450D03*
X0193461Y0134250D03*
X0165461Y0134450D03*
X0165061Y0134750D03*
X0164961Y0134850D03*
X0164861Y0134950D03*
X0164761Y0135050D03*
X0164661Y0135150D03*
X0164561Y0135250D03*
X0164461Y0135350D03*
X0164361Y0135450D03*
X0164261Y0135550D03*
X0164161Y0135650D03*
X0164061Y0135750D03*
X0164061Y0135850D03*
X0163961Y0135950D03*
X0163861Y0136050D03*
X0163761Y0136150D03*
X0163761Y0136250D03*
X0163661Y0136350D03*
X0163561Y0136550D03*
X0163461Y0136650D03*
X0163461Y0136750D03*
X0163361Y0136850D03*
X0163261Y0137050D03*
X0163161Y0137250D03*
X0163161Y0137350D03*
X0163061Y0137550D03*
X0162961Y0137750D03*
X0162961Y0137850D03*
X0162861Y0138050D03*
X0162861Y0138150D03*
X0162761Y0138450D03*
X0162761Y0138550D03*
X0162661Y0138850D03*
X0162661Y0138950D03*
X0162661Y0139050D03*
X0162661Y0139150D03*
X0162561Y0139750D03*
X0162561Y0139850D03*
X0162561Y0139950D03*
X0162561Y0140050D03*
X0162561Y0140150D03*
X0162561Y0140250D03*
X0162561Y0140350D03*
X0162561Y0140450D03*
X0162561Y0140550D03*
X0162661Y0141050D03*
X0162661Y0141150D03*
X0162661Y0141250D03*
X0162661Y0141350D03*
X0162761Y0141650D03*
X0162761Y0141750D03*
X0162761Y0141850D03*
X0162861Y0142050D03*
X0162861Y0142150D03*
X0162961Y0142350D03*
X0162961Y0142450D03*
X0163061Y0142650D03*
X0163061Y0142750D03*
X0163161Y0142850D03*
X0163161Y0142950D03*
X0163261Y0143150D03*
X0163361Y0143350D03*
X0163461Y0143450D03*
X0163461Y0143550D03*
X0163561Y0143650D03*
X0163561Y0143750D03*
X0163661Y0143850D03*
X0163761Y0143950D03*
X0163761Y0144050D03*
X0163861Y0144150D03*
X0163961Y0144250D03*
X0164061Y0144450D03*
X0164161Y0144550D03*
X0164261Y0144650D03*
X0162261Y0153250D03*
X0171661Y0167850D03*
X0194261Y0145350D03*
X0194361Y0145250D03*
X0194461Y0145150D03*
X0194561Y0145050D03*
X0180061Y0115050D03*
X0175761Y0115050D03*
X0181961Y0108450D03*
X0152461Y0115050D03*
X0148161Y0115050D03*
D30*
X0153111Y0110550D03*
X0155111Y0107850D03*
X0155111Y0107750D03*
X0151011Y0107750D03*
X0151011Y0107850D03*
X0162011Y0107850D03*
X0164111Y0110450D03*
X0164111Y0110550D03*
X0164111Y0110650D03*
X0166111Y0107850D03*
X0166111Y0107750D03*
X0175111Y0110550D03*
X0185211Y0112750D03*
X0185211Y0112850D03*
X0188211Y0108150D03*
X0188211Y0108050D03*
X0191111Y0112450D03*
X0191211Y0112650D03*
X0191211Y0112750D03*
X0191211Y0112850D03*
X0196711Y0109450D03*
X0210711Y0114050D03*
X0210711Y0114150D03*
X0216711Y0112950D03*
X0216711Y0112850D03*
X0216711Y0112750D03*
X0219711Y0108150D03*
X0222711Y0112650D03*
X0222711Y0112750D03*
X0183111Y0136050D03*
X0183111Y0136150D03*
X0167811Y0136450D03*
X0176911Y0143750D03*
X0176911Y0143850D03*
X0177011Y0143650D03*
X0187711Y0142950D03*
X0192911Y0142950D03*
X0189711Y0154050D03*
X0184311Y0154050D03*
X0184311Y0154150D03*
X0184311Y0154250D03*
X0184311Y0154350D03*
X0184311Y0154450D03*
X0184311Y0154550D03*
X0184311Y0154650D03*
X0184311Y0154750D03*
X0184311Y0154850D03*
X0184311Y0154950D03*
X0184311Y0155050D03*
X0184311Y0155150D03*
X0184311Y0155250D03*
X0184311Y0155350D03*
X0184311Y0153950D03*
X0184311Y0153850D03*
X0184311Y0153750D03*
X0184311Y0153650D03*
X0184311Y0153550D03*
X0184311Y0153450D03*
X0184311Y0153350D03*
X0194811Y0155850D03*
X0194811Y0155950D03*
X0194811Y0156050D03*
X0194811Y0156150D03*
X0194811Y0156250D03*
X0194811Y0156350D03*
X0194811Y0156450D03*
X0194811Y0156550D03*
X0194811Y0156650D03*
X0194811Y0156750D03*
X0194811Y0156850D03*
X0194811Y0156950D03*
X0194811Y0157050D03*
X0194811Y0157150D03*
X0199311Y0157150D03*
X0199311Y0157250D03*
X0199311Y0157350D03*
X0199311Y0157450D03*
X0199311Y0157550D03*
X0199311Y0157650D03*
X0199311Y0157750D03*
X0199311Y0157850D03*
X0199311Y0157950D03*
X0199311Y0158050D03*
X0199311Y0157050D03*
X0199311Y0156950D03*
X0199311Y0156850D03*
X0199311Y0156750D03*
X0199311Y0156650D03*
X0199311Y0156550D03*
X0199311Y0156450D03*
X0199311Y0156350D03*
X0199311Y0156250D03*
X0203711Y0155150D03*
X0203711Y0155050D03*
X0203711Y0154950D03*
X0203711Y0154850D03*
X0203711Y0154750D03*
X0203711Y0154650D03*
X0203711Y0154550D03*
X0203711Y0154450D03*
X0203611Y0153350D03*
X0212811Y0153550D03*
X0217211Y0157350D03*
X0217211Y0157450D03*
X0217111Y0157550D03*
X0217111Y0157650D03*
X0217011Y0157850D03*
X0217011Y0157950D03*
X0217011Y0161450D03*
X0217011Y0161550D03*
X0217111Y0161750D03*
X0217111Y0161850D03*
X0217211Y0162050D03*
X0217311Y0162250D03*
X0212911Y0164450D03*
X0212911Y0164550D03*
X0212911Y0166050D03*
X0203711Y0166050D03*
X0199311Y0163150D03*
X0199311Y0163050D03*
X0199311Y0162950D03*
X0199311Y0162850D03*
X0199311Y0162750D03*
X0199311Y0162650D03*
X0199311Y0162550D03*
X0199311Y0162450D03*
X0199311Y0162350D03*
X0199311Y0162250D03*
X0199311Y0162150D03*
X0199311Y0162050D03*
X0199311Y0161950D03*
X0199311Y0161850D03*
X0199311Y0161750D03*
X0199311Y0161650D03*
X0199311Y0161550D03*
X0194911Y0166050D03*
X0184311Y0165950D03*
X0184311Y0165850D03*
X0184311Y0165750D03*
X0170711Y0158850D03*
X0170711Y0155850D03*
X0170711Y0155750D03*
X0170711Y0155650D03*
X0170711Y0155550D03*
X0170711Y0155450D03*
X0170711Y0155350D03*
X0170711Y0155250D03*
X0170711Y0155150D03*
X0170711Y0155050D03*
X0170811Y0154250D03*
X0170811Y0154150D03*
X0170811Y0154050D03*
X0170811Y0153950D03*
X0170811Y0153850D03*
X0170811Y0153750D03*
X0170811Y0153650D03*
X0170811Y0153550D03*
X0170811Y0153450D03*
X0170811Y0153350D03*
X0170811Y0153250D03*
X0163211Y0153350D03*
X0163211Y0154950D03*
X0163211Y0155050D03*
X0163211Y0155150D03*
X0163211Y0155250D03*
X0163211Y0155350D03*
X0163211Y0155450D03*
X0163211Y0155550D03*
X0163211Y0155650D03*
X0163211Y0155750D03*
X0163211Y0155850D03*
X0163211Y0155950D03*
X0163211Y0156050D03*
X0163211Y0156150D03*
X0163211Y0156250D03*
X0163211Y0156350D03*
X0163211Y0156450D03*
X0163211Y0156550D03*
X0163211Y0156650D03*
X0163211Y0156750D03*
X0163211Y0156850D03*
X0163211Y0156950D03*
X0163211Y0157050D03*
X0163211Y0157150D03*
X0163211Y0157250D03*
X0163211Y0157350D03*
X0163211Y0157450D03*
X0163211Y0157550D03*
X0163211Y0157650D03*
X0163211Y0157750D03*
X0163211Y0162650D03*
X0163211Y0162750D03*
X0163211Y0162850D03*
X0163211Y0162950D03*
X0163211Y0163050D03*
X0163211Y0163150D03*
X0163211Y0163250D03*
X0163211Y0163350D03*
X0163211Y0163450D03*
X0163211Y0163550D03*
X0163211Y0163650D03*
X0163211Y0163750D03*
X0163211Y0163850D03*
X0163211Y0163950D03*
X0163211Y0164050D03*
X0163211Y0164150D03*
X0163211Y0164250D03*
X0226611Y0162150D03*
X0226611Y0162050D03*
X0226711Y0161950D03*
X0226711Y0161850D03*
X0226811Y0161650D03*
X0226811Y0161550D03*
X0226811Y0157850D03*
X0226811Y0157750D03*
X0226711Y0157650D03*
X0226711Y0157550D03*
X0226611Y0157350D03*
X0226611Y0157250D03*
D31*
X0204461Y0166250D03*
X0179461Y0156150D03*
X0185161Y0153250D03*
X0192761Y0146350D03*
X0192961Y0146250D03*
X0193161Y0146150D03*
X0166361Y0146350D03*
X0166161Y0146250D03*
X0166061Y0146150D03*
X0165861Y0146050D03*
X0165561Y0145850D03*
X0166061Y0134050D03*
X0166661Y0133750D03*
X0166861Y0133650D03*
X0192061Y0133550D03*
X0192561Y0133750D03*
X0192761Y0133850D03*
D32*
X0183461Y0135150D03*
X0186561Y0138650D03*
X0186561Y0138750D03*
X0186561Y0138850D03*
X0186461Y0139050D03*
X0186461Y0139150D03*
X0186461Y0139250D03*
X0186461Y0139350D03*
X0186461Y0139450D03*
X0186461Y0139550D03*
X0186461Y0139650D03*
X0186461Y0139750D03*
X0186461Y0139850D03*
X0186461Y0139950D03*
X0186461Y0140050D03*
X0186461Y0140150D03*
X0186461Y0140250D03*
X0186461Y0140350D03*
X0186461Y0140450D03*
X0186461Y0140550D03*
X0186461Y0140650D03*
X0186561Y0140850D03*
X0186561Y0140950D03*
X0186561Y0141050D03*
X0183461Y0141650D03*
X0183461Y0141750D03*
X0176661Y0144650D03*
X0173361Y0142050D03*
X0173361Y0141950D03*
X0173361Y0141850D03*
X0173361Y0141750D03*
X0173361Y0141650D03*
X0173361Y0141550D03*
X0173361Y0141450D03*
X0173361Y0141350D03*
X0173361Y0141250D03*
X0173361Y0141150D03*
X0173361Y0141050D03*
X0173361Y0140950D03*
X0173361Y0140850D03*
X0173361Y0140750D03*
X0173361Y0140650D03*
X0173361Y0140550D03*
X0173361Y0140450D03*
X0173361Y0140350D03*
X0173361Y0140250D03*
X0173361Y0140150D03*
X0173361Y0140050D03*
X0173361Y0139950D03*
X0173361Y0139850D03*
X0173361Y0139750D03*
X0173361Y0139650D03*
X0173361Y0139550D03*
X0173361Y0139450D03*
X0173361Y0139350D03*
X0173361Y0139250D03*
X0173361Y0139150D03*
X0173361Y0139050D03*
X0173361Y0138950D03*
X0173361Y0138850D03*
X0173361Y0138750D03*
X0173361Y0138650D03*
X0173361Y0138550D03*
X0173361Y0138450D03*
X0173361Y0138350D03*
X0173361Y0138250D03*
X0173361Y0138150D03*
X0173361Y0138050D03*
X0173361Y0137950D03*
X0173361Y0137850D03*
X0173361Y0137750D03*
X0173361Y0137650D03*
X0173361Y0137550D03*
X0173261Y0137450D03*
X0173261Y0137350D03*
X0173261Y0137250D03*
X0173261Y0137150D03*
X0176661Y0137150D03*
X0176661Y0137250D03*
X0176661Y0137350D03*
X0176661Y0137450D03*
X0176661Y0137550D03*
X0176661Y0137650D03*
X0176661Y0137750D03*
X0176661Y0137850D03*
X0176661Y0137950D03*
X0176661Y0138050D03*
X0176661Y0138150D03*
X0176661Y0138250D03*
X0176661Y0138350D03*
X0176661Y0137050D03*
X0176661Y0136950D03*
X0176561Y0135050D03*
X0167361Y0137250D03*
X0167361Y0137350D03*
X0167361Y0137450D03*
X0167361Y0137550D03*
X0167361Y0137650D03*
X0194061Y0138650D03*
X0194061Y0138750D03*
X0194061Y0138850D03*
X0194161Y0139050D03*
X0194161Y0139150D03*
X0194161Y0139250D03*
X0194161Y0139350D03*
X0194161Y0139450D03*
X0194161Y0139550D03*
X0194161Y0139650D03*
X0194161Y0139750D03*
X0194161Y0139850D03*
X0194161Y0139950D03*
X0194161Y0140050D03*
X0194161Y0140150D03*
X0194161Y0140250D03*
X0194161Y0140350D03*
X0194161Y0140450D03*
X0194161Y0140550D03*
X0194161Y0140650D03*
X0194061Y0140850D03*
X0194061Y0140950D03*
X0194061Y0141050D03*
X0193961Y0141350D03*
X0189661Y0153250D03*
X0189661Y0153350D03*
X0159561Y0166150D03*
X0184761Y0114650D03*
X0184761Y0114550D03*
X0191561Y0114550D03*
X0191561Y0114650D03*
X0191561Y0114450D03*
X0194161Y0112550D03*
X0194161Y0112450D03*
X0194261Y0112350D03*
X0194361Y0112150D03*
X0194461Y0112050D03*
X0196661Y0108950D03*
X0196661Y0107450D03*
X0196661Y0107350D03*
X0196661Y0107250D03*
X0196661Y0107150D03*
X0196661Y0107050D03*
X0196661Y0106950D03*
X0196661Y0106850D03*
X0196661Y0106750D03*
X0196661Y0106650D03*
X0199061Y0112250D03*
X0199161Y0112450D03*
X0199261Y0112550D03*
X0199261Y0112650D03*
X0199261Y0114850D03*
X0208661Y0109850D03*
X0208061Y0108350D03*
X0207761Y0107550D03*
X0207661Y0107250D03*
X0207561Y0106950D03*
X0203561Y0106950D03*
X0203561Y0107050D03*
X0203561Y0107150D03*
X0203561Y0107250D03*
X0203561Y0106850D03*
X0203561Y0106750D03*
X0203561Y0106650D03*
X0212661Y0109850D03*
X0213261Y0108250D03*
X0213361Y0108050D03*
X0213561Y0107550D03*
X0213561Y0107450D03*
X0213661Y0107250D03*
X0213661Y0107150D03*
X0213761Y0106950D03*
X0213861Y0106750D03*
X0219761Y0107150D03*
X0219761Y0107250D03*
X0219761Y0107350D03*
X0225861Y0107050D03*
X0228661Y0107050D03*
X0228661Y0106950D03*
X0228661Y0106850D03*
X0228661Y0106750D03*
X0228661Y0106650D03*
X0233361Y0106650D03*
X0233361Y0106750D03*
X0233361Y0106850D03*
X0233361Y0106950D03*
X0233361Y0107050D03*
X0233361Y0107150D03*
X0233361Y0107250D03*
X0233361Y0107350D03*
X0233361Y0107450D03*
X0233361Y0107550D03*
X0233361Y0107650D03*
X0233361Y0107750D03*
X0233361Y0107850D03*
X0228661Y0114550D03*
X0228661Y0114650D03*
X0228661Y0114750D03*
X0228661Y0114850D03*
X0228661Y0114950D03*
X0223061Y0114650D03*
X0223061Y0114550D03*
X0223061Y0114450D03*
X0216261Y0114550D03*
X0216261Y0114650D03*
X0188261Y0107250D03*
X0181961Y0107150D03*
X0181961Y0107050D03*
X0181961Y0106950D03*
X0181961Y0107850D03*
X0181961Y0107950D03*
X0177161Y0107050D03*
X0175161Y0111550D03*
X0164061Y0111550D03*
X0162061Y0107050D03*
X0162061Y0106950D03*
X0155061Y0106950D03*
X0155061Y0107050D03*
X0151061Y0107050D03*
X0151061Y0106950D03*
X0153061Y0111550D03*
X0153061Y0111650D03*
D33*
X0196711Y0110350D03*
X0190311Y0144550D03*
X0212111Y0155450D03*
X0219011Y0155250D03*
X0221911Y0153250D03*
X0194111Y0162150D03*
X0194111Y0162250D03*
X0194011Y0161950D03*
X0194011Y0161850D03*
X0189611Y0155850D03*
X0185111Y0162350D03*
X0185111Y0162450D03*
X0185111Y0162550D03*
X0171411Y0166250D03*
X0171411Y0156850D03*
X0204511Y0163950D03*
X0204511Y0164050D03*
X0219011Y0164150D03*
D34*
X0217361Y0162350D03*
X0217261Y0162150D03*
X0217161Y0161950D03*
X0217261Y0157250D03*
X0217261Y0157150D03*
X0217361Y0157050D03*
X0212761Y0153650D03*
X0203661Y0153650D03*
X0203661Y0153750D03*
X0203661Y0153850D03*
X0203661Y0153950D03*
X0203661Y0154050D03*
X0203661Y0154150D03*
X0203661Y0154250D03*
X0203661Y0154350D03*
X0203661Y0153550D03*
X0203661Y0153450D03*
X0199261Y0154950D03*
X0199261Y0155050D03*
X0199261Y0155150D03*
X0199261Y0155250D03*
X0199261Y0155350D03*
X0199261Y0155450D03*
X0199261Y0155550D03*
X0199261Y0155650D03*
X0199261Y0155750D03*
X0199261Y0155850D03*
X0199261Y0155950D03*
X0199261Y0156050D03*
X0199261Y0156150D03*
X0194861Y0155750D03*
X0194861Y0155650D03*
X0194861Y0155550D03*
X0194861Y0155450D03*
X0194861Y0155350D03*
X0194861Y0155250D03*
X0194861Y0155150D03*
X0194861Y0155050D03*
X0194861Y0154950D03*
X0194861Y0154850D03*
X0194861Y0154750D03*
X0194861Y0154650D03*
X0194861Y0154550D03*
X0194861Y0154450D03*
X0194861Y0154350D03*
X0194861Y0154250D03*
X0194861Y0154150D03*
X0194861Y0154050D03*
X0194861Y0153950D03*
X0194861Y0153850D03*
X0194861Y0153750D03*
X0194861Y0153650D03*
X0194861Y0153550D03*
X0194861Y0153450D03*
X0194861Y0153350D03*
X0189661Y0154150D03*
X0189661Y0154250D03*
X0179861Y0156750D03*
X0170761Y0156250D03*
X0170761Y0156150D03*
X0170761Y0156050D03*
X0170761Y0155950D03*
X0170761Y0154950D03*
X0170761Y0154850D03*
X0170761Y0154750D03*
X0170761Y0154650D03*
X0170761Y0154550D03*
X0170761Y0154450D03*
X0170761Y0154350D03*
X0163161Y0154650D03*
X0163161Y0154750D03*
X0163161Y0154850D03*
X0177061Y0143550D03*
X0187861Y0143050D03*
X0192761Y0143050D03*
X0192861Y0136750D03*
X0187761Y0136750D03*
X0183061Y0136250D03*
X0210661Y0113950D03*
X0216761Y0112650D03*
X0216761Y0112550D03*
X0219761Y0108250D03*
X0222661Y0112350D03*
X0222661Y0112450D03*
X0222661Y0112550D03*
X0191161Y0112550D03*
X0191061Y0112350D03*
X0191061Y0112250D03*
X0191061Y0112150D03*
X0188261Y0108250D03*
X0185261Y0112550D03*
X0185261Y0112650D03*
X0177161Y0107950D03*
X0177161Y0107850D03*
X0175161Y0110350D03*
X0175161Y0110450D03*
X0173061Y0107950D03*
X0173061Y0107850D03*
X0166161Y0107950D03*
X0162061Y0107950D03*
X0153061Y0110350D03*
X0153061Y0110450D03*
X0226461Y0156950D03*
X0226461Y0157050D03*
X0226561Y0157150D03*
X0226661Y0157450D03*
X0226561Y0162250D03*
X0226461Y0162350D03*
X0226461Y0162450D03*
X0212861Y0164650D03*
X0212861Y0164750D03*
X0212861Y0164850D03*
X0212861Y0164950D03*
X0212861Y0165050D03*
X0212861Y0165150D03*
X0212861Y0165250D03*
X0212861Y0165350D03*
X0212861Y0165450D03*
X0212861Y0165550D03*
X0212861Y0165650D03*
X0212861Y0165750D03*
X0212861Y0165850D03*
X0212861Y0165950D03*
X0203761Y0165950D03*
X0203761Y0165850D03*
X0199261Y0165050D03*
X0199261Y0164950D03*
X0199261Y0164850D03*
X0199261Y0164750D03*
X0199261Y0164650D03*
X0199261Y0164550D03*
X0199261Y0164450D03*
X0199261Y0164350D03*
X0199261Y0164250D03*
X0199261Y0164150D03*
X0199261Y0164050D03*
X0199261Y0163950D03*
X0199261Y0163850D03*
X0199261Y0163750D03*
X0199261Y0163650D03*
X0199261Y0163550D03*
X0199261Y0163450D03*
X0199261Y0163350D03*
X0199261Y0163250D03*
X0194861Y0165750D03*
X0194861Y0165850D03*
X0194861Y0165950D03*
X0184361Y0165650D03*
X0184361Y0165550D03*
D35*
X0184411Y0165450D03*
X0184411Y0165350D03*
X0194811Y0165450D03*
X0194811Y0165550D03*
X0194811Y0165650D03*
X0199311Y0165650D03*
X0199311Y0165750D03*
X0199311Y0165850D03*
X0199311Y0165950D03*
X0199311Y0166050D03*
X0199311Y0165550D03*
X0199311Y0165450D03*
X0199311Y0165350D03*
X0199311Y0165250D03*
X0199311Y0165150D03*
X0203811Y0165750D03*
X0206411Y0162150D03*
X0206511Y0162050D03*
X0207111Y0161250D03*
X0207211Y0161150D03*
X0207411Y0160850D03*
X0207511Y0160750D03*
X0208211Y0159850D03*
X0208411Y0159550D03*
X0208511Y0159350D03*
X0208611Y0159250D03*
X0209011Y0158750D03*
X0209311Y0158350D03*
X0209511Y0158050D03*
X0209611Y0157950D03*
X0210311Y0157050D03*
X0212711Y0153750D03*
X0217411Y0156950D03*
X0217511Y0156850D03*
X0217411Y0162450D03*
X0217511Y0162550D03*
X0217511Y0162650D03*
X0226211Y0162850D03*
X0226311Y0162650D03*
X0226411Y0162550D03*
X0226411Y0156850D03*
X0226311Y0156750D03*
X0199311Y0154850D03*
X0199311Y0154750D03*
X0199311Y0154650D03*
X0199311Y0154550D03*
X0199311Y0154450D03*
X0199311Y0154350D03*
X0199311Y0154250D03*
X0199311Y0154150D03*
X0199311Y0154050D03*
X0199311Y0153950D03*
X0199311Y0153850D03*
X0199311Y0153750D03*
X0199311Y0153650D03*
X0199311Y0153550D03*
X0199311Y0153450D03*
X0199311Y0153350D03*
X0190311Y0144750D03*
X0177111Y0143450D03*
X0177111Y0143350D03*
X0183011Y0136350D03*
X0187911Y0136650D03*
X0190311Y0134950D03*
X0192711Y0136650D03*
X0168011Y0136350D03*
X0163211Y0153450D03*
X0163211Y0153550D03*
X0163211Y0153650D03*
X0163211Y0153750D03*
X0163211Y0153850D03*
X0163211Y0153950D03*
X0163211Y0154050D03*
X0163211Y0154150D03*
X0163211Y0154250D03*
X0163211Y0154350D03*
X0163211Y0154450D03*
X0163211Y0154550D03*
X0170811Y0156350D03*
X0166511Y0164250D03*
X0171211Y0167250D03*
X0210711Y0113850D03*
X0210711Y0113750D03*
X0216811Y0112450D03*
X0216811Y0112350D03*
X0219711Y0108350D03*
X0222511Y0111850D03*
X0222511Y0111950D03*
X0222611Y0112150D03*
X0222611Y0112250D03*
X0196711Y0109550D03*
X0191011Y0111850D03*
X0191011Y0111950D03*
X0191011Y0112050D03*
X0188211Y0108450D03*
X0188211Y0108350D03*
X0185311Y0112250D03*
X0185311Y0112350D03*
X0185311Y0112450D03*
X0177211Y0108050D03*
X0175111Y0110250D03*
X0173011Y0108050D03*
X0166111Y0108050D03*
X0164111Y0110150D03*
X0164111Y0110250D03*
X0164111Y0110350D03*
X0162011Y0108050D03*
X0155111Y0108050D03*
X0155111Y0107950D03*
X0153111Y0110250D03*
X0151011Y0108050D03*
X0151011Y0107950D03*
D36*
X0151061Y0107450D03*
X0155061Y0107450D03*
X0153061Y0110950D03*
X0153061Y0111050D03*
X0162061Y0107550D03*
X0162061Y0107450D03*
X0164061Y0110950D03*
X0166161Y0107450D03*
X0173061Y0107450D03*
X0173061Y0107550D03*
X0175161Y0110950D03*
X0177161Y0107450D03*
X0188261Y0107750D03*
X0191361Y0113450D03*
X0191361Y0113550D03*
X0191361Y0113650D03*
X0184961Y0113650D03*
X0184961Y0113750D03*
X0210761Y0114450D03*
X0216461Y0113850D03*
X0216461Y0113750D03*
X0216461Y0113650D03*
X0216561Y0113550D03*
X0216561Y0113450D03*
X0222861Y0113450D03*
X0222861Y0113550D03*
X0219761Y0107750D03*
X0219761Y0107650D03*
X0193261Y0137150D03*
X0193361Y0137250D03*
X0187361Y0137150D03*
X0187261Y0137250D03*
X0183261Y0135750D03*
X0183261Y0135650D03*
X0173061Y0136650D03*
X0172961Y0136550D03*
X0178861Y0141450D03*
X0178561Y0141850D03*
X0176761Y0144150D03*
X0176761Y0144250D03*
X0187261Y0142450D03*
X0187361Y0142550D03*
X0193261Y0142550D03*
X0193361Y0142450D03*
X0212861Y0153350D03*
X0212861Y0157050D03*
X0212861Y0157150D03*
X0212861Y0157250D03*
X0212861Y0157350D03*
X0212861Y0157450D03*
X0212861Y0157550D03*
X0212861Y0157650D03*
X0212861Y0157750D03*
X0212861Y0157850D03*
X0212861Y0157950D03*
X0212861Y0158050D03*
X0212861Y0158150D03*
X0212861Y0158250D03*
X0212861Y0158350D03*
X0212861Y0158450D03*
X0212861Y0158550D03*
X0212861Y0158650D03*
X0212861Y0158750D03*
X0212861Y0158850D03*
X0212861Y0158950D03*
X0212861Y0159050D03*
X0212861Y0159150D03*
X0212861Y0159250D03*
X0212861Y0159350D03*
X0212861Y0159450D03*
X0212861Y0159550D03*
X0212861Y0159650D03*
X0212861Y0159750D03*
X0212861Y0159850D03*
X0212861Y0159950D03*
X0212861Y0160050D03*
X0212861Y0160150D03*
X0212861Y0160250D03*
X0212861Y0160350D03*
X0212861Y0160450D03*
X0212861Y0160550D03*
X0212861Y0160650D03*
X0212861Y0160750D03*
X0203761Y0160750D03*
X0203761Y0160850D03*
X0203761Y0160950D03*
X0203761Y0161050D03*
X0203761Y0161150D03*
X0203761Y0161250D03*
X0203761Y0160650D03*
X0203761Y0160550D03*
X0203761Y0160450D03*
X0203761Y0160350D03*
X0203761Y0160250D03*
X0203761Y0160150D03*
X0203761Y0160050D03*
X0203761Y0159950D03*
X0203761Y0159850D03*
X0203761Y0159750D03*
X0203761Y0159650D03*
X0203761Y0159550D03*
X0203761Y0159450D03*
X0203761Y0159350D03*
X0203761Y0159250D03*
X0203761Y0159150D03*
X0203761Y0159050D03*
X0203761Y0158950D03*
X0203761Y0158850D03*
X0203761Y0158750D03*
X0203761Y0158650D03*
X0203761Y0158550D03*
X0203761Y0158450D03*
X0203761Y0158350D03*
X0188661Y0156250D03*
X0188561Y0156450D03*
X0188461Y0156650D03*
X0188361Y0156850D03*
X0188261Y0157050D03*
X0188161Y0157250D03*
X0188161Y0157350D03*
X0188061Y0157550D03*
X0187961Y0157750D03*
X0187961Y0157850D03*
X0187861Y0158050D03*
X0187761Y0158250D03*
X0187661Y0158550D03*
X0187561Y0158750D03*
X0187461Y0159050D03*
X0187361Y0159150D03*
X0187261Y0159350D03*
X0187161Y0159650D03*
X0187061Y0159850D03*
X0186961Y0160150D03*
X0186861Y0160350D03*
X0186761Y0160550D03*
X0186761Y0160650D03*
X0184361Y0160650D03*
X0184361Y0160750D03*
X0184361Y0160550D03*
X0184361Y0160450D03*
X0184361Y0160350D03*
X0184361Y0160250D03*
X0184361Y0160150D03*
X0184361Y0160050D03*
X0184361Y0159950D03*
X0184361Y0159850D03*
X0184361Y0159750D03*
X0184361Y0159650D03*
X0179761Y0156650D03*
X0171361Y0167350D03*
X0194861Y0166150D03*
D37*
X0204911Y0162950D03*
X0211711Y0156450D03*
X0221911Y0153350D03*
X0190311Y0144350D03*
X0171811Y0157150D03*
X0171811Y0165450D03*
D38*
X0221911Y0153450D03*
D39*
X0221911Y0153550D03*
X0221911Y0165850D03*
X0176811Y0159450D03*
X0190311Y0144050D03*
X0190311Y0135650D03*
D40*
X0190311Y0135850D03*
X0190311Y0143850D03*
X0221911Y0153650D03*
X0221911Y0165750D03*
X0172411Y0157650D03*
D41*
X0170611Y0159650D03*
X0170611Y0159750D03*
X0170611Y0159850D03*
X0170611Y0159950D03*
X0170611Y0160050D03*
X0170611Y0160150D03*
X0170611Y0160250D03*
X0170611Y0160350D03*
X0170611Y0160450D03*
X0170611Y0160550D03*
X0170611Y0160650D03*
X0170611Y0160750D03*
X0170611Y0160850D03*
X0170611Y0160950D03*
X0170611Y0161050D03*
X0170611Y0161150D03*
X0170611Y0161250D03*
X0170611Y0161350D03*
X0170611Y0161450D03*
X0170611Y0161550D03*
X0170611Y0161650D03*
X0170611Y0161750D03*
X0170611Y0161850D03*
X0170611Y0161950D03*
X0170611Y0162050D03*
X0170611Y0162150D03*
X0170611Y0162250D03*
X0170611Y0162350D03*
X0170611Y0162450D03*
X0170611Y0162550D03*
X0170611Y0162650D03*
X0170611Y0162750D03*
X0170611Y0162850D03*
X0170611Y0162950D03*
X0170611Y0163050D03*
X0170611Y0163150D03*
X0170611Y0163250D03*
X0170611Y0163350D03*
X0170611Y0163450D03*
X0170611Y0163550D03*
X0170611Y0163650D03*
X0170611Y0163750D03*
X0170611Y0163850D03*
X0170611Y0163950D03*
X0170611Y0164050D03*
X0170611Y0164150D03*
X0170611Y0164250D03*
X0170611Y0164350D03*
X0170611Y0164450D03*
X0170611Y0164550D03*
X0163211Y0162250D03*
X0163211Y0162150D03*
X0163211Y0162050D03*
X0163211Y0161950D03*
X0163211Y0161850D03*
X0163211Y0161750D03*
X0163211Y0161650D03*
X0163211Y0161550D03*
X0163211Y0161450D03*
X0163211Y0161350D03*
X0163211Y0161250D03*
X0163211Y0161150D03*
X0163211Y0161050D03*
X0163211Y0160950D03*
X0163211Y0160850D03*
X0163211Y0160750D03*
X0163211Y0160650D03*
X0163211Y0160550D03*
X0163211Y0160450D03*
X0163211Y0160350D03*
X0163211Y0160250D03*
X0163211Y0160150D03*
X0163211Y0160050D03*
X0163211Y0159950D03*
X0163211Y0159850D03*
X0163211Y0159750D03*
X0163211Y0159650D03*
X0163211Y0159550D03*
X0163211Y0159450D03*
X0163211Y0159350D03*
X0163211Y0159250D03*
X0163211Y0159150D03*
X0163211Y0159050D03*
X0163211Y0158950D03*
X0163211Y0158850D03*
X0163211Y0158750D03*
X0163211Y0158650D03*
X0163211Y0158550D03*
X0163211Y0158450D03*
X0163211Y0158350D03*
X0163211Y0158250D03*
X0163211Y0158150D03*
X0163211Y0158050D03*
X0163211Y0157950D03*
X0163211Y0157850D03*
X0184411Y0157850D03*
X0184411Y0157950D03*
X0184411Y0158050D03*
X0184411Y0158150D03*
X0184411Y0158250D03*
X0184411Y0158350D03*
X0184411Y0158450D03*
X0184411Y0158550D03*
X0184411Y0158650D03*
X0184411Y0158750D03*
X0184411Y0158850D03*
X0184411Y0158950D03*
X0184411Y0159050D03*
X0184411Y0159150D03*
X0184411Y0159250D03*
X0184411Y0159350D03*
X0184411Y0159450D03*
X0184411Y0159550D03*
X0186811Y0160450D03*
X0186911Y0160250D03*
X0187011Y0160050D03*
X0187011Y0159950D03*
X0187111Y0159750D03*
X0187211Y0159550D03*
X0187211Y0159450D03*
X0187311Y0159250D03*
X0187511Y0158950D03*
X0187511Y0158850D03*
X0187611Y0158650D03*
X0187711Y0158450D03*
X0187711Y0158350D03*
X0187811Y0158150D03*
X0187911Y0157950D03*
X0188011Y0157650D03*
X0188111Y0157450D03*
X0188211Y0157150D03*
X0188311Y0156950D03*
X0188411Y0156750D03*
X0188611Y0156350D03*
X0189711Y0153850D03*
X0189711Y0153750D03*
X0194811Y0157950D03*
X0194811Y0158050D03*
X0194811Y0158150D03*
X0194811Y0158250D03*
X0194811Y0158350D03*
X0194811Y0158450D03*
X0194811Y0158550D03*
X0194811Y0158650D03*
X0194811Y0158750D03*
X0194811Y0158850D03*
X0194811Y0158950D03*
X0194811Y0159050D03*
X0194811Y0159150D03*
X0194811Y0159250D03*
X0194811Y0159350D03*
X0194811Y0159450D03*
X0194811Y0159550D03*
X0194811Y0159650D03*
X0194811Y0159750D03*
X0194811Y0159850D03*
X0194811Y0159950D03*
X0194811Y0160050D03*
X0194811Y0160150D03*
X0194811Y0160250D03*
X0194811Y0160350D03*
X0194811Y0160450D03*
X0194811Y0160550D03*
X0194811Y0160650D03*
X0199311Y0160450D03*
X0199311Y0160350D03*
X0199311Y0160250D03*
X0199311Y0160150D03*
X0199311Y0160050D03*
X0199311Y0159950D03*
X0199311Y0159850D03*
X0199311Y0159750D03*
X0199311Y0159650D03*
X0199311Y0159550D03*
X0199311Y0159450D03*
X0199311Y0159350D03*
X0199311Y0159250D03*
X0199311Y0159150D03*
X0199311Y0159050D03*
X0203711Y0158250D03*
X0203711Y0158150D03*
X0203711Y0158050D03*
X0203711Y0157950D03*
X0203711Y0157850D03*
X0203711Y0157750D03*
X0203711Y0157650D03*
X0203711Y0157550D03*
X0203711Y0157450D03*
X0203711Y0157350D03*
X0203711Y0157250D03*
X0203711Y0157150D03*
X0203711Y0157050D03*
X0203711Y0156950D03*
X0203711Y0156850D03*
X0203711Y0156750D03*
X0203711Y0156650D03*
X0203711Y0156550D03*
X0203711Y0156450D03*
X0203711Y0156350D03*
X0203711Y0156250D03*
X0203711Y0156150D03*
X0203711Y0156050D03*
X0203711Y0155950D03*
X0203711Y0155850D03*
X0203711Y0161350D03*
X0203711Y0161450D03*
X0203711Y0161550D03*
X0203711Y0161650D03*
X0203711Y0161750D03*
X0203711Y0161850D03*
X0203711Y0161950D03*
X0203711Y0162050D03*
X0203711Y0162150D03*
X0203711Y0162250D03*
X0203711Y0162350D03*
X0212911Y0161150D03*
X0212911Y0161050D03*
X0212911Y0160950D03*
X0212911Y0160850D03*
X0216811Y0160550D03*
X0216811Y0160450D03*
X0216811Y0160350D03*
X0216811Y0159050D03*
X0216811Y0158950D03*
X0216811Y0158850D03*
X0227011Y0158850D03*
X0227011Y0158750D03*
X0227011Y0158650D03*
X0227111Y0159550D03*
X0227111Y0159650D03*
X0227111Y0159750D03*
X0227111Y0159850D03*
X0227111Y0159950D03*
X0227011Y0160550D03*
X0227011Y0160650D03*
X0227011Y0160750D03*
X0186711Y0160750D03*
X0187511Y0142750D03*
X0187411Y0142650D03*
X0193111Y0142750D03*
X0193211Y0142650D03*
X0176811Y0144050D03*
X0183211Y0135850D03*
X0187411Y0137050D03*
X0193211Y0137050D03*
X0167711Y0136550D03*
X0185011Y0113550D03*
X0185011Y0113450D03*
X0191311Y0113350D03*
X0191311Y0113250D03*
X0191311Y0113150D03*
X0175111Y0110850D03*
X0175111Y0110750D03*
X0177111Y0107550D03*
X0166111Y0107550D03*
X0166111Y0107650D03*
X0164111Y0110750D03*
X0164111Y0110850D03*
X0155111Y0107650D03*
X0155111Y0107550D03*
X0153111Y0110850D03*
X0151011Y0107650D03*
X0151011Y0107550D03*
X0188211Y0107850D03*
X0188211Y0107950D03*
X0196711Y0109250D03*
X0210711Y0114250D03*
X0210711Y0114350D03*
X0216611Y0113350D03*
X0216611Y0113250D03*
X0222811Y0113250D03*
X0222811Y0113350D03*
X0222811Y0113150D03*
X0219711Y0107850D03*
D42*
X0233311Y0113850D03*
X0233311Y0113950D03*
X0203511Y0113950D03*
X0203511Y0114050D03*
X0203511Y0113850D03*
X0190311Y0143750D03*
X0221911Y0153750D03*
D43*
X0226161Y0156550D03*
X0226261Y0156650D03*
X0217661Y0156550D03*
X0217561Y0156650D03*
X0217561Y0156750D03*
X0212661Y0153950D03*
X0212661Y0153850D03*
X0210161Y0157150D03*
X0210161Y0157250D03*
X0210061Y0157350D03*
X0209961Y0157450D03*
X0209961Y0157550D03*
X0209861Y0157650D03*
X0209761Y0157750D03*
X0209661Y0157850D03*
X0209461Y0158150D03*
X0209361Y0158250D03*
X0209161Y0158450D03*
X0209161Y0158550D03*
X0209061Y0158650D03*
X0208961Y0158850D03*
X0208861Y0158950D03*
X0208761Y0159050D03*
X0208661Y0159150D03*
X0208461Y0159450D03*
X0208361Y0159650D03*
X0208261Y0159750D03*
X0208061Y0159950D03*
X0208061Y0160050D03*
X0207961Y0160150D03*
X0207861Y0160250D03*
X0207761Y0160350D03*
X0207761Y0160450D03*
X0207661Y0160550D03*
X0207561Y0160650D03*
X0207361Y0160950D03*
X0207261Y0161050D03*
X0207061Y0161350D03*
X0206961Y0161450D03*
X0206861Y0161550D03*
X0206761Y0161650D03*
X0206761Y0161750D03*
X0206661Y0161850D03*
X0206561Y0161950D03*
X0206361Y0162250D03*
X0206261Y0162350D03*
X0203861Y0165550D03*
X0203861Y0165650D03*
X0194761Y0165350D03*
X0194761Y0165250D03*
X0184461Y0165250D03*
X0184461Y0165150D03*
X0170861Y0156450D03*
X0189661Y0154450D03*
X0189661Y0154350D03*
X0188061Y0143150D03*
X0192561Y0143150D03*
X0177161Y0143250D03*
X0172661Y0136350D03*
X0182961Y0136450D03*
X0182961Y0136550D03*
X0188061Y0136550D03*
X0185361Y0112150D03*
X0185361Y0112050D03*
X0190961Y0111750D03*
X0190961Y0111650D03*
X0177161Y0108150D03*
X0175161Y0110050D03*
X0175161Y0110150D03*
X0173061Y0108150D03*
X0166161Y0108150D03*
X0162061Y0108150D03*
X0155161Y0108150D03*
X0153061Y0110050D03*
X0153061Y0110150D03*
X0150961Y0108150D03*
X0216861Y0112150D03*
X0216861Y0112250D03*
X0219761Y0108450D03*
X0222461Y0111550D03*
X0222461Y0111650D03*
X0222461Y0111750D03*
X0222561Y0112050D03*
X0226261Y0162750D03*
X0226161Y0162950D03*
X0226061Y0163050D03*
X0217961Y0163250D03*
X0217761Y0163050D03*
X0217661Y0162950D03*
X0217661Y0162850D03*
X0217561Y0162750D03*
D44*
X0221961Y0165550D03*
X0221961Y0153850D03*
X0176561Y0159150D03*
X0170261Y0135650D03*
X0190261Y0136150D03*
X0210661Y0108850D03*
X0210661Y0108750D03*
X0210661Y0108650D03*
D45*
X0190311Y0136350D03*
X0190311Y0143350D03*
X0170311Y0135850D03*
X0221911Y0153950D03*
X0221911Y0165450D03*
X0176511Y0159050D03*
X0172911Y0158050D03*
D46*
X0173111Y0158150D03*
X0176411Y0158950D03*
X0221911Y0154050D03*
X0170311Y0136250D03*
X0170311Y0136150D03*
D47*
X0182861Y0136750D03*
X0177261Y0142950D03*
X0177261Y0143050D03*
X0189661Y0154650D03*
X0189661Y0154750D03*
X0179961Y0156850D03*
X0184561Y0164650D03*
X0184561Y0164750D03*
X0194661Y0164750D03*
X0194661Y0164850D03*
X0194661Y0164650D03*
X0203961Y0165350D03*
X0225761Y0163450D03*
X0225761Y0155950D03*
X0212561Y0154150D03*
X0210661Y0113450D03*
X0216961Y0111750D03*
X0216961Y0111650D03*
X0196661Y0109750D03*
X0185461Y0111650D03*
X0185461Y0111750D03*
X0177161Y0108350D03*
X0173061Y0108350D03*
X0166161Y0108350D03*
X0166161Y0108450D03*
X0150961Y0108350D03*
D48*
X0221911Y0154150D03*
X0221911Y0165250D03*
X0173211Y0158250D03*
D49*
X0171011Y0156550D03*
X0175011Y0162750D03*
X0174011Y0163850D03*
X0173911Y0163950D03*
X0171111Y0167050D03*
X0171111Y0167150D03*
X0184611Y0164550D03*
X0184611Y0164450D03*
X0184611Y0164350D03*
X0194611Y0164350D03*
X0194611Y0164450D03*
X0194611Y0164550D03*
X0204011Y0165150D03*
X0204011Y0165250D03*
X0218211Y0163550D03*
X0225511Y0163650D03*
X0225611Y0163550D03*
X0225611Y0155850D03*
X0218211Y0155850D03*
X0218111Y0155950D03*
X0212511Y0154350D03*
X0212511Y0154250D03*
X0192311Y0143250D03*
X0188311Y0143250D03*
X0177311Y0142850D03*
X0182811Y0136950D03*
X0182811Y0136850D03*
X0210711Y0113350D03*
X0210711Y0113250D03*
X0217011Y0111550D03*
X0196711Y0109850D03*
X0185511Y0111550D03*
X0177211Y0108450D03*
X0162011Y0108450D03*
X0155111Y0108450D03*
D50*
X0221911Y0154250D03*
X0221911Y0165150D03*
X0176311Y0158850D03*
D51*
X0221911Y0154350D03*
X0221911Y0165050D03*
D52*
X0218461Y0163750D03*
X0218361Y0163650D03*
X0204061Y0165050D03*
X0194561Y0164250D03*
X0194561Y0164150D03*
X0184661Y0164150D03*
X0184661Y0164250D03*
X0177061Y0160450D03*
X0176961Y0160550D03*
X0176861Y0160750D03*
X0176761Y0160850D03*
X0176661Y0160950D03*
X0176561Y0161050D03*
X0176461Y0161150D03*
X0176361Y0161250D03*
X0176261Y0161350D03*
X0176161Y0161450D03*
X0176061Y0161550D03*
X0175961Y0161650D03*
X0175761Y0161950D03*
X0175661Y0162050D03*
X0175561Y0162150D03*
X0175461Y0162250D03*
X0175361Y0162350D03*
X0175261Y0162450D03*
X0175161Y0162550D03*
X0175061Y0162650D03*
X0174761Y0163050D03*
X0174661Y0163150D03*
X0174561Y0163250D03*
X0174461Y0163350D03*
X0174361Y0163450D03*
X0174261Y0163550D03*
X0174161Y0163650D03*
X0174061Y0163750D03*
X0173761Y0164150D03*
X0173661Y0164250D03*
X0173561Y0164350D03*
X0173461Y0164450D03*
X0173361Y0164550D03*
X0159961Y0164250D03*
X0189661Y0154950D03*
X0189661Y0154850D03*
X0212461Y0154450D03*
X0218361Y0155750D03*
X0225461Y0155750D03*
X0177361Y0142750D03*
X0182761Y0137050D03*
X0188361Y0136450D03*
X0192261Y0136450D03*
D53*
X0221911Y0154450D03*
X0221911Y0164950D03*
D54*
X0221911Y0164850D03*
X0221911Y0154550D03*
D55*
X0225261Y0155550D03*
X0218561Y0155550D03*
X0212361Y0154750D03*
X0212361Y0154650D03*
X0189661Y0155150D03*
X0189661Y0155250D03*
X0180061Y0157050D03*
X0179961Y0157150D03*
X0179861Y0157250D03*
X0179761Y0157450D03*
X0179661Y0157550D03*
X0179561Y0157650D03*
X0179261Y0157950D03*
X0179161Y0158050D03*
X0179061Y0158150D03*
X0177161Y0160250D03*
X0171161Y0156650D03*
X0184861Y0163550D03*
X0184861Y0163650D03*
X0184761Y0163950D03*
X0194361Y0163550D03*
X0194361Y0163450D03*
X0194461Y0163750D03*
X0204261Y0164650D03*
X0218661Y0163950D03*
X0225161Y0163950D03*
X0177461Y0142450D03*
X0182661Y0137350D03*
X0182661Y0137250D03*
X0171161Y0166850D03*
D56*
X0221911Y0164750D03*
X0221911Y0154650D03*
D57*
X0221961Y0154750D03*
D58*
X0225111Y0155450D03*
X0218711Y0155450D03*
X0212311Y0154850D03*
X0189611Y0155350D03*
X0178911Y0158250D03*
X0184911Y0163350D03*
X0184911Y0163450D03*
X0194311Y0163350D03*
X0194311Y0163250D03*
X0194311Y0163150D03*
X0204311Y0164550D03*
X0218811Y0164050D03*
X0171211Y0166750D03*
X0177511Y0142350D03*
X0182611Y0137450D03*
X0196711Y0110050D03*
D59*
X0221961Y0154850D03*
D60*
X0212261Y0154950D03*
X0189661Y0155450D03*
X0189661Y0155550D03*
X0177161Y0160150D03*
X0171261Y0156750D03*
X0184961Y0163150D03*
X0184961Y0163250D03*
X0194261Y0163050D03*
X0194261Y0162950D03*
X0204361Y0164350D03*
X0204361Y0164450D03*
X0225061Y0164050D03*
X0177561Y0142250D03*
X0177561Y0142150D03*
X0182561Y0137550D03*
X0170261Y0134950D03*
X0196661Y0110150D03*
X0171261Y0166650D03*
D61*
X0221911Y0164450D03*
X0221911Y0154950D03*
D62*
X0224911Y0155350D03*
X0218911Y0155350D03*
X0212211Y0155150D03*
X0212211Y0155050D03*
X0204411Y0164250D03*
X0194211Y0162850D03*
X0194211Y0162750D03*
X0194211Y0162650D03*
X0194211Y0162550D03*
X0185011Y0162850D03*
X0185011Y0162950D03*
X0185011Y0163050D03*
X0171311Y0166550D03*
X0221911Y0166250D03*
X0177611Y0142050D03*
X0182511Y0137750D03*
X0182511Y0137650D03*
X0190311Y0135150D03*
X0196711Y0110250D03*
D63*
X0221911Y0155050D03*
X0221911Y0164350D03*
X0163211Y0165050D03*
X0163211Y0165150D03*
X0163211Y0165250D03*
X0163211Y0165350D03*
X0163211Y0165450D03*
X0163211Y0165550D03*
D64*
X0171561Y0166050D03*
X0171561Y0156950D03*
X0185261Y0161650D03*
X0185261Y0161750D03*
X0185261Y0161850D03*
X0189661Y0156150D03*
X0193861Y0160950D03*
X0193861Y0161050D03*
X0193861Y0161150D03*
X0204661Y0163550D03*
X0219261Y0164250D03*
X0224561Y0164250D03*
X0211961Y0155750D03*
X0219261Y0155150D03*
X0224561Y0155150D03*
X0190261Y0135250D03*
D65*
X0177661Y0141950D03*
X0212161Y0155250D03*
X0212161Y0155350D03*
X0224861Y0155250D03*
X0224861Y0164150D03*
X0204461Y0164150D03*
X0194161Y0162450D03*
X0194161Y0162350D03*
X0194061Y0162050D03*
X0189661Y0155750D03*
X0189661Y0155650D03*
X0177161Y0160050D03*
X0185061Y0162650D03*
X0185061Y0162750D03*
X0171361Y0166350D03*
X0171361Y0166450D03*
D66*
X0165861Y0166050D03*
X0177161Y0159950D03*
X0185161Y0162150D03*
X0185161Y0162250D03*
X0189661Y0155950D03*
X0193961Y0161550D03*
X0193961Y0161650D03*
X0193961Y0161750D03*
X0204561Y0163750D03*
X0204561Y0163850D03*
X0212061Y0155550D03*
D67*
X0212011Y0155650D03*
X0193911Y0161250D03*
X0193911Y0161350D03*
X0193911Y0161450D03*
X0189611Y0156050D03*
X0185211Y0161950D03*
X0185211Y0162050D03*
X0171511Y0166150D03*
X0160711Y0166050D03*
X0204611Y0163650D03*
D68*
X0204711Y0163450D03*
X0221911Y0166150D03*
X0211911Y0155950D03*
X0211911Y0155850D03*
X0193811Y0160850D03*
X0185311Y0161550D03*
X0177111Y0159850D03*
X0171611Y0165850D03*
X0171611Y0165950D03*
X0190311Y0144450D03*
D69*
X0170261Y0135050D03*
X0171661Y0157050D03*
X0171661Y0165750D03*
X0185361Y0161450D03*
X0185361Y0161350D03*
X0185461Y0161250D03*
X0185461Y0161150D03*
X0185461Y0161050D03*
X0193761Y0160750D03*
X0204761Y0163350D03*
X0211861Y0156050D03*
D70*
X0211811Y0156150D03*
X0204811Y0163150D03*
X0204811Y0163250D03*
X0185511Y0160950D03*
X0185511Y0160850D03*
X0171711Y0165650D03*
X0190311Y0135350D03*
D71*
X0190961Y0133250D03*
X0167661Y0146850D03*
X0179561Y0156250D03*
X0184761Y0166250D03*
X0200061Y0166150D03*
X0171561Y0167650D03*
X0206061Y0115050D03*
X0222861Y0115050D03*
X0225861Y0108350D03*
X0235961Y0115050D03*
X0181961Y0108350D03*
D72*
X0181961Y0107750D03*
X0181961Y0107650D03*
X0181961Y0107550D03*
X0181961Y0107450D03*
X0181961Y0107350D03*
X0181961Y0107250D03*
X0177161Y0107250D03*
X0173061Y0107250D03*
X0175161Y0111250D03*
X0184861Y0114050D03*
X0184861Y0114150D03*
X0184861Y0114250D03*
X0191461Y0114150D03*
X0191461Y0114050D03*
X0191461Y0113950D03*
X0194961Y0111350D03*
X0195061Y0111250D03*
X0195261Y0110950D03*
X0195361Y0110850D03*
X0195461Y0110750D03*
X0195661Y0110450D03*
X0197861Y0110650D03*
X0197961Y0110750D03*
X0198061Y0110850D03*
X0198161Y0110950D03*
X0198161Y0111050D03*
X0198261Y0111150D03*
X0198361Y0111250D03*
X0198461Y0111350D03*
X0198561Y0111550D03*
X0198661Y0111650D03*
X0198861Y0111950D03*
X0188261Y0107550D03*
X0188261Y0107450D03*
X0164061Y0111250D03*
X0162061Y0107250D03*
X0162061Y0107150D03*
X0155061Y0107250D03*
X0151061Y0107250D03*
X0153061Y0111250D03*
X0153061Y0111350D03*
X0167561Y0136750D03*
X0167461Y0136850D03*
X0167461Y0136950D03*
X0173161Y0136850D03*
X0180761Y0138950D03*
X0181061Y0138550D03*
X0181361Y0138150D03*
X0183361Y0135450D03*
X0186861Y0137850D03*
X0186861Y0137950D03*
X0186961Y0137750D03*
X0187061Y0137550D03*
X0186761Y0138150D03*
X0186861Y0141750D03*
X0186861Y0141850D03*
X0186961Y0141950D03*
X0187061Y0142150D03*
X0193561Y0142150D03*
X0193661Y0141950D03*
X0193761Y0141850D03*
X0193761Y0141750D03*
X0193861Y0138150D03*
X0193761Y0137950D03*
X0193761Y0137850D03*
X0193661Y0137750D03*
X0176661Y0144450D03*
X0176661Y0144550D03*
X0173361Y0144550D03*
X0173361Y0144450D03*
X0173361Y0144350D03*
X0173361Y0144250D03*
X0173361Y0144150D03*
X0173361Y0144050D03*
X0173361Y0143950D03*
X0173361Y0143850D03*
X0173361Y0143750D03*
X0173361Y0143650D03*
X0173361Y0143550D03*
X0173361Y0143450D03*
X0173361Y0143350D03*
X0173361Y0143250D03*
X0173361Y0143150D03*
X0173361Y0143050D03*
X0173361Y0142950D03*
X0167261Y0144150D03*
X0167261Y0144250D03*
X0167261Y0144350D03*
X0167261Y0144450D03*
X0167261Y0144550D03*
X0190761Y0156250D03*
X0190861Y0156450D03*
X0190861Y0156550D03*
X0190961Y0156650D03*
X0190961Y0156750D03*
X0191061Y0156850D03*
X0191061Y0156950D03*
X0191161Y0157050D03*
X0191161Y0157150D03*
X0191161Y0157250D03*
X0191261Y0157350D03*
X0191261Y0157450D03*
X0191261Y0157550D03*
X0191361Y0157650D03*
X0191361Y0157750D03*
X0191461Y0157850D03*
X0191461Y0157950D03*
X0191561Y0158150D03*
X0191661Y0158350D03*
X0191761Y0158650D03*
X0191861Y0158950D03*
X0191961Y0159050D03*
X0191961Y0159150D03*
X0192061Y0159250D03*
X0192061Y0159350D03*
X0192061Y0159450D03*
X0192161Y0159550D03*
X0192161Y0159650D03*
X0192261Y0159850D03*
X0192261Y0159950D03*
X0192361Y0160050D03*
X0192361Y0160150D03*
X0192461Y0160350D03*
X0192561Y0160550D03*
X0192561Y0160650D03*
X0216361Y0114250D03*
X0216361Y0114150D03*
X0222961Y0114050D03*
X0222961Y0113950D03*
X0219761Y0107550D03*
X0219761Y0107450D03*
D73*
X0211761Y0156250D03*
X0211761Y0156350D03*
X0204861Y0163050D03*
X0177061Y0159750D03*
X0171761Y0165550D03*
D74*
X0179661Y0156450D03*
X0190061Y0111250D03*
X0189961Y0111050D03*
X0189961Y0110950D03*
X0189861Y0110750D03*
X0189761Y0110550D03*
X0189661Y0110250D03*
X0189561Y0110050D03*
X0189461Y0109750D03*
X0189361Y0109550D03*
X0189261Y0109250D03*
X0189161Y0109050D03*
X0189061Y0108850D03*
X0189061Y0108750D03*
X0188961Y0108650D03*
X0188261Y0106850D03*
X0188261Y0106750D03*
X0181961Y0106750D03*
X0181961Y0108150D03*
X0174361Y0109750D03*
X0174361Y0109850D03*
X0174261Y0109550D03*
X0174261Y0109450D03*
X0174161Y0109250D03*
X0174061Y0109050D03*
X0174061Y0108950D03*
X0173961Y0108750D03*
X0173961Y0108650D03*
X0173861Y0108550D03*
X0173861Y0108450D03*
X0163361Y0109850D03*
X0163261Y0109650D03*
X0163261Y0109550D03*
X0163161Y0109350D03*
X0163161Y0109250D03*
X0163061Y0109050D03*
X0162961Y0108850D03*
X0162961Y0108750D03*
X0162861Y0108550D03*
X0162061Y0106650D03*
X0155061Y0106650D03*
X0151861Y0108550D03*
X0151861Y0108650D03*
X0151961Y0108850D03*
X0151961Y0108950D03*
X0152061Y0109150D03*
X0152161Y0109350D03*
X0152161Y0109450D03*
X0152261Y0109650D03*
X0151761Y0108450D03*
X0151061Y0106650D03*
X0219761Y0106750D03*
X0219761Y0106850D03*
X0220561Y0108750D03*
X0220661Y0108950D03*
X0220661Y0109050D03*
X0220761Y0109250D03*
X0220861Y0109450D03*
X0220961Y0109750D03*
X0221061Y0109950D03*
X0221161Y0110250D03*
X0221261Y0110450D03*
X0221361Y0110750D03*
X0221461Y0110950D03*
X0221561Y0111150D03*
X0221561Y0111250D03*
X0221661Y0111450D03*
X0225861Y0106750D03*
D75*
X0225911Y0106950D03*
X0225911Y0107950D03*
X0225911Y0108050D03*
X0228711Y0108050D03*
X0228711Y0108150D03*
X0228711Y0108250D03*
X0228711Y0108350D03*
X0228711Y0108450D03*
X0228711Y0108550D03*
X0228711Y0108650D03*
X0228711Y0108750D03*
X0228711Y0107950D03*
X0228711Y0107850D03*
X0228711Y0107750D03*
X0228711Y0107650D03*
X0228711Y0107550D03*
X0228711Y0107450D03*
X0228711Y0107350D03*
X0228711Y0107250D03*
X0228711Y0107150D03*
X0233411Y0107950D03*
X0233411Y0108050D03*
X0233411Y0108150D03*
X0233411Y0108250D03*
X0233411Y0108350D03*
X0233411Y0108450D03*
X0233411Y0108550D03*
X0233411Y0108650D03*
X0233411Y0108750D03*
X0228711Y0112950D03*
X0228711Y0113050D03*
X0228711Y0113150D03*
X0228711Y0113250D03*
X0228711Y0113350D03*
X0228711Y0113450D03*
X0228711Y0113550D03*
X0228711Y0113650D03*
X0228711Y0113750D03*
X0228711Y0113850D03*
X0228711Y0113950D03*
X0228711Y0114050D03*
X0228711Y0114150D03*
X0228711Y0114250D03*
X0228711Y0114350D03*
X0228711Y0114450D03*
X0223111Y0114750D03*
X0223111Y0114850D03*
X0216211Y0114850D03*
X0216211Y0114950D03*
X0216211Y0114750D03*
X0211611Y0112850D03*
X0211611Y0112750D03*
X0211711Y0112550D03*
X0211811Y0112250D03*
X0211911Y0112050D03*
X0211911Y0111950D03*
X0212011Y0111750D03*
X0212111Y0111550D03*
X0212111Y0111450D03*
X0212211Y0111250D03*
X0212211Y0111150D03*
X0212311Y0110950D03*
X0212411Y0110750D03*
X0212411Y0110650D03*
X0212511Y0110450D03*
X0212511Y0110350D03*
X0212611Y0110150D03*
X0212711Y0109950D03*
X0213311Y0108150D03*
X0213411Y0107950D03*
X0213411Y0107850D03*
X0213511Y0107750D03*
X0213511Y0107650D03*
X0213611Y0107350D03*
X0213711Y0107050D03*
X0213811Y0106850D03*
X0213911Y0106650D03*
X0216211Y0106650D03*
X0216211Y0106750D03*
X0216211Y0106850D03*
X0216211Y0106950D03*
X0216211Y0107050D03*
X0216211Y0107150D03*
X0216211Y0107250D03*
X0216211Y0107350D03*
X0216211Y0107450D03*
X0216211Y0107550D03*
X0216211Y0107650D03*
X0216211Y0107750D03*
X0216211Y0107850D03*
X0223111Y0107850D03*
X0223111Y0107950D03*
X0223111Y0108050D03*
X0223111Y0108150D03*
X0223111Y0108250D03*
X0223111Y0108350D03*
X0223111Y0108450D03*
X0223111Y0108550D03*
X0223111Y0108650D03*
X0223111Y0108750D03*
X0223111Y0108850D03*
X0223111Y0108950D03*
X0223111Y0109050D03*
X0223111Y0109150D03*
X0223111Y0107750D03*
X0223111Y0107650D03*
X0223111Y0107550D03*
X0223111Y0107450D03*
X0223111Y0107350D03*
X0223111Y0107250D03*
X0223111Y0107150D03*
X0223111Y0107050D03*
X0223111Y0106950D03*
X0223111Y0106850D03*
X0223111Y0106750D03*
X0223111Y0106650D03*
X0211511Y0113050D03*
X0210711Y0115050D03*
X0209311Y0111750D03*
X0209111Y0111250D03*
X0208911Y0110750D03*
X0208811Y0110450D03*
X0208711Y0110150D03*
X0208611Y0109950D03*
X0208011Y0108250D03*
X0208011Y0108150D03*
X0207911Y0108050D03*
X0207911Y0107950D03*
X0207911Y0107850D03*
X0207811Y0107750D03*
X0207811Y0107650D03*
X0207711Y0107450D03*
X0207711Y0107350D03*
X0207611Y0107150D03*
X0207611Y0107050D03*
X0207511Y0106850D03*
X0207511Y0106750D03*
X0203511Y0107350D03*
X0203511Y0107450D03*
X0203511Y0107550D03*
X0203511Y0107650D03*
X0203511Y0107750D03*
X0203511Y0107850D03*
X0203511Y0107950D03*
X0203511Y0108050D03*
X0203511Y0108150D03*
X0203511Y0108250D03*
X0203511Y0108350D03*
X0203511Y0108450D03*
X0203511Y0108550D03*
X0203511Y0108650D03*
X0203511Y0108750D03*
X0203511Y0108850D03*
X0203511Y0108950D03*
X0199311Y0112750D03*
X0199311Y0112850D03*
X0199311Y0112950D03*
X0199311Y0113050D03*
X0199311Y0113150D03*
X0199311Y0113250D03*
X0199311Y0113350D03*
X0199311Y0113450D03*
X0199311Y0113550D03*
X0199311Y0113650D03*
X0199311Y0113750D03*
X0199311Y0113850D03*
X0199311Y0113950D03*
X0199311Y0114050D03*
X0199311Y0114150D03*
X0199311Y0114250D03*
X0199311Y0114350D03*
X0199311Y0114450D03*
X0199311Y0114550D03*
X0199311Y0114650D03*
X0199311Y0114750D03*
X0199311Y0114950D03*
X0203511Y0113750D03*
X0203511Y0113650D03*
X0203511Y0113550D03*
X0203511Y0113450D03*
X0203511Y0113350D03*
X0194111Y0112650D03*
X0191611Y0114750D03*
X0191611Y0114850D03*
X0184711Y0114850D03*
X0184711Y0114750D03*
X0179411Y0114750D03*
X0179411Y0114850D03*
X0179411Y0114950D03*
X0179511Y0113350D03*
X0179511Y0113250D03*
X0179511Y0113150D03*
X0179511Y0113050D03*
X0179511Y0112950D03*
X0179511Y0112850D03*
X0179511Y0112750D03*
X0179511Y0112650D03*
X0179511Y0112550D03*
X0179511Y0112450D03*
X0179511Y0112350D03*
X0179511Y0112250D03*
X0179511Y0112150D03*
X0179511Y0112050D03*
X0179511Y0111950D03*
X0179411Y0111650D03*
X0175111Y0111650D03*
X0175111Y0111750D03*
X0175111Y0114850D03*
X0175111Y0114950D03*
X0170811Y0114950D03*
X0170811Y0114850D03*
X0170811Y0114750D03*
X0170811Y0114650D03*
X0170811Y0114550D03*
X0170811Y0114450D03*
X0170811Y0114350D03*
X0170811Y0114250D03*
X0170811Y0114150D03*
X0170811Y0114050D03*
X0170811Y0113950D03*
X0170811Y0113850D03*
X0170811Y0113750D03*
X0170811Y0111750D03*
X0170911Y0111450D03*
X0168411Y0111750D03*
X0168411Y0113850D03*
X0168411Y0113950D03*
X0168411Y0114050D03*
X0168411Y0114150D03*
X0168411Y0114250D03*
X0168411Y0114350D03*
X0168411Y0114450D03*
X0168411Y0114550D03*
X0168411Y0114650D03*
X0168411Y0114750D03*
X0168411Y0114850D03*
X0168411Y0114950D03*
X0164111Y0114950D03*
X0164111Y0114850D03*
X0164111Y0114750D03*
X0164111Y0114650D03*
X0164111Y0114550D03*
X0164111Y0114450D03*
X0164111Y0114350D03*
X0164111Y0114250D03*
X0164111Y0114150D03*
X0164111Y0114050D03*
X0164111Y0113950D03*
X0164111Y0113850D03*
X0164111Y0113750D03*
X0164111Y0113650D03*
X0164111Y0113550D03*
X0164111Y0111850D03*
X0164111Y0111750D03*
X0164111Y0111650D03*
X0160811Y0109450D03*
X0160911Y0109250D03*
X0161011Y0109050D03*
X0161111Y0108850D03*
X0161211Y0108650D03*
X0159811Y0111650D03*
X0159711Y0111950D03*
X0159711Y0112350D03*
X0159711Y0112450D03*
X0159711Y0112550D03*
X0159811Y0114250D03*
X0159811Y0114350D03*
X0159811Y0114450D03*
X0159811Y0114550D03*
X0159811Y0114650D03*
X0159811Y0114750D03*
X0159811Y0114850D03*
X0159811Y0114950D03*
X0157411Y0114950D03*
X0157411Y0114850D03*
X0157411Y0114750D03*
X0157411Y0114650D03*
X0157411Y0114550D03*
X0157411Y0114450D03*
X0157411Y0114350D03*
X0157411Y0114250D03*
X0157411Y0114150D03*
X0157411Y0114050D03*
X0157411Y0113950D03*
X0157411Y0113850D03*
X0157411Y0113750D03*
X0157411Y0113650D03*
X0157411Y0113550D03*
X0157411Y0113450D03*
X0157411Y0113350D03*
X0157411Y0111850D03*
X0153111Y0111750D03*
X0153111Y0114150D03*
X0153111Y0114250D03*
X0153111Y0114350D03*
X0153111Y0114450D03*
X0153111Y0114550D03*
X0153111Y0114650D03*
X0153111Y0114750D03*
X0153111Y0114850D03*
X0153111Y0114950D03*
X0148711Y0113850D03*
X0148711Y0113750D03*
X0148711Y0113650D03*
X0148711Y0113550D03*
X0148711Y0113450D03*
X0148711Y0113350D03*
X0148711Y0113250D03*
X0148711Y0113150D03*
X0148711Y0113050D03*
X0148711Y0112950D03*
X0148711Y0111850D03*
X0148811Y0111550D03*
X0150211Y0108550D03*
X0166111Y0106950D03*
X0166111Y0106850D03*
X0173111Y0106850D03*
X0173111Y0106950D03*
X0177111Y0106950D03*
X0177111Y0106850D03*
X0184711Y0106850D03*
X0184711Y0106950D03*
X0184711Y0107050D03*
X0184711Y0107150D03*
X0184711Y0107250D03*
X0184711Y0107350D03*
X0184711Y0107450D03*
X0184711Y0107550D03*
X0184711Y0107650D03*
X0184711Y0107750D03*
X0184711Y0107850D03*
X0184711Y0107950D03*
X0184711Y0108050D03*
X0184711Y0108150D03*
X0184711Y0108250D03*
X0184711Y0106750D03*
X0184711Y0106650D03*
X0188211Y0107150D03*
X0191611Y0107150D03*
X0191611Y0107250D03*
X0191611Y0107350D03*
X0191611Y0107450D03*
X0191611Y0107550D03*
X0191611Y0107650D03*
X0191611Y0107750D03*
X0191611Y0107850D03*
X0191611Y0107950D03*
X0191611Y0108050D03*
X0191611Y0108150D03*
X0191611Y0108250D03*
X0191611Y0108350D03*
X0191611Y0108450D03*
X0191611Y0108550D03*
X0191611Y0108650D03*
X0191611Y0108750D03*
X0191611Y0108850D03*
X0191611Y0108950D03*
X0191611Y0107050D03*
X0191611Y0106950D03*
X0191611Y0106850D03*
X0191611Y0106750D03*
X0191611Y0106650D03*
X0196711Y0107550D03*
X0196711Y0107650D03*
X0196711Y0107750D03*
X0196711Y0107850D03*
X0196711Y0107950D03*
X0196711Y0108050D03*
X0196711Y0108150D03*
X0196711Y0108250D03*
X0196711Y0108350D03*
X0196711Y0108450D03*
X0196711Y0108550D03*
X0196711Y0108650D03*
X0196711Y0108750D03*
X0196711Y0108850D03*
X0190311Y0134850D03*
X0183511Y0135050D03*
X0183511Y0137850D03*
X0183511Y0137950D03*
X0183511Y0138050D03*
X0183511Y0138150D03*
X0183511Y0138250D03*
X0183511Y0138350D03*
X0183511Y0138450D03*
X0183511Y0138550D03*
X0183511Y0138650D03*
X0183511Y0138750D03*
X0183511Y0138850D03*
X0183511Y0138950D03*
X0183511Y0139050D03*
X0183511Y0139150D03*
X0183511Y0139250D03*
X0183511Y0139350D03*
X0183511Y0139450D03*
X0183511Y0139550D03*
X0183511Y0139650D03*
X0183511Y0139750D03*
X0183511Y0139850D03*
X0183511Y0139950D03*
X0183511Y0140050D03*
X0183511Y0140150D03*
X0183511Y0140250D03*
X0183511Y0140350D03*
X0183511Y0140450D03*
X0183511Y0140550D03*
X0183511Y0140650D03*
X0183511Y0140750D03*
X0183511Y0140850D03*
X0183511Y0140950D03*
X0183511Y0141050D03*
X0183511Y0141150D03*
X0183511Y0141250D03*
X0183511Y0141350D03*
X0183511Y0141450D03*
X0183511Y0141550D03*
X0176611Y0141550D03*
X0176611Y0141650D03*
X0176611Y0141750D03*
X0176611Y0141850D03*
X0176611Y0141450D03*
X0176611Y0141350D03*
X0176611Y0141250D03*
X0176611Y0141150D03*
X0176611Y0141050D03*
X0176611Y0140950D03*
X0176611Y0140850D03*
X0176611Y0140750D03*
X0176611Y0140650D03*
X0176611Y0140550D03*
X0176611Y0140450D03*
X0176611Y0140350D03*
X0176611Y0140250D03*
X0176611Y0140150D03*
X0176611Y0140050D03*
X0176611Y0139950D03*
X0176611Y0139850D03*
X0176611Y0139750D03*
X0176611Y0139650D03*
X0176611Y0139550D03*
X0176611Y0139450D03*
X0176611Y0139350D03*
X0176611Y0139250D03*
X0176611Y0139150D03*
X0176611Y0139050D03*
X0176611Y0138950D03*
X0176611Y0138850D03*
X0176611Y0138750D03*
X0176611Y0138650D03*
X0176611Y0138550D03*
X0176611Y0138450D03*
X0167311Y0138450D03*
X0167311Y0138550D03*
X0167311Y0138650D03*
X0167311Y0138750D03*
X0167311Y0138850D03*
X0167311Y0138950D03*
X0167311Y0139050D03*
X0167311Y0139150D03*
X0167311Y0139250D03*
X0167311Y0139350D03*
X0167311Y0139450D03*
X0167311Y0139550D03*
X0167311Y0139650D03*
X0167311Y0139750D03*
X0167311Y0139850D03*
X0167311Y0139950D03*
X0167311Y0140050D03*
X0167311Y0140150D03*
X0167311Y0140250D03*
X0167311Y0140350D03*
X0167311Y0140450D03*
X0167311Y0140550D03*
X0167311Y0140650D03*
X0167311Y0140750D03*
X0167311Y0138350D03*
X0167311Y0138250D03*
X0167311Y0138150D03*
X0167311Y0138050D03*
X0167311Y0137950D03*
X0167311Y0137850D03*
X0167311Y0137750D03*
X0179711Y0156550D03*
D76*
X0171861Y0165350D03*
X0204961Y0162850D03*
X0204961Y0162750D03*
X0211661Y0156650D03*
X0211661Y0156550D03*
D77*
X0211611Y0156750D03*
X0205011Y0162550D03*
X0205011Y0162650D03*
X0221911Y0166050D03*
X0171911Y0165250D03*
X0171911Y0165150D03*
X0171911Y0157250D03*
X0190311Y0144250D03*
X0190311Y0135450D03*
D78*
X0170261Y0135150D03*
X0211461Y0156950D03*
X0211561Y0156850D03*
X0205061Y0162450D03*
X0176961Y0159650D03*
X0171961Y0165050D03*
D79*
X0172061Y0164950D03*
X0172061Y0164850D03*
X0172061Y0157350D03*
X0190261Y0135550D03*
D80*
X0170261Y0135250D03*
X0172161Y0157450D03*
X0172161Y0164650D03*
D81*
X0172261Y0157550D03*
D82*
X0172511Y0157750D03*
X0203511Y0114650D03*
X0203511Y0114550D03*
X0203511Y0114450D03*
X0203511Y0114350D03*
X0203511Y0114250D03*
X0233411Y0114450D03*
X0233411Y0114550D03*
X0233411Y0114650D03*
X0233411Y0114750D03*
X0233411Y0114850D03*
X0233411Y0114950D03*
D83*
X0210661Y0109150D03*
X0210661Y0109050D03*
X0210661Y0108950D03*
X0190261Y0136050D03*
X0170261Y0135550D03*
X0172661Y0157850D03*
D84*
X0172811Y0157950D03*
X0190311Y0143550D03*
X0190311Y0143450D03*
D85*
X0175011Y0158350D03*
D86*
X0174961Y0158450D03*
X0174961Y0158550D03*
D87*
X0174911Y0158650D03*
D88*
X0174861Y0158750D03*
D89*
X0176661Y0159250D03*
X0221961Y0165650D03*
X0190261Y0135950D03*
X0170261Y0135450D03*
X0203461Y0114150D03*
X0210661Y0109350D03*
X0210661Y0109250D03*
X0233361Y0114050D03*
X0233361Y0114150D03*
X0233361Y0114250D03*
X0233361Y0114350D03*
D90*
X0210661Y0109750D03*
X0170261Y0135350D03*
X0176761Y0159350D03*
D91*
X0176911Y0159550D03*
X0172111Y0164750D03*
X0221911Y0165950D03*
X0190311Y0144150D03*
D92*
X0163111Y0164350D03*
X0163111Y0164450D03*
D93*
X0163161Y0164550D03*
X0163161Y0164650D03*
X0163161Y0164750D03*
X0163161Y0164850D03*
X0163161Y0164950D03*
D94*
X0221911Y0164550D03*
D95*
X0221911Y0164650D03*
D96*
X0221961Y0165350D03*
D97*
X0163261Y0165650D03*
X0163261Y0165750D03*
X0163261Y0165850D03*
X0163261Y0165950D03*
D98*
X0198511Y0166150D03*
X0191511Y0146850D03*
X0191311Y0115050D03*
X0225911Y0106550D03*
D99*
X0167561Y0166250D03*
D100*
X0179561Y0133050D03*
D101*
X0179561Y0133150D03*
D102*
X0167411Y0133450D03*
X0167111Y0133550D03*
X0191811Y0133450D03*
X0192611Y0146450D03*
X0192411Y0146550D03*
X0192111Y0146650D03*
X0166811Y0146550D03*
X0166611Y0146450D03*
X0210211Y0115150D03*
X0211211Y0115150D03*
D103*
X0199911Y0115050D03*
X0198611Y0115050D03*
X0194711Y0115050D03*
X0193411Y0115050D03*
X0178811Y0115050D03*
X0174511Y0115050D03*
X0170211Y0115050D03*
X0169011Y0115050D03*
X0167711Y0115050D03*
X0164711Y0115050D03*
X0163511Y0115050D03*
X0159211Y0115050D03*
X0158011Y0115050D03*
X0156711Y0115050D03*
X0153711Y0115050D03*
X0163611Y0136450D03*
X0163311Y0136950D03*
X0163211Y0137150D03*
X0163111Y0137450D03*
X0163011Y0137650D03*
X0162911Y0137950D03*
X0162811Y0138250D03*
X0162811Y0138350D03*
X0162711Y0138650D03*
X0162711Y0138750D03*
X0162611Y0139250D03*
X0162611Y0139350D03*
X0162611Y0139450D03*
X0162611Y0139550D03*
X0162611Y0139650D03*
X0162611Y0140650D03*
X0162611Y0140750D03*
X0162611Y0140850D03*
X0162611Y0140950D03*
X0162711Y0141450D03*
X0162711Y0141550D03*
X0162811Y0141950D03*
X0162911Y0142250D03*
X0163011Y0142550D03*
X0163211Y0143050D03*
X0163311Y0143250D03*
X0195711Y0143550D03*
X0195811Y0143350D03*
X0195911Y0143150D03*
X0196011Y0142950D03*
X0196111Y0142750D03*
X0196211Y0142450D03*
X0196311Y0142150D03*
X0196411Y0141850D03*
X0196411Y0141750D03*
X0196511Y0141450D03*
X0196511Y0141350D03*
X0196511Y0141250D03*
X0196511Y0141150D03*
X0196611Y0140750D03*
X0196611Y0140650D03*
X0196611Y0140550D03*
X0196611Y0140450D03*
X0196611Y0140350D03*
X0196611Y0140250D03*
X0196611Y0140150D03*
X0196611Y0140050D03*
X0196611Y0139950D03*
X0196611Y0139850D03*
X0196611Y0139750D03*
X0196611Y0139650D03*
X0196611Y0139550D03*
X0196611Y0139450D03*
X0196511Y0139150D03*
X0196511Y0139050D03*
X0196511Y0138950D03*
X0196511Y0138850D03*
X0196511Y0138750D03*
X0196411Y0138550D03*
X0196411Y0138450D03*
X0196411Y0138350D03*
X0196311Y0138150D03*
X0196311Y0138050D03*
X0196211Y0137850D03*
X0196211Y0137750D03*
X0196111Y0137550D03*
X0196111Y0137450D03*
X0196011Y0137250D03*
X0195911Y0137050D03*
X0195811Y0136850D03*
X0195711Y0136650D03*
X0195611Y0136550D03*
X0195511Y0136350D03*
X0195311Y0136050D03*
X0195011Y0135650D03*
X0194911Y0135550D03*
X0228011Y0115050D03*
X0229311Y0115050D03*
X0225911Y0108450D03*
D104*
X0210661Y0108450D03*
X0210661Y0108550D03*
X0190261Y0136250D03*
X0170261Y0135750D03*
D105*
X0190311Y0135750D03*
X0190311Y0143950D03*
D106*
X0170311Y0136050D03*
X0170311Y0135950D03*
D107*
X0190311Y0143650D03*
D108*
X0179561Y0147050D03*
D109*
X0179561Y0147150D03*
D110*
X0203561Y0114950D03*
X0203561Y0114850D03*
X0203561Y0114750D03*
X0210661Y0109650D03*
X0210661Y0109550D03*
X0210661Y0109450D03*
M02*
